RobotoFlex-Light.ufo
<glyph name="exclam" format="2">
  <advance width="548"/>
  <unicode hex="0021"/>
  <outline>
    <contour>
      <point x="186.0" y="76.97549019607" type="qcurve" smooth="yes"/>
      <point x="186.0" y="117.86732026142667"/>
      <point x="231.63366013071334" y="175.95098039214"/>
      <point x="274.47581699345" y="175.95098039214" type="qcurve" smooth="yes"/>
      <point x="317.31797385618665" y="175.95098039214"/>
      <point x="362.23496732023335" y="117.86732026142667"/>
      <point x="362.23496732023335" y="76.97549019607" type="qcurve" smooth="yes"/>
      <point x="362.23496732023335" y="36.083660130713334"/>
      <point x="317.31797385618665" y="-22.0"/>
      <point x="274.47581699345" y="-22.0" type="qcurve" smooth="yes"/>
      <point x="232.12549019607" y="-22.0"/>
      <point x="186.0" y="36.083660130713334"/>
    </contour>
    <contour>
      <point x="222.04183006535666" y="397.63398692809335" type="line"/>
      <point x="212.28333333333333" y="1456.0" type="line"/>
      <point x="336.6683006535667" y="1456.0" type="line"/>
      <point x="326.68496732023334" y="397.63398692809335" type="line"/>
    </contour>
  </outline>
</glyph>
<glyph name="quotedbl" format="2">
  <advance width="652"/>
  <unicode hex="0022"/>
  <outline>
    <contour>
      <point x="110.71883006535667" y="1056.10720261441" type="line"/>
      <point x="100.0" y="1344.84050980393" type="line"/>
      <point x="100.0" y="1456.0" type="line"/>
      <point x="225.67498039214" y="1456.0" type="line"/>
      <point x="225.67498039214" y="1344.84050980393" type="line"/>
      <point x="215.44798039214" y="1056.10720261441" type="line"/>
    </contour>
    <contour>
      <point x="436.39381045749667" y="1056.10720261441" type="line"/>
      <point x="425.67498039214" y="1344.84050980393" type="line"/>
      <point x="425.67498039214" y="1456.0" type="line"/>
      <point x="551.8417908497083" y="1456.0" type="line"/>
      <point x="551.8417908497083" y="1344.84050980393" type="line"/>
      <point x="541.6147908497084" y="1056.10720261441" type="line"/>
    </contour>
  </outline>
</glyph>
<glyph name="numbersign" format="2">
  <advance width="1514"/>
  <unicode hex="0023"/>
  <outline>
    <contour>
      <point x="195.69275816994167" y="-20.0" type="line"/>
      <point x="704.1261568627367" y="1470.787581699345" type="line"/>
      <point x="803.8389673202333" y="1470.787581699345" type="line"/>
      <point x="294.9137385620817" y="-20.0" type="line"/>
    </contour>
    <contour>
      <point x="714.8361437908301" y="-20.0" type="line"/>
      <point x="1223.87603921572" y="1470.787581699345" type="line"/>
      <point x="1324.0806797385733" y="1470.787581699345" type="line"/>
      <point x="815.040784313755" y="-20.0" type="line"/>
    </contour>
    <contour>
      <point x="29.49882352940333" y="428.84050980393" type="line"/>
      <point x="29.49882352940333" y="528.3636601307134" type="line"/>
      <point x="1402.473398692795" y="528.3636601307134" type="line"/>
      <point x="1402.473398692795" y="428.84050980393" type="line"/>
    </contour>
    <contour>
      <point x="117.80820915029166" y="922.4239215686317" type="line"/>
      <point x="117.80820915029166" y="1021.947071895415" type="line"/>
      <point x="1489.2909542483983" y="1021.947071895415" type="line"/>
      <point x="1489.2909542483983" y="922.4239215686317" type="line"/>
    </contour>
  </outline>
</glyph>
<glyph name="dollar" format="2">
  <advance width="1082"/>
  <unicode hex="0024"/>
  <outline>
    <contour>
      <point x="59.06764705880667" y="418.238562091485" type="qcurve" smooth="yes"/>
      <point x="59.06764705880667" y="430.4470588235083" type="line"/>
      <point x="179.436928104585" y="430.4470588235083" type="line"/>
      <point x="179.436928104585" y="418.238562091485" type="line" smooth="yes"/>
      <point x="179.436928104585" y="267.64673202612835"/>
      <point x="375.8016339869" y="110.77810457518166"/>
      <point x="553.4660130719067" y="110.77810457518166" type="qcurve" smooth="yes"/>
      <point x="727.938235294105" y="110.77810457518166"/>
      <point x="918.5114379085151" y="265.913398692795"/>
      <point x="917.7947712418484" y="378.813398692795" type="qcurve" smooth="yes"/>
      <point x="917.0781045751817" y="501.99084967321664"/>
      <point x="767.42679738559" y="629.2470588235083"/>
      <point x="524.114052287555" y="689.5326797385733" type="qcurve" smooth="yes"/>
      <point x="281.014379084935" y="749.67549019607"/>
      <point x="90.24346405225667" y="926.3689542483984"/>
      <point x="90.24346405225667" y="1084.5542483660117" type="qcurve" smooth="yes"/>
      <point x="90.24346405225667" y="1241.212418300655"/>
      <point x="324.56633986928665" y="1455.5830065359532"/>
      <point x="542.97418300655" y="1455.5830065359532" type="qcurve" smooth="yes"/>
      <point x="755.088888888865" y="1455.5830065359532"/>
      <point x="1007.9718954248184" y="1214.8209150326784"/>
      <point x="1007.9718954248184" y="1044.8039215686317" type="qcurve" smooth="yes"/>
      <point x="1007.9718954248184" y="1032.5954248366083" type="line"/>
      <point x="886.3941176470884" y="1032.5954248366083" type="line"/>
      <point x="886.3941176470884" y="1044.8039215686317" type="line" smooth="yes"/>
      <point x="886.3941176470884" y="1177.037254901965"/>
      <point x="713.2215686274383" y="1346.264379084935"/>
      <point x="542.97418300655" y="1346.264379084935" type="qcurve" smooth="yes"/>
      <point x="371.30980392154333" y="1346.264379084935"/>
      <point x="209.55424836601168" y="1205.337581699345"/>
      <point x="209.55424836601168" y="1084.5542483660117" type="qcurve" smooth="yes"/>
      <point x="209.55424836601168" y="983.1784313725617"/>
      <point x="366.93464052285333" y="859.8189542483983"/>
      <point x="611.1516339869" y="796.1349673202334" type="qcurve" smooth="yes"/>
      <point x="829.1588235294033" y="738.9594771241633"/>
      <point x="1037.3725490195784" y="559.6575163398834"/>
      <point x="1037.3725490195784" y="404.45882352940333" type="qcurve" smooth="yes"/>
      <point x="1037.3725490195784" y="226.07156862743832"/>
      <point x="778.1898692810767" y="1.2509803921399998"/>
      <point x="553.4660130719067" y="1.2509803921399998" type="qcurve" smooth="yes"/>
      <point x="329.4424836601167" y="1.2509803921399998"/>
      <point x="59.06764705880667" y="227.50490196077166"/>
    </contour>
    <contour>
      <point x="500.14869281048" y="-145.83006535946166" type="line"/>
      <point x="500.14869281048" y="721.7450980392284" type="line"/>
      <point x="597.12549019607" y="721.7450980392284" type="line"/>
      <point x="597.12549019607" y="68.336601307205" type="line"/>
      <point x="601.05" y="58.336601307205" type="line"/>
      <point x="601.05" y="-145.83006535946166" type="line"/>
    </contour>
    <contour>
      <point x="503.80620915029164" y="721.7450980392284" type="line"/>
      <point x="503.80620915029164" y="1385.5784313725617" type="line"/>
      <point x="499.1650326797667" y="1395.5784313725617" type="line"/>
      <point x="499.1650326797667" y="1610.1699346405385" type="line"/>
      <point x="600.0663398692867" y="1610.1699346405385" type="line"/>
      <point x="600.0663398692867" y="721.7450980392284" type="line"/>
    </contour>
  </outline>
</glyph>
<glyph name="ampersand" format="2">
  <advance width="1244"/>
  <unicode hex="0026"/>
  <outline>
    <contour>
      <point x="80.0" y="380.0" type="qcurve" smooth="yes"/>
      <point x="80.0" y="529.47483660131"/>
      <point x="263.89433333333335" y="738.9223660131"/>
      <point x="438.9714836601167" y="840.4628235294033" type="qcurve" smooth="yes"/>
      <point x="594.037725490175" y="932.20232679738" type="line" smooth="yes"/>
      <point x="678.37650980393" y="982.3169934640466"/>
      <point x="759.3043006535667" y="1097.82734640524"/>
      <point x="759.3043006535667" y="1173.8896732026199" type="qcurve" smooth="yes"/>
      <point x="759.3043006535667" y="1260.1813333333334"/>
      <point x="652.8322091502916" y="1381.2488496732167"/>
      <point x="556.178928104585" y="1381.2488496732167" type="qcurve" smooth="yes"/>
      <point x="456.87032679737996" y="1381.2488496732167"/>
      <point x="339.2842483660117" y="1250.1813333333334"/>
      <point x="339.2842483660117" y="1159.0163398692866" type="qcurve" smooth="yes"/>
      <point x="339.2842483660117" y="1084.39650980393"/>
      <point x="418.78201960786" y="942.7443529411933"/>
      <point x="522.75030718952" y="819.82934640524" type="qcurve" smooth="yes"/>
      <point x="1220.6641176470885" y="0.0" type="line"/>
      <point x="1068.6596862745266" y="0.0" type="line"/>
      <point x="428.0175032679767" y="758.7390065359533" type="line" smooth="yes"/>
      <point x="314.04339215684166" y="893.6365098039299"/>
      <point x="220.477947712445" y="1063.8896732026199"/>
      <point x="220.477947712445" y="1159.0163398692866" type="qcurve" smooth="yes"/>
      <point x="220.477947712445" y="1301.7863267973798"/>
      <point x="412.37016993464334" y="1486.0"/>
      <point x="556.178928104585" y="1486.0" type="qcurve" smooth="yes"/>
      <point x="697.5616993464333" y="1486.0"/>
      <point x="876.6425882352983" y="1313.3433202614267"/>
      <point x="876.6425882352983" y="1179.1310065359535" type="qcurve" smooth="yes"/>
      <point x="876.6425882352983" y="1068.2711764705966"/>
      <point x="760.2033137254733" y="909.22167320262"/>
      <point x="668.29" y="852.7128235294033" type="qcurve" smooth="yes"/>
      <point x="507.07728758173164" y="756.6463398692866" type="line" smooth="yes"/>
      <point x="344.89209803922836" y="659.5095424836251"/>
      <point x="200.11830065356668" y="493.35849673202335"/>
      <point x="199.9749673202333" y="380.4918300653567" type="qcurve" smooth="yes"/>
      <point x="200.11830065356668" y="247.33366013071333"/>
      <point x="378.5603660131" y="84.75115032678333"/>
      <point x="526.9334509804216" y="84.75115032678333" type="qcurve" smooth="yes"/>
      <point x="730.3878431372633" y="84.75115032678333"/>
      <point x="1023.8238562091701" y="401.49032679738"/>
      <point x="1023.8238562091701" y="674.0" type="qcurve"/>
      <point x="1138.1628235294033" y="674.0" type="line"/>
      <point x="1138.1628235294033" y="380.0"/>
      <point x="786.5596601307133" y="-20.0"/>
      <point x="526.9334509804216" y="-20.0" type="qcurve" smooth="yes"/>
      <point x="317.200052287555" y="-20.0"/>
      <point x="80.0" y="203.97418300655"/>
    </contour>
  </outline>
</glyph>
<glyph name="quotesingle" format="2">
  <advance width="340"/>
  <unicode hex="0027"/>
  <outline>
    <contour>
      <point x="115.45849673202333" y="1055.9065359477434" type="line"/>
      <point x="105.01666666666667" y="1345.0411764705968" type="line"/>
      <point x="105.01666666666667" y="1456.0" type="line"/>
      <point x="234.64281045749667" y="1456.0" type="line"/>
      <point x="234.64281045749667" y="1345.0411764705968" type="line"/>
      <point x="224.69281045749668" y="1055.9065359477434" type="line"/>
    </contour>
  </outline>
</glyph>
<glyph name="parenleft" format="2">
  <advance width="629"/>
  <unicode hex="0028"/>
  <outline>
    <contour>
      <point x="642.612418300655" y="-436.0" type="line"/>
      <point x="434.66653594774334" y="-357.90879738559"/>
      <point x="124.0" y="116.32189542481834"/>
      <point x="124.0" y="515.0" type="qcurve" smooth="yes"/>
      <point x="124.0" y="525.0" type="line" smooth="yes"/>
      <point x="124.0" y="920.1336601307133"/>
      <point x="434.66653594774334" y="1397.9087973855899"/>
      <point x="642.612418300655" y="1476.0" type="qcurve"/>
      <point x="642.612418300655" y="1371.685620915065" type="line"/>
      <point x="488.9901960784567" y="1301.5454248366084"/>
      <point x="249.17980392154334" y="901.4874509804216"/>
      <point x="249.17980392154334" y="532.0" type="qcurve" smooth="yes"/>
      <point x="249.17980392154334" y="508.0" type="line" smooth="yes"/>
      <point x="249.17980392154334" y="135.59359477125167"/>
      <point x="488.9901960784567" y="-260.112091503275"/>
      <point x="642.612418300655" y="-330.25228758173165" type="qcurve"/>
    </contour>
  </outline>
</glyph>
<glyph name="parenright" format="2">
  <advance width="629"/>
  <unicode hex="0029"/>
  <outline>
    <contour>
      <point x="-13.211111111134997" y="-436.0" type="qcurve"/>
      <point x="-13.211111111134997" y="-328.1022875817317" type="line"/>
      <point x="141.12777777780167" y="-257.962091503275"/>
      <point x="381.0" y="135.59359477125167"/>
      <point x="381.0" y="508.0" type="qcurve" smooth="yes"/>
      <point x="381.0" y="532.0" type="line" smooth="yes"/>
      <point x="381.0" y="901.4874509804216"/>
      <point x="141.12777777780167" y="1297.2454248366082"/>
      <point x="-13.211111111134997" y="1367.385620915065" type="qcurve"/>
      <point x="-13.211111111134997" y="1476.0" type="line"/>
      <point x="195.36993464053833" y="1397.5934640522566"/>
      <point x="505.68797385618666" y="920.1336601307133"/>
      <point x="505.68797385618666" y="525.0" type="qcurve" smooth="yes"/>
      <point x="505.68797385618666" y="515.0" type="line" smooth="yes"/>
      <point x="505.68797385618666" y="116.32189542481834"/>
      <point x="195.36993464053833" y="-357.59346405225665"/>
    </contour>
  </outline>
</glyph>
<glyph name="asterisk" format="2">
  <advance width="1094"/>
  <unicode hex="002A"/>
  <outline>
    <contour>
      <point x="58.0" y="1074.789071895415" type="line"/>
      <point x="95.14082352940333" y="1194.0185490195784" type="line"/>
      <point x="507.083091503275" y="1038.1657385620815" type="line"/>
      <point x="486.584091503275" y="1476.0" type="line"/>
      <point x="607.255725490175" y="1476.0" type="line"/>
      <point x="586.756725490175" y="1038.1657385620815" type="line"/>
      <point x="998.6989934640467" y="1194.0185490195784" type="line"/>
      <point x="1035.83981699345" y="1074.789071895415" type="line"/>
      <point x="611.4280522875549" y="960.0447581699416" type="line"/>
      <point x="886.5088431372633" y="619.22181699345" type="line"/>
      <point x="789.5240326797666" y="545.2158300653567" type="line"/>
      <point x="546.919908496725" y="913.0327712418483" type="line"/>
      <point x="304.315784313755" y="545.2158300653567" type="line"/>
      <point x="207.3309738561867" y="619.22181699345" type="line"/>
      <point x="482.411764705895" y="960.0447581699416" type="line"/>
    </contour>
  </outline>
</glyph>
<glyph name="plus" format="2">
  <advance width="1200"/>
  <unicode hex="002B"/>
  <outline>
    <contour>
      <point x="83.49643137256166" y="619.00283660131" type="line"/>
      <point x="83.49643137256166" y="729.4141568627367" type="line"/>
      <point x="1116.944091503275" y="729.4141568627367" type="line"/>
      <point x="1116.944091503275" y="619.00283660131" type="line"/>
    </contour>
    <contour>
      <point x="541.172111111135" y="155.91918954250332" type="line"/>
      <point x="541.172111111135" y="1192.0808104574967" type="line"/>
      <point x="659.2684117647017" y="1192.0808104574967" type="line"/>
      <point x="659.2684117647017" y="155.91918954250332" type="line"/>
    </contour>
  </outline>
</glyph>
<glyph name="comma" format="2">
  <advance width="526"/>
  <unicode hex="002C"/>
  <outline>
    <contour>
      <point x="138.71500653595334" y="-177.07299346404668" type="line"/>
      <point x="173.91" y="-125.25183006535667"/>
      <point x="210.0" y="-15.609503267976667"/>
      <point x="210.0" y="57.33832679738" type="qcurve" smooth="yes"/>
      <point x="210.0" y="180.06564705880666" type="line"/>
      <point x="336.6586405228533" y="180.06564705880666" type="line"/>
      <point x="336.6586405228533" y="57.33832679738" type="line" smooth="yes"/>
      <point x="336.6586405228533" y="-32.202666666666666"/>
      <point x="272.06381699344996" y="-174.79282352940334"/>
      <point x="217.00582352940333" y="-229.12665359476" type="qcurve"/>
    </contour>
  </outline>
</glyph>
<glyph name="hyphen" format="2">
  <advance width="637"/>
  <unicode hex="002D"/>
  <outline>
    <contour>
      <point x="35.83006535946167" y="578.1043398692867" type="line"/>
      <point x="35.83006535946167" y="692.6169934640467" type="line"/>
      <point x="600.34381699345" y="692.6169934640467" type="line"/>
      <point x="600.34381699345" y="578.1043398692867" type="line"/>
    </contour>
  </outline>
</glyph>
<glyph name="period" format="2">
  <advance width="503"/>
  <unicode hex="002E"/>
  <outline>
    <contour>
      <point x="160.0" y="80.10882352940334" type="qcurve" smooth="yes"/>
      <point x="160.0" y="122.85848366011666"/>
      <point x="207.26215686273667" y="182.70947712416333"/>
      <point x="251.58498039214" y="182.70947712416333" type="qcurve" smooth="yes"/>
      <point x="295.41597385618667" y="182.70947712416333"/>
      <point x="342.67813071892334" y="122.85848366011666"/>
      <point x="342.67813071892334" y="80.60065359476" type="qcurve" smooth="yes"/>
      <point x="342.67813071892334" y="37.85099346404667"/>
      <point x="295.41597385618667" y="-22.0"/>
      <point x="251.09315032678333" y="-22.0" type="qcurve" smooth="yes"/>
      <point x="207.26215686273667" y="-22.0"/>
      <point x="160.0" y="37.85099346404667"/>
    </contour>
  </outline>
</glyph>
<glyph name="slash" format="2">
  <advance width="593"/>
  <unicode hex="002F"/>
  <outline>
    <contour>
      <point x="-104.91830065356667" y="-125.0" type="line"/>
      <point x="570.985725490175" y="1456.0" type="line"/>
      <point x="698.7886274509467" y="1456.0" type="line"/>
      <point x="21.786274509825" y="-125.0" type="line"/>
    </contour>
  </outline>
</glyph>
<glyph name="zero" format="2">
  <advance width="1213"/>
  <unicode hex="0030"/>
  <outline>
    <contour>
      <point x="143.78169934643333" y="488.07647058821" type="qcurve" smooth="yes"/>
      <point x="143.78169934643333" y="966.4901960784566" type="line" smooth="yes"/>
      <point x="143.78169934643333" y="1209.3532679738717"/>
      <point x="387.987581699345" y="1486.0"/>
      <point x="606.52614379083" y="1486.0" type="qcurve" smooth="yes"/>
      <point x="824.49803921572" y="1486.0"/>
      <point x="1069.7624183006549" y="1209.3532679738717"/>
      <point x="1069.7624183006549" y="966.4901960784566" type="qcurve" smooth="yes"/>
      <point x="1069.7624183006549" y="488.07647058821" type="line" smooth="yes"/>
      <point x="1069.7624183006549" y="244.22973856208168"/>
      <point x="824.49803921572" y="-30.0"/>
      <point x="606.52614379083" y="-30.0" type="qcurve" smooth="yes"/>
      <point x="387.987581699345" y="-30.0"/>
      <point x="143.78169934643333" y="244.22973856208168"/>
    </contour>
    <contour>
      <point x="268.8833333333333" y="480.94313725487666" type="line" smooth="yes"/>
      <point x="268.8833333333333" y="298.50522875815165"/>
      <point x="439.587908496725" y="78.63431372547333"/>
      <point x="606.52614379083" y="78.63431372547333" type="qcurve" smooth="yes"/>
      <point x="773.464379084935" y="78.63431372547333"/>
      <point x="945.1526143791117" y="298.50522875815165"/>
      <point x="945.1526143791117" y="480.94313725487666" type="qcurve" smooth="yes"/>
      <point x="945.1526143791117" y="971.47352941179" type="line" smooth="yes"/>
      <point x="945.1526143791117" y="1152.2111111111349"/>
      <point x="774.1810457516017" y="1377.3656862745268"/>
      <point x="606.52614379083" y="1377.3656862745268" type="qcurve" smooth="yes"/>
      <point x="438.87124183005835" y="1377.3656862745268"/>
      <point x="268.8833333333333" y="1152.2111111111349"/>
      <point x="268.8833333333333" y="971.47352941179" type="qcurve" smooth="yes"/>
    </contour>
  </outline>
</glyph>
<glyph name="one" format="2">
  <advance width="1213"/>
  <unicode hex="0031"/>
  <outline>
    <contour>
      <point x="604.0924836601166" y="0.0" type="line"/>
      <point x="604.0924836601166" y="1335.3421568627366" type="line"/>
      <point x="185.89771241826833" y="1179.7660130719066" type="line"/>
      <point x="185.89771241826833" y="1299.65" type="line"/>
      <point x="690.3084967320233" y="1476.0" type="line"/>
      <point x="727.910784313755" y="1476.0" type="line"/>
      <point x="727.910784313755" y="0.0" type="line"/>
    </contour>
  </outline>
</glyph>
<glyph name="two" format="2">
  <advance width="1213"/>
  <unicode hex="0032"/>
  <outline>
    <contour>
      <point x="144.27352941178998" y="0.0" type="line"/>
      <point x="144.27352941178998" y="99.23431372547333" type="line"/>
      <point x="721.0307189542216" y="672.6683006535667" type="line" smooth="yes"/>
      <point x="823.5973856208883" y="776.9911764705967"/>
      <point x="946.010457516375" y="975.9669934640467"/>
      <point x="946.010457516375" y="1094.0663398692866" type="qcurve" smooth="yes"/>
      <point x="946.010457516375" y="1202.39934640524"/>
      <point x="780.488888888865" y="1378.0823529411932"/>
      <point x="627.6346405228534" y="1377.3656862745268" type="qcurve" smooth="yes"/>
      <point x="469.187581699345" y="1376.64901960786"/>
      <point x="268.46666666666664" y="1199.7065359477433"/>
      <point x="268.46666666666664" y="1040.4830065359533" type="qcurve" smooth="yes"/>
      <point x="268.46666666666664" y="1026.1830065359534" type="line"/>
      <point x="145.93169934643333" y="1026.1830065359534" type="line"/>
      <point x="145.93169934643333" y="1039.7663398692866" type="line" smooth="yes"/>
      <point x="145.93169934643333" y="1235.3820261438134"/>
      <point x="414.8284313725617" y="1486.0"/>
      <point x="627.6346405228534" y="1486.0" type="qcurve" smooth="yes"/>
      <point x="833.0728758169583" y="1486.0"/>
      <point x="1069.2620915032749" y="1249.0163398692866"/>
      <point x="1069.2620915032749" y="1098.3330065359532" type="qcurve" smooth="yes"/>
      <point x="1069.2620915032749" y="949.3911764705966"/>
      <point x="924.55098039214" y="716.7166666666667"/>
      <point x="800.2062091502917" y="594.5081699346433" type="qcurve" smooth="yes"/>
      <point x="308.161764705895" y="105.26601307190666" type="line"/>
      <point x="1118.3960784313683" y="105.26601307190666" type="line"/>
      <point x="1118.3960784313683" y="0.0" type="line"/>
    </contour>
  </outline>
</glyph>
<glyph name="three" format="2">
  <advance width="1213"/>
  <unicode hex="0033"/>
  <outline>
    <contour>
      <point x="115.21503267976667" y="379.55032679738" type="qcurve" smooth="yes"/>
      <point x="115.21503267976667" y="390.98366013071336" type="line"/>
      <point x="235.9" y="390.98366013071336" type="line"/>
      <point x="235.9" y="380.98366013071336" type="line" smooth="yes"/>
      <point x="235.9" y="237.10882352940334"/>
      <point x="442.2303921568417" y="78.14248366011667"/>
      <point x="601.12647058821" y="78.14248366011667" type="qcurve" smooth="yes"/>
      <point x="752.8558823529116" y="78.14248366011667"/>
      <point x="962.9196078431584" y="235.45065359476"/>
      <point x="962.9196078431584" y="387.3669934640467" type="qcurve" smooth="yes"/>
      <point x="962.9196078431584" y="550.0333333333333"/>
      <point x="725.880888888865" y="704.8911764705966"/>
      <point x="559.6639869280933" y="704.8911764705966" type="qcurve" smooth="yes"/>
      <point x="431.502052287555" y="704.8911764705966" type="line"/>
      <point x="431.502052287555" y="812.6169934640467" type="line"/>
      <point x="548.8281568627367" y="812.6169934640467" type="line" smooth="yes"/>
      <point x="708.3107320261283" y="812.6169934640467"/>
      <point x="908.5352941176134" y="964.9833333333333"/>
      <point x="908.5352941176134" y="1094.52483660131" type="qcurve" smooth="yes"/>
      <point x="908.5352941176134" y="1232.8911764705967"/>
      <point x="735.1137254901749" y="1378.5741830065501"/>
      <point x="601.1551372548766" y="1378.1728496732167" type="qcurve" smooth="yes"/>
      <point x="469.10686274512335" y="1377.8575163398834"/>
      <point x="277.6424836601167" y="1225.94934640524"/>
      <point x="277.6424836601167" y="1099.0163398692866" type="qcurve" smooth="yes"/>
      <point x="277.6424836601167" y="1081.84967320262" type="line"/>
      <point x="157.89901960786" y="1081.84967320262" type="line"/>
      <point x="157.89901960786" y="1099.0163398692866" type="line" smooth="yes"/>
      <point x="157.89901960786" y="1264.52483660131"/>
      <point x="416.03104575160165" y="1486.0"/>
      <point x="601.1551372548766" y="1486.0" type="qcurve" smooth="yes"/>
      <point x="787.6977124182683" y="1486.0"/>
      <point x="1032.3535947712517" y="1269.5081699346433"/>
      <point x="1032.3535947712517" y="1099.5081699346433" type="qcurve" smooth="yes"/>
      <point x="1032.3535947712517" y="994.9833333333333"/>
      <point x="905.4346405228533" y="815.2833333333333"/>
      <point x="774.39869281048" y="763.85" type="qcurve"/>
      <point x="774.39869281048" y="759.85" type="line"/>
      <point x="908.9846405228533" y="731.4333333333333"/>
      <point x="1088.7379084967251" y="543.3584967320234"/>
      <point x="1088.7379084967251" y="383.57516339869" type="qcurve" smooth="yes"/>
      <point x="1088.7379084967251" y="201.20849673202332"/>
      <point x="807.9647058823866" y="-30.0"/>
      <point x="601.12647058821" y="-30.716666666666665" type="qcurve" smooth="yes"/>
      <point x="396.2983660131" y="-31.433333333333334"/>
      <point x="115.21503267976667" y="191.89183006535666"/>
    </contour>
  </outline>
</glyph>
<glyph name="four" format="2">
  <advance width="1213"/>
  <unicode hex="0034"/>
  <outline>
    <contour>
      <point x="814.5669934640466" y="0.0" type="line"/>
      <point x="814.5669934640466" y="394.4166666666667" type="line"/>
      <point x="814.5669934640466" y="425.6333333333333" type="line"/>
      <point x="814.5669934640466" y="1265.3950980392283" type="line"/>
      <point x="805.4336601307133" y="1265.3950980392283" type="line"/>
      <point x="208.02712418304168" y="463.2673202614267" type="line"/>
      <point x="837.6310457516016" y="463.2673202614267" type="line"/>
      <point x="888.7326797385733" y="463.2673202614267" type="line"/>
      <point x="1153.9228758169584" y="463.2673202614267" type="line"/>
      <point x="1153.9228758169584" y="355.12483660131" type="line"/>
      <point x="62.54869281048" y="355.12483660131" type="line"/>
      <point x="62.54869281048" y="455.1843137254733" type="line"/>
      <point x="817.0163398692866" y="1456.0" type="line"/>
      <point x="933.3271241830417" y="1456.0" type="line"/>
      <point x="933.3271241830417" y="0.0" type="line"/>
    </contour>
  </outline>
</glyph>
<glyph name="five" format="2">
  <advance width="1213"/>
  <unicode hex="0035"/>
  <outline>
    <contour>
      <point x="120.88169934643332" y="363.8336601307133" type="qcurve" smooth="yes"/>
      <point x="120.88169934643332" y="375.98366013071336" type="line"/>
      <point x="240.28333333333333" y="375.98366013071336" type="line"/>
      <point x="240.28333333333333" y="365.98366013071336" type="line" smooth="yes"/>
      <point x="240.28333333333333" y="232.10882352940334"/>
      <point x="441.4052287581517" y="78.14248366011667"/>
      <point x="605.4679738561866" y="78.14248366011667" type="qcurve" smooth="yes"/>
      <point x="768.3222222221983" y="78.14248366011667"/>
      <point x="966.586274509825" y="281.39215686273667"/>
      <point x="966.586274509825" y="465.0" type="qcurve" smooth="yes"/>
      <point x="966.586274509825" y="638.34967320262"/>
      <point x="768.3222222221983" y="819.92418300655"/>
      <point x="604.97614379083" y="819.92418300655" type="qcurve" smooth="yes"/>
      <point x="514.0908496732167" y="820.6408496732166"/>
      <point x="332.613071895415" y="732.2156862745267"/>
      <point x="275.086274509825" y="668.8150326797667" type="qcurve"/>
      <point x="173.11601307190665" y="716.8330065359534" type="line"/>
      <point x="248.54934640524" y="1456.0" type="line"/>
      <point x="1014.6529411764917" y="1456.0" type="line"/>
      <point x="1014.6529411764917" y="1341.8156862745266" type="line"/>
      <point x="350.92581699345" y="1341.8156862745266" type="line"/>
      <point x="291.15915032678333" y="788.5807189542217" type="line"/>
      <point x="338.15196078428" y="840.6147058823867"/>
      <point x="529.0075163398833" y="928.35"/>
      <point x="628.8774509804217" y="928.35" type="qcurve" smooth="yes"/>
      <point x="825.9316993464333" y="928.35"/>
      <point x="1089.837908496725" y="684.25"/>
      <point x="1089.837908496725" y="465.0" type="qcurve" smooth="yes"/>
      <point x="1089.837908496725" y="235.0"/>
      <point x="819.4728758169583" y="-30.0"/>
      <point x="605.4679738561866" y="-30.0" type="qcurve" smooth="yes"/>
      <point x="393.17352941179" y="-30.0"/>
      <point x="120.88169934643332" y="183.30849673202334"/>
    </contour>
  </outline>
</glyph>
<glyph name="six" format="2">
  <advance width="1213"/>
  <unicode hex="0036"/>
  <outline>
    <contour>
      <point x="114.98039215684167" y="614.0" type="qcurve" smooth="yes"/>
      <point x="114.98039215684167" y="644.0" type="line" smooth="yes"/>
      <point x="114.98039215684167" y="1026.8666666666666"/>
      <point x="544.0820261438133" y="1486.0"/>
      <point x="899.0830065359534" y="1486.0" type="qcurve" smooth="yes"/>
      <point x="920.7833333333333" y="1486.0" type="line"/>
      <point x="920.7833333333333" y="1377.3656862745268" type="line"/>
      <point x="899.0830065359534" y="1377.3656862745268" type="line" smooth="yes"/>
      <point x="610.97483660131" y="1377.3656862745268"/>
      <point x="236.23202614381333" y="1010.4078431372633"/>
      <point x="236.23202614381333" y="654.0" type="qcurve" smooth="yes"/>
      <point x="236.23202614381333" y="604.0" type="line" smooth="yes"/>
      <point x="236.23202614381333" y="316.80882352940336"/>
      <point x="468.52973856208166" y="78.14248366011667"/>
      <point x="642.5924836601166" y="78.14248366011667" type="qcurve" smooth="yes"/>
      <point x="817.6388888888649" y="78.14248366011667"/>
      <point x="1001.710784313755" y="280.39215686273667"/>
      <point x="1001.710784313755" y="464.0" type="qcurve" smooth="yes"/>
      <point x="1001.710784313755" y="638.7830065359533"/>
      <point x="817.6388888888649" y="828.99934640524"/>
      <point x="646.17581699345" y="828.99934640524" type="qcurve" smooth="yes"/>
      <point x="480.23006535946166" y="828.99934640524"/>
      <point x="230.23202614381333" y="625.8830065359533"/>
      <point x="230.23202614381333" y="464.0" type="qcurve"/>
      <point x="179.76470588238666" y="464.0" type="line"/>
      <point x="179.76470588238666" y="673.02516339869"/>
      <point x="456.637908496725" y="937.1418300653567"/>
      <point x="670.4934640522566" y="937.1418300653567" type="qcurve" smooth="yes"/>
      <point x="881.6650326797667" y="937.1418300653567"/>
      <point x="1124.962418300655" y="675.8918300653567"/>
      <point x="1124.962418300655" y="464.0" type="qcurve" smooth="yes"/>
      <point x="1124.962418300655" y="244.0"/>
      <point x="859.239215686245" y="-30.0"/>
      <point x="643.0843137254733" y="-30.0" type="qcurve" smooth="yes"/>
      <point x="417.12091503267834" y="-30.0"/>
      <point x="114.98039215684167" y="289.76666666666665"/>
    </contour>
  </outline>
</glyph>
<glyph name="seven" format="2">
  <advance width="1213"/>
  <unicode hex="0037"/>
  <outline>
    <contour>
      <point x="346.00751633988335" y="0.0" type="line"/>
      <point x="963.9686274509467" y="1346.5578431372635" type="line"/>
      <point x="85.08235294119334" y="1346.5578431372635" type="line"/>
      <point x="85.08235294119334" y="1456.0" type="line"/>
      <point x="1094.887581699345" y="1456.0" type="line"/>
      <point x="1094.887581699345" y="1372.92385620917" type="line"/>
      <point x="476.95947712416336" y="0.0" type="line"/>
    </contour>
  </outline>
</glyph>
<glyph name="eight" format="2">
  <advance width="1213"/>
  <unicode hex="0038"/>
  <outline>
    <contour>
      <point x="119.86503267976667" y="380.98333333333335" type="qcurve" smooth="yes"/>
      <point x="119.86503267976667" y="519.5833333333334"/>
      <point x="288.9601307189233" y="704.8081699346434"/>
      <point x="416.17875816994166" y="745.9578431372634" type="qcurve"/>
      <point x="416.17875816994166" y="749.9578431372634" type="line"/>
      <point x="309.26895424839836" y="786.2408496732166"/>
      <point x="168.81601307190667" y="969.8666666666667"/>
      <point x="168.81601307190667" y="1092.0166666666667" type="qcurve" smooth="yes"/>
      <point x="168.81601307190667" y="1269.8666666666666"/>
      <point x="422.664052287555" y="1486.0"/>
      <point x="606.8094771241633" y="1486.0" type="qcurve" smooth="yes"/>
      <point x="790.9549019607716" y="1486.0"/>
      <point x="1045.2199346405384" y="1269.44967320262"/>
      <point x="1045.2199346405384" y="1092.0166666666667" type="qcurve" smooth="yes"/>
      <point x="1045.2199346405384" y="969.8666666666667"/>
      <point x="906.4836601307134" y="786.9575163398833"/>
      <point x="797.64869281048" y="749.9578431372634" type="qcurve"/>
      <point x="797.64869281048" y="745.9578431372634" type="line"/>
      <point x="928.45065359476" y="709.1081699346433"/>
      <point x="1094.662745098035" y="520.3"/>
      <point x="1094.662745098035" y="380.98333333333335" type="qcurve" smooth="yes"/>
      <point x="1094.662745098035" y="185.13333333333333"/>
      <point x="811.938562091485" y="-30.0"/>
      <point x="606.8094771241633" y="-30.0" type="qcurve" smooth="yes"/>
      <point x="401.68039215684166" y="-30.0"/>
      <point x="119.86503267976667" y="185.13333333333333"/>
    </contour>
    <contour>
      <point x="242.55" y="386.4584967320233" type="qcurve" smooth="yes"/>
      <point x="242.55" y="248.80882352940333"/>
      <point x="443.0558823529117" y="76.93398692809333"/>
      <point x="606.8094771241633" y="77.65065359476" type="qcurve" smooth="yes"/>
      <point x="771.0549019607716" y="77.65065359476"/>
      <point x="971.9777777778017" y="241.15032679738"/>
      <point x="971.9777777778017" y="386.4584967320233" type="qcurve" smooth="yes"/>
      <point x="971.9777777778017" y="521.2415032679767"/>
      <point x="771.0549019607716" y="691.5330065359533"/>
      <point x="606.8094771241633" y="691.5330065359533" type="qcurve" smooth="yes"/>
      <point x="443.0558823529117" y="690.8163398692867"/>
      <point x="242.55" y="521.7333333333333"/>
    </contour>
    <contour>
      <point x="288.9343137254733" y="1086.5415032679769" type="qcurve" smooth="yes"/>
      <point x="288.9343137254733" y="961.7584967320233"/>
      <point x="465.24803921572" y="799.1836601307133"/>
      <point x="606.8094771241633" y="798.4669934640467" type="qcurve" smooth="yes"/>
      <point x="748.862745098035" y="798.4669934640467"/>
      <point x="925.1016339869" y="961.7584967320233"/>
      <point x="925.1016339869" y="1086.5415032679769" type="qcurve" smooth="yes"/>
      <point x="925.1016339869" y="1214.1911764705967"/>
      <point x="748.862745098035" y="1378.3493464052399"/>
      <point x="606.8094771241633" y="1378.3493464052399" type="qcurve" smooth="yes"/>
      <point x="465.24803921572" y="1379.0660130719066"/>
      <point x="288.9343137254733" y="1214.1911764705967"/>
    </contour>
  </outline>
</glyph>
<glyph name="nine" format="2">
  <advance width="1213"/>
  <unicode hex="0039"/>
  <outline>
    <contour>
      <point x="88.58169934643333" y="994.8333333333334" type="qcurve" smooth="yes"/>
      <point x="88.58169934643333" y="1213.7"/>
      <point x="360.7549019607717" y="1486.0"/>
      <point x="576.9098039215434" y="1486.0" type="qcurve" smooth="yes"/>
      <point x="802.3813725490534" y="1486.0"/>
      <point x="1098.5637254901749" y="1166.2333333333333"/>
      <point x="1098.5637254901749" y="842.0" type="qcurve" smooth="yes"/>
      <point x="1098.5637254901749" y="812.0" type="line" smooth="yes"/>
      <point x="1098.5637254901749" y="429.1333333333333"/>
      <point x="663.7287581699417" y="-30.0"/>
      <point x="314.461111111135" y="-30.0" type="qcurve" smooth="yes"/>
      <point x="292.26895424839836" y="-30.0" type="line"/>
      <point x="292.26895424839836" y="78.63431372547333" type="line"/>
      <point x="314.461111111135" y="78.63431372547333" type="line" smooth="yes"/>
      <point x="602.5692810457783" y="78.63431372547333"/>
      <point x="976.8202614379184" y="445.59215686273666"/>
      <point x="976.8202614379184" y="802.0" type="qcurve" smooth="yes"/>
      <point x="976.8202614379184" y="852.0" type="line" smooth="yes"/>
      <point x="976.8202614379184" y="1139.1911764705967"/>
      <point x="751.464379084935" y="1377.8575163398834"/>
      <point x="576.9098039215434" y="1377.8575163398834" type="qcurve" smooth="yes"/>
      <point x="401.863398692795" y="1377.8575163398834"/>
      <point x="211.83333333333334" y="1177.0245098039302"/>
      <point x="211.83333333333334" y="994.8333333333334" type="qcurve" smooth="yes"/>
      <point x="211.83333333333334" y="821.4669934640467"/>
      <point x="395.413398692795" y="632.6673202614267"/>
      <point x="566.87647058821" y="632.6673202614267" type="qcurve" smooth="yes"/>
      <point x="733.314052287555" y="632.6673202614267"/>
      <point x="982.8202614379184" y="834.3669934640467"/>
      <point x="982.8202614379184" y="994.8333333333334" type="qcurve"/>
      <point x="1033.7794117647015" y="994.8333333333334" type="line"/>
      <point x="1033.7794117647015" y="786.9415032679767"/>
      <point x="756.4143790849349" y="524.52483660131"/>
      <point x="542.5588235294033" y="524.52483660131" type="qcurve" smooth="yes"/>
      <point x="332.65424836601164" y="524.52483660131"/>
      <point x="88.58169934643333" y="784.5666666666667"/>
    </contour>
  </outline>
</glyph>
<glyph name="colon" format="2">
  <advance width="528"/>
  <unicode hex="003A"/>
  <outline>
    <contour>
      <point x="176.0" y="76.97549019607" type="qcurve" smooth="yes"/>
      <point x="176.0" y="122.16732026142667"/>
      <point x="223.78366013071334" y="175.95098039214"/>
      <point x="264.47581699345" y="175.95098039214" type="qcurve" smooth="yes"/>
      <point x="305.1679738561867" y="175.95098039214"/>
      <point x="352.23496732023335" y="122.16732026142667"/>
      <point x="352.23496732023335" y="76.97549019607" type="qcurve" smooth="yes"/>
      <point x="352.23496732023335" y="31.783660130713333"/>
      <point x="305.1679738561867" y="-22.0"/>
      <point x="264.47581699345" y="-22.0" type="qcurve" smooth="yes"/>
      <point x="224.27549019607" y="-22.0"/>
      <point x="176.0" y="31.783660130713333"/>
    </contour>
    <contour>
      <point x="176.0" y="969.02450980393" type="qcurve" smooth="yes"/>
      <point x="176.0" y="1014.7081699346434"/>
      <point x="223.78366013071334" y="1068.0"/>
      <point x="264.47581699345" y="1068.0" type="qcurve" smooth="yes"/>
      <point x="305.1679738561867" y="1068.0"/>
      <point x="352.23496732023335" y="1014.7081699346434"/>
      <point x="352.23496732023335" y="969.02450980393" type="qcurve" smooth="yes"/>
      <point x="352.23496732023335" y="923.8326797385733"/>
      <point x="305.1679738561867" y="870.04901960786"/>
      <point x="264.47581699345" y="870.04901960786" type="qcurve" smooth="yes"/>
      <point x="224.27549019607" y="870.04901960786"/>
      <point x="176.0" y="923.8326797385733"/>
    </contour>
  </outline>
</glyph>
<glyph name="semicolon" format="2">
  <advance width="528"/>
  <unicode hex="003B"/>
  <outline>
    <contour>
      <point x="144.39533333333333" y="-177.07299346404668" type="line"/>
      <point x="179.59032679738002" y="-125.25183006535667"/>
      <point x="215.68032679738" y="-15.609503267976667"/>
      <point x="215.68032679738" y="57.33832679738" type="qcurve" smooth="yes"/>
      <point x="215.68032679738" y="179.57381699345" type="line"/>
      <point x="341.35530718952" y="179.57381699345" type="line"/>
      <point x="341.35530718952" y="57.33832679738" type="line" smooth="yes"/>
      <point x="341.35530718952" y="-32.202666666666666"/>
      <point x="277.74414379083" y="-174.79282352940334"/>
      <point x="222.68615032678335" y="-229.12665359476" type="qcurve"/>
    </contour>
    <contour>
      <point x="176.0" y="969.02450980393" type="qcurve" smooth="yes"/>
      <point x="176.0" y="1014.7081699346434"/>
      <point x="223.78366013071334" y="1068.0"/>
      <point x="264.47581699345" y="1068.0" type="qcurve" smooth="yes"/>
      <point x="305.1679738561867" y="1068.0"/>
      <point x="352.23496732023335" y="1014.7081699346434"/>
      <point x="352.23496732023335" y="969.02450980393" type="qcurve" smooth="yes"/>
      <point x="352.23496732023335" y="923.8326797385733"/>
      <point x="305.1679738561867" y="870.04901960786"/>
      <point x="264.47581699345" y="870.04901960786" type="qcurve" smooth="yes"/>
      <point x="224.27549019607" y="870.04901960786"/>
      <point x="176.0" y="923.8326797385733"/>
    </contour>
  </outline>
</glyph>
<glyph name="less" format="2">
  <advance width="1274"/>
  <unicode hex="003C"/>
  <outline>
    <contour>
      <point x="1079.554091503275" y="239.47650980393" type="line"/>
      <point x="186.02810457518166" y="621.4095032679767" type="line"/>
      <point x="186.02810457518166" y="727.4244836601166" type="line"/>
      <point x="1079.554091503275" y="1109.3574771241633" type="line"/>
      <point x="1079.554091503275" y="980.8439869280934" type="line"/>
      <point x="332.99571241826834" y="673.37450980393" type="line"/>
      <point x="1079.554091503275" y="365.9050326797667" type="line"/>
    </contour>
  </outline>
</glyph>
<glyph name="equal" format="2">
  <advance width="1278"/>
  <unicode hex="003D"/>
  <outline>
    <contour>
      <point x="204.34385620916999" y="421.5903137254733" type="line"/>
      <point x="204.34385620916999" y="531.45098039214" type="line"/>
      <point x="1073.9823137254734" y="531.45098039214" type="line"/>
      <point x="1073.9823137254734" y="421.5903137254733" type="line"/>
    </contour>
    <contour>
      <point x="204.34385620916999" y="821.135947712445" type="line"/>
      <point x="204.34385620916999" y="930.9966143791116" type="line"/>
      <point x="1073.9823137254734" y="930.9966143791116" type="line"/>
      <point x="1073.9823137254734" y="821.135947712445" type="line"/>
    </contour>
  </outline>
</glyph>
<glyph name="greater" format="2">
  <advance width="1274"/>
  <unicode hex="003E"/>
  <outline>
    <contour>
      <point x="194.44509803922833" y="239.47650980393" type="line"/>
      <point x="194.44509803922833" y="367.99" type="line"/>
      <point x="941.0034771241633" y="675.4594771241633" type="line"/>
      <point x="194.44509803922833" y="982.9289542483983" type="line"/>
      <point x="194.44509803922833" y="1109.3574771241633" type="line"/>
      <point x="1087.9710849673218" y="727.4244836601166" type="line"/>
      <point x="1087.9710849673218" y="621.4095032679767" type="line"/>
    </contour>
  </outline>
</glyph>
<glyph name="question" format="2">
  <advance width="840"/>
  <unicode hex="003F"/>
  <outline>
    <contour>
      <point x="284.84398692809333" y="77.03282352940333" type="qcurve" smooth="yes"/>
      <point x="284.84398692809333" y="117.75265359476"/>
      <point x="330.69714379083" y="176.06564705880666"/>
      <point x="373.6109673202333" y="176.06564705880666" type="qcurve" smooth="yes"/>
      <point x="416.03296078428" y="176.06564705880666"/>
      <point x="461.8861176470883" y="117.75265359476"/>
      <point x="461.8861176470883" y="77.03282352940333" type="qcurve" smooth="yes"/>
      <point x="461.8861176470883" y="36.31299346404667"/>
      <point x="416.03296078428" y="-22.0"/>
      <point x="373.6109673202333" y="-22.0" type="qcurve" smooth="yes"/>
      <point x="330.69714379083" y="-22.0"/>
      <point x="284.84398692809333" y="36.31299346404667"/>
    </contour>
    <contour>
      <point x="25.384156862736667" y="1093.5245098039302" type="line"/>
      <point x="25.384156862736667" y="1113.5245098039302" type="line" smooth="yes"/>
      <point x="25.384156862736667" y="1274.4600261438134"/>
      <point x="230.79788235291164" y="1476.0"/>
      <point x="408.63028758173164" y="1476.0" type="qcurve" smooth="yes"/>
      <point x="585.0248627451234" y="1476.0"/>
      <point x="784.7780915032749" y="1274.20669281048"/>
      <point x="784.7780915032749" y="1123.3830065359534" type="qcurve" smooth="yes"/>
      <point x="784.7780915032749" y="988.6224967320234"/>
      <point x="667.02479738559" y="804.50632679738"/>
      <point x="582.8161699346433" y="722.96232679738" type="qcurve" smooth="yes"/>
      <point x="487.8308954248183" y="630.19734640524"/>
      <point x="429.2722810457783" y="497.29932026142666"/>
      <point x="429.2722810457783" y="420.98366013071336" type="qcurve" smooth="yes"/>
      <point x="429.2722810457783" y="410.98366013071336" type="line"/>
      <point x="307.33581699345" y="410.98366013071336" type="line"/>
      <point x="307.33581699345" y="420.98366013071336" type="line" smooth="yes"/>
      <point x="307.33581699345" y="539.3948235294033"/>
      <point x="391.244254901965" y="694.22014379083"/>
      <point x="480.7012287581517" y="781.8201699346433" type="qcurve" smooth="yes"/>
      <point x="567.45118300655" y="869.246"/>
      <point x="663.333457516375" y="1014.2428366013099"/>
      <point x="663.333457516375" y="1123.3830065359534" type="qcurve" smooth="yes"/>
      <point x="663.333457516375" y="1229.14669281048"/>
      <point x="536.77403921572" y="1366.6140130719068"/>
      <point x="408.63028758173164" y="1366.6140130719068" type="qcurve" smooth="yes"/>
      <point x="280.60120261441" y="1366.6140130719068"/>
      <point x="146.85095424839832" y="1230.8620261438132"/>
      <point x="146.85095424839832" y="1113.5245098039302" type="qcurve" smooth="yes"/>
      <point x="146.85095424839832" y="1093.5245098039302" type="line"/>
    </contour>
  </outline>
</glyph>
<glyph name="at" format="2">
  <advance width="2157"/>
  <unicode hex="0040"/>
  <outline>
    <contour>
      <point x="666.374601307205" y="400.0" type="qcurve" smooth="yes"/>
      <point x="666.374601307205" y="680.0"/>
      <point x="953.92379738559" y="1052.0"/>
      <point x="1148.3882091502917" y="1052.0" type="qcurve" smooth="yes"/>
      <point x="1233.06267320262" y="1052.0"/>
      <point x="1377.7112810457784" y="981.5886666666667"/>
      <point x="1420.8627581699416" y="946.0" type="qcurve"/>
      <point x="1474.6230326797665" y="946.0" type="line"/>
      <point x="1343.3137516339882" y="350.0" type="line" smooth="yes"/>
      <point x="1312.3387581699417" y="206.61699346404666"/>
      <point x="1436.545725490175" y="95.56482352940333"/>
      <point x="1544.97069281048" y="95.56482352940333" type="qcurve" smooth="yes"/>
      <point x="1714.0955138578668" y="95.56482352940333"/>
      <point x="1926.8961568627367" y="402.4649934640467"/>
      <point x="1926.8961568627367" y="650.0" type="qcurve" smooth="yes"/>
      <point x="1926.8961568627367" y="939.4843398692866"/>
      <point x="1506.9143054734168" y="1379.6900130719066"/>
      <point x="1127.1748758169583" y="1379.6900130719066" type="qcurve" smooth="yes"/>
      <point x="747.5952588235084" y="1379.6900130719066"/>
      <point x="234.42247058821" y="840.4590065359533"/>
      <point x="234.42247058821" y="460.0" type="qcurve" smooth="yes"/>
      <point x="234.42247058821" y="76.12966013071333"/>
      <point x="681.9213706815766" y="-339.69001307190666"/>
      <point x="1017.914418300655" y="-339.69001307190666" type="qcurve" smooth="yes"/>
      <point x="1170.2888627451232" y="-339.69001307190666"/>
      <point x="1382.0886143791117" y="-285.69001307190666"/>
      <point x="1453.9725882352984" y="-249.69001307190666" type="qcurve"/>
      <point x="1453.9725882352984" y="-356.0" type="line"/>
      <point x="1377.4821176470882" y="-400.0"/>
      <point x="1170.2888627451232" y="-446.0"/>
      <point x="1017.914418300655" y="-446.0" type="qcurve" smooth="yes"/>
      <point x="645.3539215686317" y="-446.0"/>
      <point x="114.0" y="40.0"/>
      <point x="114.0" y="460.0" type="qcurve" smooth="yes"/>
      <point x="114.0" y="880.0"/>
      <point x="711.008562091485" y="1486.0"/>
      <point x="1127.1748758169583" y="1486.0" type="qcurve" smooth="yes"/>
      <point x="1541.21985620917" y="1486.0"/>
      <point x="2042.8711241830417" y="1000.0"/>
      <point x="2042.8711241830417" y="650.0" type="qcurve" smooth="yes"/>
      <point x="2042.8711241830417" y="360.0"/>
      <point x="1759.5155947712517" y="0.0"/>
      <point x="1554.9373594771466" y="0.0" type="qcurve" smooth="yes"/>
      <point x="1436.4697165329733" y="0.0"/>
      <point x="1267.5681897054799" y="101.21980104645667"/>
      <point x="1229.4161045751816" y="184.87333333333333" type="qcurve"/>
      <point x="1185.936751043485" y="100.05527353701333"/>
      <point x="1038.6282574426332" y="0.0"/>
      <point x="951.9161176470883" y="0.0" type="qcurve" smooth="yes"/>
      <point x="820.90901960786" y="0.0"/>
      <point x="666.374601307205" y="220.0"/>
    </contour>
    <contour>
      <point x="788.183908496725" y="400.0" type="qcurve" smooth="yes"/>
      <point x="788.183908496725" y="255.15049673202333"/>
      <point x="889.2443252744533" y="105.81815686273667"/>
      <point x="985.029764705895" y="105.81815686273667" type="qcurve" smooth="yes"/>
      <point x="1067.2581508486933" y="105.81815686273667"/>
      <point x="1195.4151424781833" y="233.51114058021332"/>
      <point x="1231.5797647058948" y="390.98366013071336" type="qcurve" smooth="yes"/>
      <point x="1347.3197320261283" y="902.1460130719067" type="line"/>
      <point x="1314.2561406616567" y="926.020699961325"/>
      <point x="1216.4973333333335" y="953.8926797385734"/>
      <point x="1169.0375359477434" y="953.8926797385734" type="qcurve" smooth="yes"/>
      <point x="1004.1161537396517" y="953.8926797385734"/>
      <point x="788.183908496725" y="638.0223398692866"/>
    </contour>
  </outline>
</glyph>
<glyph name="A" format="2">
  <advance width="1274"/>
  <unicode hex="0041"/>
  <outline>
    <contour>
      <point x="0.0" y="0.0" type="line"/>
      <point x="569.0781045751817" y="1466.0" type="line"/>
      <point x="705.4836601307134" y="1466.0" type="line"/>
      <point x="1274.2947712418484" y="0.0" type="line"/>
      <point x="1140.7339869280934" y="0.0" type="line"/>
      <point x="694.6846405228533" y="1188.7823529411933" type="line" smooth="yes"/>
      <point x="677.3166666666667" y="1230.32614379083"/>
      <point x="650.54803921572" y="1307.1794117647016"/>
      <point x="639.6555555555316" y="1346.264052287555" type="qcurve"/>
      <point x="628.6718954248183" y="1346.264052287555" type="line"/>
      <point x="617.7794117647016" y="1307.1794117647016"/>
      <point x="590.2941176470883" y="1230.32614379083"/>
      <point x="574.1346405228534" y="1188.7823529411933" type="qcurve" smooth="yes"/>
      <point x="125.51862745094667" y="0.0" type="line"/>
    </contour>
    <contour>
      <point x="218.72026143791834" y="407.41601307190666" type="line"/>
      <point x="261.363398692795" y="511.25849673202333" type="line"/>
      <point x="1009.9477124182683" y="511.25849673202333" type="line"/>
      <point x="1052.0826797385732" y="407.41601307190666" type="line"/>
    </contour>
  </outline>
</glyph>
<glyph name="B" format="2">
  <advance width="1217"/>
  <unicode hex="0042"/>
  <outline>
    <contour>
      <point x="170.0" y="0.0" type="line"/>
      <point x="170.0" y="1456.0" type="line"/>
      <point x="627.123437908515" y="1456.0" type="line" smooth="yes"/>
      <point x="837.3486666666668" y="1456.0"/>
      <point x="1074.5035490195783" y="1279.7916339869"/>
      <point x="1074.5035490195783" y="1081.696" type="qcurve" smooth="yes"/>
      <point x="1074.5035490195783" y="956.8226666666667"/>
      <point x="951.7624313725617" y="797.076"/>
      <point x="859.5486339869" y="767.0253333333334" type="qcurve"/>
      <point x="859.5486339869" y="763.0253333333334" type="line"/>
      <point x="973.811254901965" y="732.9746666666666"/>
      <point x="1116.6011960784567" y="552.2026666666667"/>
      <point x="1116.6011960784567" y="406.3546666666667" type="qcurve" smooth="yes"/>
      <point x="1116.6011960784567" y="208.25903267976668"/>
      <point x="868.2178235294033" y="0.0"/>
      <point x="660.008091503275" y="0.0" type="qcurve" smooth="yes"/>
    </contour>
    <contour>
      <point x="291.8536339869" y="107.33532026142666" type="line"/>
      <point x="660.008091503275" y="107.33532026142666" type="line" smooth="yes"/>
      <point x="832.3641568627366" y="107.33532026142666"/>
      <point x="993.2778954248183" y="264.8760261438133"/>
      <point x="993.2778954248183" y="406.8464967320233" type="qcurve" smooth="yes"/>
      <point x="993.2778954248183" y="543.8986666666667"/>
      <point x="832.3407167154216" y="704.8450065359533"/>
      <point x="660.008091503275" y="704.8450065359533" type="qcurve" smooth="yes"/>
      <point x="291.8536339869" y="704.8450065359533" type="line"/>
    </contour>
    <contour>
      <point x="291.8536339869" y="811.1549934640467" type="line"/>
      <point x="627.123437908515" y="811.1549934640467" type="line" smooth="yes"/>
      <point x="799.5941699346433" y="811.1549934640467"/>
      <point x="951.1802483660117" y="954.152"/>
      <point x="951.1802483660117" y="1081.2041699346435" type="qcurve" smooth="yes"/>
      <point x="951.1802483660117" y="1214.63214379083"/>
      <point x="799.597743116895" y="1348.6646797385733"/>
      <point x="627.123437908515" y="1348.6646797385733" type="qcurve" smooth="yes"/>
      <point x="291.8536339869" y="1348.6646797385733" type="line"/>
    </contour>
  </outline>
</glyph>
<glyph name="C" format="2">
  <advance width="1286"/>
  <unicode hex="0043"/>
  <outline>
    <contour>
      <point x="115.0" y="692.8174509804217" type="qcurve" smooth="yes"/>
      <point x="115.0" y="763.1825490195783" type="line" smooth="yes"/>
      <point x="115.0" y="1111.60814379083"/>
      <point x="451.57284313726336" y="1486.0"/>
      <point x="705.8957189542217" y="1486.0" type="qcurve" smooth="yes"/>
      <point x="957.1136013072049" y="1486.0"/>
      <point x="1216.67120261441" y="1206.7917908497084"/>
      <point x="1241.82479738559" y="999.0163398692866" type="qcurve" smooth="yes"/>
      <point x="1243.0332941176134" y="989.0163398692866" type="line"/>
      <point x="1118.7706601307134" y="989.0163398692866" type="line"/>
      <point x="1117.56216339869" y="999.0163398692866" type="line" smooth="yes"/>
      <point x="1100.44703921572" y="1141.91669281048"/>
      <point x="909.8862258148417" y="1375.0968496732166"/>
      <point x="705.8957189542217" y="1375.0968496732166" type="qcurve" smooth="yes"/>
      <point x="501.34067251464" y="1375.0968496732166"/>
      <point x="240.20196732023334" y="1052.3535555555316"/>
      <point x="240.20196732023334" y="763.1825490195783" type="qcurve" smooth="yes"/>
      <point x="240.20196732023334" y="692.8174509804217" type="line" smooth="yes"/>
      <point x="240.20196732023334" y="394.139541720325"/>
      <point x="501.5491692466633" y="80.90315032678333"/>
      <point x="705.8957189542217" y="80.90315032678333" type="qcurve" smooth="yes"/>
      <point x="912.1796898670983" y="80.90315032678333"/>
      <point x="1103.57449019607" y="313.45781699345"/>
      <point x="1117.7706601307134" y="456.98366013071336" type="qcurve" smooth="yes"/>
      <point x="1118.7706601307134" y="466.98366013071336" type="line"/>
      <point x="1243.0332941176134" y="466.98366013071336" type="line"/>
      <point x="1242.0332941176134" y="456.98366013071336" type="line" smooth="yes"/>
      <point x="1221.0496339869" y="248.99971241826833"/>
      <point x="957.1136013072049" y="-30.0"/>
      <point x="705.8957189542217" y="-30.0" type="qcurve" smooth="yes"/>
      <point x="451.57284313726336" y="-30.0"/>
      <point x="115.0" y="339.4555181023667"/>
    </contour>
  </outline>
</glyph>
<glyph name="D" format="2">
  <advance width="1330"/>
  <unicode hex="0044"/>
  <outline>
    <contour>
      <point x="170.0" y="0.0" type="line"/>
      <point x="170.0" y="1456.0" type="line"/>
      <point x="572.6751241830417" y="1456.0" type="line" smooth="yes"/>
      <point x="853.3664967320234" y="1456.0"/>
      <point x="1215.4059934640468" y="1089.5574771241634"/>
      <point x="1215.4059934640468" y="763.1825490195783" type="qcurve" smooth="yes"/>
      <point x="1215.4059934640468" y="692.8174509804217" type="line" smooth="yes"/>
      <point x="1215.4059934640468" y="366.491525724785"/>
      <point x="853.3664967320234" y="0.0"/>
      <point x="572.6751241830417" y="0.0" type="qcurve" smooth="yes"/>
    </contour>
    <contour>
      <point x="293.73230065356665" y="107.82715032678334" type="line"/>
      <point x="572.6751241830417" y="107.82715032678334" type="line" smooth="yes"/>
      <point x="809.4720375304468" y="107.82715032678334"/>
      <point x="1090.2040261438133" y="411.04468300655003"/>
      <point x="1090.2040261438133" y="692.8174509804217" type="qcurve" smooth="yes"/>
      <point x="1090.2040261438133" y="763.1825490195783" type="line" smooth="yes"/>
      <point x="1090.2040261438133" y="1044.9911503267833"/>
      <point x="809.4720375304468" y="1348.1728496732167"/>
      <point x="572.6751241830417" y="1348.1728496732167" type="qcurve" smooth="yes"/>
      <point x="293.73230065356665" y="1348.1728496732167" type="line"/>
    </contour>
  </outline>
</glyph>
<glyph name="E" format="2">
  <advance width="1121"/>
  <unicode hex="0045"/>
  <outline>
    <contour>
      <point x="170.0" y="0.0" type="line"/>
      <point x="170.0" y="1456.0" type="line"/>
      <point x="1042.673908496725" y="1456.0" type="line"/>
      <point x="1042.673908496725" y="1348.1728496732167" type="line"/>
      <point x="293.73230065356665" y="1348.1728496732167" type="line"/>
      <point x="293.73230065356665" y="804.6676601307133" type="line"/>
      <point x="942.1346143791117" y="804.6676601307133" type="line"/>
      <point x="942.1346143791117" y="697.3323398692867" type="line"/>
      <point x="293.73230065356665" y="697.3323398692867" type="line"/>
      <point x="293.73230065356665" y="107.82715032678334" type="line"/>
      <point x="1053.395071895415" y="107.82715032678334" type="line"/>
      <point x="1053.395071895415" y="0.0" type="line"/>
    </contour>
  </outline>
</glyph>
<glyph name="F" format="2">
  <advance width="1088"/>
  <unicode hex="0046"/>
  <outline>
    <contour>
      <point x="170.0" y="0.0" type="line"/>
      <point x="170.0" y="1456.0" type="line"/>
      <point x="1029.3462483660117" y="1456.0" type="line"/>
      <point x="1029.3462483660117" y="1348.1728496732167" type="line"/>
      <point x="293.73230065356665" y="1348.1728496732167" type="line"/>
      <point x="293.73230065356665" y="774.684" type="line"/>
      <point x="926.8809542483983" y="774.684" type="line"/>
      <point x="926.8809542483983" y="666.8568496732166" type="line"/>
      <point x="293.73230065356665" y="666.8568496732166" type="line"/>
      <point x="293.73230065356665" y="0.0" type="line"/>
    </contour>
  </outline>
</glyph>
<glyph name="G" format="2">
  <advance width="1316"/>
  <unicode hex="0047"/>
  <outline>
    <contour>
      <point x="115.0" y="692.8174509804217" type="qcurve" smooth="yes"/>
      <point x="115.0" y="763.1825490195783" type="line" smooth="yes"/>
      <point x="115.0" y="1111.60814379083"/>
      <point x="451.57284313726336" y="1486.0"/>
      <point x="703.1852614379184" y="1486.0" type="qcurve" smooth="yes"/>
      <point x="957.1136013072049" y="1486.0"/>
      <point x="1224.80130718952" y="1228.6163398692868"/>
      <point x="1245.14796078428" y="1038.8078431372635" type="qcurve" smooth="yes"/>
      <point x="1246.6397908497083" y="1029.0163398692866" type="line"/>
      <point x="1122.3771568627367" y="1029.0163398692866" type="line"/>
      <point x="1120.6768300653566" y="1039.0163398692866" type="line" smooth="yes"/>
      <point x="1105.4483660131" y="1167.6830065359534"/>
      <point x="910.487788003585" y="1375.0968496732166"/>
      <point x="703.602254901965" y="1375.0968496732166" type="qcurve" smooth="yes"/>
      <point x="501.5491692466633" y="1375.0968496732166"/>
      <point x="240.20196732023334" y="1056.9404836601166"/>
      <point x="240.20196732023334" y="763.1825490195783" type="qcurve" smooth="yes"/>
      <point x="240.20196732023334" y="692.8174509804217" type="line" smooth="yes"/>
      <point x="240.20196732023334" y="399.0578423739633"/>
      <point x="501.33162861345" y="80.90315032678333"/>
      <point x="738.7803725490534" y="80.90315032678333" type="qcurve" smooth="yes"/>
      <point x="863.4421042231317" y="80.90315032678333"/>
      <point x="1046.51372604473" y="137.12920873217666"/>
      <point x="1127.8468235294033" y="198.34581699345" type="qcurve"/>
      <point x="1127.8468235294033" y="593.3830065359533" type="line"/>
      <point x="716.7315490195783" y="593.3830065359533" type="line"/>
      <point x="716.7315490195783" y="701.2101568627367" type="line"/>
      <point x="1246.6397908497083" y="701.2101568627367" type="line"/>
      <point x="1246.6397908497083" y="151.23699346404666" type="line"/>
      <point x="1174.9541568627367" y="81.23699346404668"/>
      <point x="920.8122560160317" y="-30.0"/>
      <point x="738.7803725490534" y="-30.0" type="qcurve" smooth="yes"/>
      <point x="453.65567320262" y="-30.0"/>
      <point x="115.0" y="344.3738187559333"/>
    </contour>
  </outline>
</glyph>
<glyph name="H" format="2">
  <advance width="1422"/>
  <unicode hex="0048"/>
  <outline>
    <contour>
      <point x="170.0" y="0.0" type="line"/>
      <point x="170.0" y="1456.0" type="line"/>
      <point x="293.9166666666667" y="1456.0" type="line"/>
      <point x="293.9166666666667" y="804.9166666666666" type="line"/>
      <point x="1128.9666666666667" y="804.9166666666666" type="line"/>
      <point x="1128.9666666666667" y="1456.0" type="line"/>
      <point x="1252.1666666666667" y="1456.0" type="line"/>
      <point x="1252.1666666666667" y="0.0" type="line"/>
      <point x="1128.9666666666667" y="0.0" type="line"/>
      <point x="1128.9666666666667" y="697.0833333333334" type="line"/>
      <point x="293.9166666666667" y="697.0833333333334" type="line"/>
      <point x="293.9166666666667" y="0.0" type="line"/>
    </contour>
  </outline>
</glyph>
<glyph name="J" format="2">
  <advance width="1046"/>
  <unicode hex="004A"/>
  <outline>
    <contour>
      <point x="25.0" y="420.488235294105" type="qcurve" smooth="yes"/>
      <point x="25.0" y="430.488235294105" type="line"/>
      <point x="149.04313725487668" y="430.488235294105" type="line"/>
      <point x="149.04313725487668" y="420.488235294105" type="line" smooth="yes"/>
      <point x="149.04313725487668" y="254.486274509825"/>
      <point x="314.4565359477433" y="80.55915032678334"/>
      <point x="458.4692810457783" y="80.55915032678334" type="qcurve" smooth="yes"/>
      <point x="602.4820261438133" y="80.55915032678334"/>
      <point x="767.8954248366084" y="270.20294117649166"/>
      <point x="767.8954248366084" y="445.488235294105" type="qcurve" smooth="yes"/>
      <point x="767.8954248366084" y="1456.0" type="line"/>
      <point x="891.2218954248183" y="1456.0" type="line"/>
      <point x="891.2218954248183" y="445.488235294105" type="line" smooth="yes"/>
      <point x="891.2218954248183" y="218.56928104577833"/>
      <point x="651.2156862745267" y="-30.0"/>
      <point x="458.4692810457783" y="-30.0" type="qcurve" smooth="yes"/>
      <point x="265.7228758169583" y="-30.0"/>
      <point x="25.0" y="203.56928104577833"/>
    </contour>
  </outline>
</glyph>
<glyph name="K" format="2">
  <advance width="1245"/>
  <unicode hex="004B"/>
  <outline>
    <contour>
      <point x="170.0" y="0.0" type="line"/>
      <point x="170.0" y="1456.0" type="line"/>
      <point x="293.10163398689997" y="1456.0" type="line"/>
      <point x="293.10163398689997" y="674.361764705895" type="line"/>
      <point x="1069.7919215686318" y="1456.0" type="line"/>
      <point x="1230.8925098039301" y="1456.0" type="line"/>
      <point x="293.73230065356665" y="524.3070849673217" type="line"/>
      <point x="293.73230065356665" y="0.0" type="line"/>
    </contour>
    <contour>
      <point x="1102.6809019607715" y="0.0" type="line"/>
      <point x="471.44913725487663" y="775.4449934640467" type="line"/>
      <point x="555.8284313725617" y="860.072" type="line"/>
      <point x="1264.25549019607" y="0.0" type="line"/>
    </contour>
  </outline>
</glyph>
<glyph name="L" format="2">
  <advance width="1031"/>
  <unicode hex="004C"/>
  <outline>
    <contour>
      <point x="170.0" y="0.0" type="line"/>
      <point x="170.0" y="1456.0" type="line"/>
      <point x="293.73230065356665" y="1456.0" type="line"/>
      <point x="293.73230065356665" y="107.82715032678334" type="line"/>
      <point x="1013.0925882352983" y="107.82715032678334" type="line"/>
      <point x="1013.0925882352983" y="0.0" type="line"/>
    </contour>
  </outline>
</glyph>
<glyph name="M" format="2">
  <advance width="1791"/>
  <unicode hex="004D"/>
  <outline>
    <contour>
      <point x="170.0" y="0.0" type="line"/>
      <point x="170.0" y="1456.0" type="line"/>
      <point x="326.70228758173164" y="1456.0" type="line"/>
      <point x="842.6225490195783" y="267.538235294105" type="line" smooth="yes"/>
      <point x="855.6062091502916" y="237.538235294105"/>
      <point x="883.4075163398834" y="170.47254901957834"/>
      <point x="891.89934640524" y="145.39084967321668" type="qcurve"/>
      <point x="899.89934640524" y="145.39084967321668" type="line"/>
      <point x="909.1078431372633" y="170.47254901957834"/>
      <point x="935.1666666666666" y="237.538235294105"/>
      <point x="948.15032679738" y="267.538235294105" type="qcurve" smooth="yes"/>
      <point x="1465.8130718954149" y="1456.0" type="line"/>
      <point x="1620.3653594771467" y="1456.0" type="line"/>
      <point x="1620.3653594771467" y="0.0" type="line"/>
      <point x="1498.963725490175" y="0.0" type="line"/>
      <point x="1498.963725490175" y="1151.513725490175" type="line" smooth="yes"/>
      <point x="1498.963725490175" y="1181.513725490175"/>
      <point x="1503.3807189542217" y="1256.513725490175"/>
      <point x="1506.1722222221983" y="1286.513725490175" type="qcurve"/>
      <point x="1498.1722222221983" y="1286.513725490175" type="line"/>
      <point x="1490.963725490175" y="1256.513725490175"/>
      <point x="1464.5467320261282" y="1181.513725490175"/>
      <point x="1451.5630718954149" y="1151.513725490175" type="qcurve" smooth="yes"/>
      <point x="949.75032679738" y="0.0" type="line"/>
      <point x="836.3058823529117" y="0.0" type="line"/>
      <point x="334.26830065356666" y="1150.7970588235082" type="line" smooth="yes"/>
      <point x="321.28464052285335" y="1180.7970588235082"/>
      <point x="293.65915032678333" y="1255.7970588235082"/>
      <point x="287.16732026142665" y="1285.7970588235082" type="qcurve"/>
      <point x="279.16732026142665" y="1285.7970588235082" type="line"/>
      <point x="281.95882352940333" y="1255.7970588235082"/>
      <point x="286.86764705880665" y="1180.7970588235082"/>
      <point x="286.86764705880665" y="1150.7970588235082" type="qcurve" smooth="yes"/>
      <point x="286.86764705880665" y="0.0" type="line"/>
    </contour>
  </outline>
</glyph>
<glyph name="N" format="2">
  <advance width="1426"/>
  <unicode hex="004E"/>
  <outline>
    <contour>
      <point x="170.0" y="0.0" type="line"/>
      <point x="170.0" y="1456.0" type="line"/>
      <point x="308.5352941176133" y="1456.0" type="line"/>
      <point x="1062.0650326797668" y="290.15130718952" type="line" smooth="yes"/>
      <point x="1081.6153594771467" y="259.43464052285333"/>
      <point x="1117.37418300655" y="198.71797385618666"/>
      <point x="1131.0745098039301" y="174.20980392154334" type="qcurve"/>
      <point x="1139.0745098039301" y="174.20980392154334" type="line"/>
      <point x="1137.0908496732168" y="204.20980392154334"/>
      <point x="1135.1071895425034" y="264.3846405228534"/>
      <point x="1135.1071895425034" y="294.3846405228534" type="qcurve" smooth="yes"/>
      <point x="1135.1071895425034" y="1456.0" type="line"/>
      <point x="1255.71916339869" y="1456.0" type="line"/>
      <point x="1255.71916339869" y="0.0" type="line"/>
      <point x="1116.5728758169585" y="0.0" type="line"/>
      <point x="361.87679738559" y="1168.4483660131" type="line" smooth="yes"/>
      <point x="342.32647058821" y="1199.1650326797667"/>
      <point x="300.35882352940337" y="1265.6150326797667"/>
      <point x="291.37549019607" y="1287.9732026144102" type="qcurve"/>
      <point x="283.16699346404664" y="1287.9732026144102" type="line"/>
      <point x="286.58398692809334" y="1256.5398692810768"/>
      <point x="290.00098039214004" y="1178.4483660131"/>
      <point x="290.00098039214004" y="1148.4483660131" type="qcurve" smooth="yes"/>
      <point x="290.00098039214004" y="0.0" type="line"/>
    </contour>
  </outline>
</glyph>
<glyph name="O" format="2">
  <advance width="1433"/>
  <unicode hex="004F"/>
  <outline>
    <contour>
      <point x="115.0" y="692.8174509804217" type="qcurve" smooth="yes"/>
      <point x="115.0" y="763.1825490195783" type="line" smooth="yes"/>
      <point x="115.0" y="1111.60814379083"/>
      <point x="451.57284313726336" y="1486.0"/>
      <point x="716.7315490195783" y="1486.0" type="qcurve" smooth="yes"/>
      <point x="981.2837581699416" y="1486.0"/>
      <point x="1318.4630980392283" y="1111.60814379083"/>
      <point x="1318.4630980392283" y="763.1825490195783" type="qcurve" smooth="yes"/>
      <point x="1318.4630980392283" y="692.8174509804217" type="line" smooth="yes"/>
      <point x="1318.4630980392283" y="344.3738187559333"/>
      <point x="981.2837581699416" y="-30.0"/>
      <point x="716.7315490195783" y="-30.0" type="qcurve" smooth="yes"/>
      <point x="452.06467320262" y="-30.0"/>
      <point x="115.0" y="344.3738187559333"/>
    </contour>
    <contour>
      <point x="240.20196732023334" y="692.8174509804217" type="line" smooth="yes"/>
      <point x="240.20196732023334" y="396.1338423739633"/>
      <point x="502.53187696012833" y="80.90315032678333"/>
      <point x="716.7315490195783" y="80.90315032678333" type="qcurve" smooth="yes"/>
      <point x="930.8058725366167" y="80.90315032678333"/>
      <point x="1193.2611307189234" y="396.1338423739633"/>
      <point x="1193.2611307189234" y="692.8174509804217" type="qcurve" smooth="yes"/>
      <point x="1193.2611307189234" y="763.1825490195783" type="line" smooth="yes"/>
      <point x="1193.2611307189234" y="1059.8644836601165"/>
      <point x="930.8058725366167" y="1375.0968496732166"/>
      <point x="716.7315490195783" y="1375.0968496732166" type="qcurve" smooth="yes"/>
      <point x="502.53187696012833" y="1375.0968496732166"/>
      <point x="240.20196732023334" y="1059.8644836601165"/>
      <point x="240.20196732023334" y="763.1825490195783" type="qcurve" smooth="yes"/>
    </contour>
  </outline>
</glyph>
<glyph name="P" format="2">
  <advance width="1152"/>
  <unicode hex="0050"/>
  <outline>
    <contour>
      <point x="170.0" y="0.0" type="line"/>
      <point x="170.0" y="1456.0" type="line"/>
      <point x="627.1167712418483" y="1456.0" type="line" smooth="yes"/>
      <point x="862.0809934640466" y="1456.0"/>
      <point x="1102.0915359477433" y="1221.8631372548766"/>
      <point x="1102.0915359477433" y="1024.7331764705966" type="qcurve" smooth="yes"/>
      <point x="1102.0915359477433" y="828.5868758169582"/>
      <point x="862.0809934640466" y="592.39934640524"/>
      <point x="627.1167712418483" y="592.39934640524" type="qcurve" smooth="yes"/>
      <point x="293.73230065356665" y="592.39934640524" type="line"/>
      <point x="293.73230065356665" y="0.0" type="line"/>
    </contour>
    <contour>
      <point x="293.73230065356665" y="699.7346666666666" type="line"/>
      <point x="627.1167712418483" y="699.7346666666666" type="line" smooth="yes"/>
      <point x="821.7095693802917" y="699.7346666666666"/>
      <point x="977.8289019607716" y="882.2798692810767"/>
      <point x="977.8289019607716" y="1024.7331764705966" type="qcurve" smooth="yes"/>
      <point x="977.8289019607716" y="1167.6783137254733"/>
      <point x="821.7095693802917" y="1348.1728496732167"/>
      <point x="627.1167712418483" y="1348.1728496732167" type="qcurve" smooth="yes"/>
      <point x="293.73230065356665" y="1348.1728496732167" type="line"/>
    </contour>
  </outline>
</glyph>
<glyph name="Q" format="2">
  <advance width="1433"/>
  <unicode hex="0051"/>
  <outline>
    <contour>
      <point x="115.0" y="692.8174509804217" type="qcurve" smooth="yes"/>
      <point x="115.0" y="763.1825490195783" type="line" smooth="yes"/>
      <point x="115.0" y="1111.60814379083"/>
      <point x="451.57284313726336" y="1486.0"/>
      <point x="716.7315490195783" y="1486.0" type="qcurve" smooth="yes"/>
      <point x="981.2837581699416" y="1486.0"/>
      <point x="1318.4630980392283" y="1111.60814379083"/>
      <point x="1318.4630980392283" y="763.1825490195783" type="qcurve" smooth="yes"/>
      <point x="1318.4630980392283" y="692.8174509804217" type="line" smooth="yes"/>
      <point x="1318.4630980392283" y="344.39185620917"/>
      <point x="981.2837581699416" y="-30.0"/>
      <point x="716.7315490195783" y="-30.0" type="qcurve" smooth="yes"/>
      <point x="452.06467320262" y="-30.0"/>
      <point x="115.0" y="344.39185620917"/>
    </contour>
    <contour>
      <point x="240.20196732023334" y="692.8174509804217" type="line" smooth="yes"/>
      <point x="240.20196732023334" y="396.13551633988334"/>
      <point x="502.55149673202334" y="80.90315032678333"/>
      <point x="716.7315490195783" y="80.90315032678333" type="qcurve" smooth="yes"/>
      <point x="930.7969346405383" y="80.90315032678333"/>
      <point x="1193.2611307189234" y="396.13551633988334"/>
      <point x="1193.2611307189234" y="692.8174509804217" type="qcurve" smooth="yes"/>
      <point x="1193.2611307189234" y="763.1825490195783" type="line" smooth="yes"/>
      <point x="1193.2611307189234" y="1059.8644836601165"/>
      <point x="930.7969346405383" y="1375.0968496732166"/>
      <point x="716.7315490195783" y="1375.0968496732166" type="qcurve" smooth="yes"/>
      <point x="502.55149673202334" y="1375.0968496732166"/>
      <point x="240.20196732023334" y="1059.8644836601165"/>
      <point x="240.20196732023334" y="763.1825490195783" type="qcurve" smooth="yes"/>
    </contour>
    <contour>
      <point x="1253.8315032679768" y="-231.49032679738002" type="line"/>
      <point x="770.4679869280933" y="161.57999999999998" type="line"/>
      <point x="856.038111111135" y="245.66648366011665" type="line"/>
      <point x="1342.4711241830416" y="-144.34867973857334" type="line"/>
    </contour>
  </outline>
</glyph>
<glyph name="R" format="2">
  <advance width="1198"/>
  <unicode hex="0052"/>
  <outline>
    <contour>
      <point x="170.0" y="0.0" type="line"/>
      <point x="170.0" y="1456.0" type="line"/>
      <point x="618.3956078431584" y="1456.0" type="line" smooth="yes"/>
      <point x="846.6386666666667" y="1456.0"/>
      <point x="1082.6492091502917" y="1231.29530718952"/>
      <point x="1082.6492091502917" y="1038.7078431372634" type="qcurve" smooth="yes"/>
      <point x="1082.6492091502917" y="846.120379084935"/>
      <point x="846.6386666666667" y="618.8315163398834"/>
      <point x="618.3956078431584" y="618.8315163398834" type="qcurve" smooth="yes"/>
      <point x="293.73230065356665" y="618.8315163398834" type="line"/>
      <point x="293.73230065356665" y="0.0" type="line"/>
    </contour>
    <contour>
      <point x="293.73230065356665" y="725.6333333333333" type="line"/>
      <point x="618.3956078431584" y="725.6333333333333" type="line" smooth="yes"/>
      <point x="808.8984282635917" y="725.6333333333333"/>
      <point x="958.3865751633916" y="901.2247058823867"/>
      <point x="958.3865751633916" y="1038.7078431372634" type="qcurve" smooth="yes"/>
      <point x="958.3865751633916" y="1176.1909803921399"/>
      <point x="808.8984282635917" y="1349.19818300655"/>
      <point x="618.3956078431584" y="1349.19818300655" type="qcurve" smooth="yes"/>
      <point x="293.73230065356665" y="1349.19818300655" type="line"/>
    </contour>
    <contour>
      <point x="1011.3872549019651" y="0.0" type="line"/>
      <point x="623.713398692795" y="672.0" type="line"/>
      <point x="762.77167320262" y="672.0" type="line"/>
      <point x="1157.8238562091701" y="0.0" type="line"/>
    </contour>
  </outline>
</glyph>
<glyph name="S" format="2">
  <advance width="1178"/>
  <unicode hex="0053"/>
  <outline>
    <contour>
      <point x="90.0" y="394.11032679737997" type="qcurve" smooth="yes"/>
      <point x="90.0" y="406.11032679737997" type="line"/>
      <point x="213.73230065356665" y="406.11032679737997" type="line"/>
      <point x="213.73230065356665" y="394.11032679737997" type="line" smooth="yes"/>
      <point x="213.73230065356665" y="243.11332026142665"/>
      <point x="416.51615880961333" y="80.90315032678333"/>
      <point x="599.4437516339883" y="80.90315032678333" type="qcurve" smooth="yes"/>
      <point x="782.4408250523301" y="80.90315032678333"/>
      <point x="976.3193725490534" y="246.13415686273666"/>
      <point x="976.3193725490534" y="370.74516339869" type="qcurve" smooth="yes"/>
      <point x="976.3193725490534" y="481.462"/>
      <point x="818.099601307205" y="618.8025228758366"/>
      <point x="567.9354509804216" y="687.4246797385733" type="qcurve" smooth="yes"/>
      <point x="319.15594117649164" y="755.9131764705967"/>
      <point x="121.82398692809333" y="938.9880130719067"/>
      <point x="121.82398692809333" y="1098.7630065359533" type="qcurve" smooth="yes"/>
      <point x="121.82398692809333" y="1264.3815032679768"/>
      <point x="369.78286274512334" y="1486.0"/>
      <point x="588.6079215686317" y="1486.0" type="qcurve" smooth="yes"/>
      <point x="808.07798039214" y="1486.0"/>
      <point x="1067.2816862745267" y="1240.2723660131"/>
      <point x="1067.2816862745267" y="1067.8896732026199" type="qcurve" smooth="yes"/>
      <point x="1067.2816862745267" y="1055.8896732026199" type="line"/>
      <point x="944.041215686245" y="1055.8896732026199" type="line"/>
      <point x="944.041215686245" y="1067.8896732026199" type="line" smooth="yes"/>
      <point x="944.041215686245" y="1200.9418431372635"/>
      <point x="765.0644680277733" y="1375.0968496732166"/>
      <point x="588.6079215686317" y="1375.0968496732166" type="qcurve" smooth="yes"/>
      <point x="412.24451754250333" y="1375.0968496732166"/>
      <point x="244.61695424839832" y="1222.8911764705967"/>
      <point x="244.61695424839832" y="1097.7205228758367" type="qcurve" smooth="yes"/>
      <point x="244.61695424839832" y="996.5886666666667"/>
      <point x="410.83469934643335" y="864.88181699345"/>
      <point x="657.014379084935" y="797.7019869280933" type="qcurve" smooth="yes"/>
      <point x="902.7022287581516" y="730.03032679738"/>
      <point x="1098.62050980393" y="539.5499869280934"/>
      <point x="1098.62050980393" y="371.7288235294033" type="qcurve" smooth="yes"/>
      <point x="1098.62050980393" y="195.6229934640467"/>
      <point x="829.6349738561867" y="-30.0"/>
      <point x="599.4437516339883" y="-30.0" type="qcurve" smooth="yes"/>
      <point x="368.72219607845665" y="-30.0"/>
      <point x="90.0" y="198.05516339868998"/>
    </contour>
  </outline>
</glyph>
<glyph name="T" format="2">
  <advance width="1159"/>
  <unicode hex="0054"/>
  <outline>
    <contour>
      <point x="24.0" y="1348.1728496732167" type="line"/>
      <point x="24.0" y="1456.0" type="line"/>
      <point x="1134.8421568627366" y="1456.0" type="line"/>
      <point x="1134.8421568627366" y="1348.1728496732167" type="line"/>
      <point x="641.2872287581516" y="1348.1728496732167" type="line"/>
      <point x="641.2872287581516" y="0.0" type="line"/>
      <point x="518.0467581699417" y="0.0" type="line"/>
      <point x="518.0467581699417" y="1348.1728496732167" type="line"/>
    </contour>
  </outline>
</glyph>
<glyph name="U" format="2">
  <advance width="1322"/>
  <unicode hex="0055"/>
  <outline>
    <contour>
      <point x="155.0" y="490.488235294105" type="qcurve" smooth="yes"/>
      <point x="155.0" y="1456.0" type="line"/>
      <point x="278.24047058821" y="1456.0" type="line"/>
      <point x="278.24047058821" y="490.488235294105" type="line" smooth="yes"/>
      <point x="278.24047058821" y="282.9283174602833"/>
      <point x="492.92927449423" y="80.90315032678333"/>
      <point x="661.3290849673217" y="80.90315032678333" type="qcurve" smooth="yes"/>
      <point x="828.6174326048533" y="80.90315032678333"/>
      <point x="1043.43403921572" y="282.9283174602833"/>
      <point x="1043.43403921572" y="490.488235294105" type="qcurve" smooth="yes"/>
      <point x="1043.43403921572" y="1456.0" type="line"/>
      <point x="1167.1663398692867" y="1456.0" type="line"/>
      <point x="1167.1663398692867" y="490.488235294105" type="line" smooth="yes"/>
      <point x="1167.1663398692867" y="230.24411764708833"/>
      <point x="874.2444836601167" y="-30.0"/>
      <point x="660.837254901965" y="-30.0" type="qcurve" smooth="yes"/>
      <point x="447.92185620917" y="-30.0"/>
      <point x="155.0" y="230.24411764708833"/>
    </contour>
  </outline>
</glyph>
<glyph name="V" format="2">
  <advance width="1251"/>
  <unicode hex="0056"/>
  <outline>
    <contour>
      <point x="0.0" y="1456.0" type="line"/>
      <point x="134.20228758173167" y="1456.0" type="line"/>
      <point x="566.47647058821" y="283.4843137254733" type="line" smooth="yes"/>
      <point x="581.4274509804217" y="243.90784313726334"/>
      <point x="611.5218954248182" y="162.79379084970833"/>
      <point x="624.4143790849349" y="123.08366013071333" type="qcurve"/>
      <point x="632.2058823529117" y="123.08366013071333" type="line"/>
      <point x="645.0983660131" y="162.79379084970833"/>
      <point x="674.7594771241634" y="243.90784313726334"/>
      <point x="689.9352941176134" y="283.4843137254733" type="qcurve" smooth="yes"/>
      <point x="1124.0594771241633" y="1456.0" type="line"/>
      <point x="1250.4444444444682" y="1456.0" type="line"/>
      <point x="693.0666666666667" y="-10.0" type="line"/>
      <point x="556.661111111135" y="-10.0" type="line"/>
    </contour>
  </outline>
</glyph>
<glyph name="W" format="2">
  <advance width="1862"/>
  <unicode hex="0057"/>
  <outline>
    <contour>
      <point x="444.67647058821" y="-10.0" type="line"/>
      <point x="50.0" y="1456.0" type="line"/>
      <point x="178.91928104577832" y="1456.0" type="line"/>
      <point x="481.2594771241633" y="273.1558823529117" type="line" smooth="yes"/>
      <point x="489.75130718952" y="239.15588235291168"/>
      <point x="502.11928104577834" y="188.31928104577833"/>
      <point x="508.761111111135" y="155.31928104577833" type="qcurve"/>
      <point x="516.3441176470884" y="155.31928104577833" type="line"/>
      <point x="521.7774509804217" y="188.31928104577833"/>
      <point x="532.936928104585" y="239.15588235291168"/>
      <point x="541.936928104585" y="273.1558823529117" type="qcurve" smooth="yes"/>
      <point x="863.7921568627366" y="1456.0" type="line"/>
      <point x="1003.7892156862449" y="1456.0" type="line"/>
      <point x="1329.6441176470883" y="273.1558823529117" type="line" smooth="yes"/>
      <point x="1339.135947712445" y="239.15588235291168"/>
      <point x="1350.7450980392282" y="188.31928104577833"/>
      <point x="1357.386928104585" y="155.31928104577833" type="qcurve"/>
      <point x="1365.1784313725616" y="155.31928104577833" type="line"/>
      <point x="1370.611764705895" y="188.31928104577833"/>
      <point x="1381.0709150326784" y="239.15588235291168"/>
      <point x="1389.562745098035" y="273.1558823529117" type="qcurve" smooth="yes"/>
      <point x="1688.1702614379183" y="1456.0" type="line"/>
      <point x="1812.4055555555317" y="1456.0" type="line"/>
      <point x="1417.7290849673216" y="-10.0" type="line"/>
      <point x="1293.5169934640467" y="-10.0" type="line"/>
      <point x="960.186274509825" y="1182.6290849673217" type="line" smooth="yes"/>
      <point x="950.6944444444683" y="1216.6290849673217"/>
      <point x="935.6849673202333" y="1285.2173202614267"/>
      <point x="931.8934640522567" y="1311.05065359476" type="qcurve"/>
      <point x="923.8934640522567" y="1311.05065359476" type="line"/>
      <point x="920.10196078428" y="1285.2173202614267"/>
      <point x="905.0924836601166" y="1216.6290849673217"/>
      <point x="896.0924836601166" y="1182.6290849673217" type="qcurve" smooth="yes"/>
      <point x="568.8885620914849" y="-10.0" type="line"/>
    </contour>
  </outline>
</glyph>
<glyph name="X" format="2">
  <advance width="1275"/>
  <unicode hex="0058"/>
  <outline>
    <contour>
      <point x="25.0" y="0.0" type="line"/>
      <point x="597.8378823529117" y="785.0446666666667" type="line"/>
      <point x="611.0425228758367" y="785.0446666666667" type="line"/>
      <point x="1076.24614379083" y="1456.0" type="line"/>
      <point x="1221.8957385620815" y="1456.0" type="line"/>
      <point x="677.4728431372633" y="690.9553333333333" type="line"/>
      <point x="664.26820261441" y="690.9553333333333" type="line"/>
      <point x="170.15776470589498" y="0.0" type="line"/>
    </contour>
    <contour>
      <point x="52.88465359476" y="1456.0" type="line"/>
      <point x="206.24489542481834" y="1456.0" type="line"/>
      <point x="670.9181830065501" y="785.0446666666667" type="line"/>
      <point x="678.0031764705966" y="785.0446666666667" type="line"/>
      <point x="1249.2885620914851" y="0.0" type="line"/>
      <point x="1095.9283202614265" y="0.0" type="line"/>
      <point x="603.9007124182683" y="690.9553333333333" type="line"/>
      <point x="597.3075490195783" y="690.9553333333333" type="line"/>
    </contour>
  </outline>
</glyph>
<glyph name="Y" format="2">
  <advance width="1222"/>
  <unicode hex="0059"/>
  <outline>
    <contour>
      <point x="548.675581699345" y="0.0" type="line"/>
      <point x="548.675581699345" y="569.8151764705967" type="line"/>
      <point x="15.0" y="1456.0" type="line"/>
      <point x="160.34509803922833" y="1456.0" type="line"/>
      <point x="542.0950980392283" y="795.2996732026199" type="line" smooth="yes"/>
      <point x="559.5705882352984" y="765.2996732026199"/>
      <point x="592.6130718954149" y="703.2147058823866"/>
      <point x="608.1800653594617" y="672.589215686245" type="qcurve"/>
      <point x="616.1052287581516" y="672.589215686245" type="line"/>
      <point x="631.4473856208883" y="703.2147058823866"/>
      <point x="662.3398692810766" y="765.2996732026199"/>
      <point x="680.0401960784567" y="795.2996732026199" type="qcurve" smooth="yes"/>
      <point x="1066.4871895425033" y="1456.0" type="line"/>
      <point x="1206.0834640522567" y="1456.0" type="line"/>
      <point x="671.916052287555" y="569.8151764705967" type="line"/>
      <point x="671.916052287555" y="0.0" type="line"/>
    </contour>
  </outline>
</glyph>
<glyph name="Z" format="2">
  <advance width="1157"/>
  <unicode hex="005A"/>
  <outline>
    <contour>
      <point x="29.953594771251666" y="0.0" type="line"/>
      <point x="29.953594771251666" y="89.33532026142666" type="line"/>
      <point x="928.5038954248183" y="1348.1728496732167" type="line"/>
      <point x="43.281254901965" y="1348.1728496732167" type="line"/>
      <point x="43.281254901965" y="1456.0" type="line"/>
      <point x="1092.6613006535667" y="1456.0" type="line"/>
      <point x="1092.6613006535667" y="1366.6646797385733" type="line"/>
      <point x="194.111" y="107.82715032678334" type="line"/>
      <point x="1127.5459542483984" y="107.82715032678334" type="line"/>
      <point x="1127.5459542483984" y="0.0" type="line"/>
    </contour>
  </outline>
</glyph>
<glyph name="bracketleft" format="2">
  <advance width="576"/>
  <unicode hex="005B"/>
  <outline>
    <contour>
      <point x="144.0" y="-310.0" type="line"/>
      <point x="144.0" y="1456.0" type="line"/>
      <point x="598.638274509825" y="1456.0" type="line"/>
      <point x="598.638274509825" y="1347.63934640524" type="line"/>
      <point x="264.4831372548766" y="1347.63934640524" type="line"/>
      <point x="264.4831372548766" y="-201.63934640524002" type="line"/>
      <point x="598.638274509825" y="-201.63934640524002" type="line"/>
      <point x="598.638274509825" y="-310.0" type="line"/>
    </contour>
  </outline>
</glyph>
<glyph name="backslash" format="2">
  <advance width="594"/>
  <unicode hex="005C"/>
  <outline>
    <contour>
      <point x="-106.3516339869" y="1456.0" type="line"/>
      <point x="23.711437908514995" y="1456.0" type="line"/>
      <point x="700.65196078428" y="-125.0" type="line"/>
      <point x="569.3803921568416" y="-125.0" type="line"/>
    </contour>
  </outline>
</glyph>
<glyph name="bracketright" format="2">
  <advance width="576"/>
  <unicode hex="005D"/>
  <outline>
    <contour>
      <point x="431.55013071892336" y="-310.0" type="line"/>
      <point x="-23.57997385618667" y="-310.0" type="line"/>
      <point x="-23.57997385618667" y="-201.63934640524002" type="line"/>
      <point x="310.57516339869" y="-201.63934640524002" type="line"/>
      <point x="310.57516339869" y="1347.63934640524" type="line"/>
      <point x="-23.57997385618667" y="1347.63934640524" type="line"/>
      <point x="-23.57997385618667" y="1456.0" type="line"/>
      <point x="431.55013071892336" y="1456.0" type="line"/>
    </contour>
  </outline>
</glyph>
<glyph name="asciicircum" format="2">
  <advance width="1208"/>
  <unicode hex="005E"/>
  <outline>
    <contour>
      <point x="25.0" y="720.0" type="line"/>
      <point x="550.481437908515" y="1456.0" type="line"/>
      <point x="657.4400653594616" y="1456.0" type="line"/>
      <point x="1182.9215032679767" y="720.0" type="line"/>
      <point x="1045.9628758169583" y="720.0" type="line"/>
      <point x="603.9607516339884" y="1348.87796078428" type="line"/>
      <point x="161.95862745094666" y="720.0" type="line"/>
    </contour>
  </outline>
</glyph>
<glyph name="underscore" format="2">
  <advance width="987"/>
  <unicode hex="005F"/>
  <outline>
    <contour>
      <point x="0.0" y="-180.07614379083" type="line"/>
      <point x="0.0" y="-69.97647058820999" type="line"/>
      <point x="986.7192810457784" y="-69.97647058820999" type="line"/>
      <point x="986.7192810457784" y="-180.07614379083" type="line"/>
    </contour>
  </outline>
</glyph>
<glyph name="a" format="2">
  <advance width="1095"/>
  <unicode hex="0061"/>
  <outline>
    <contour>
      <point x="90.0" y="295.6666666666667" type="qcurve" smooth="yes"/>
      <point x="90.0" y="453.1934640522567"/>
      <point x="339.2081699346433" y="624.6169934640467"/>
      <point x="532.6647058823867" y="624.6169934640467" type="qcurve" smooth="yes"/>
      <point x="825.9604575163751" y="624.6169934640467" type="line"/>
      <point x="825.9604575163751" y="720.0" type="line" smooth="yes"/>
      <point x="825.9604575163751" y="836.2330065359533"/>
      <point x="704.338562091485" y="980.04934640524"/>
      <point x="555.34869281048" y="980.04934640524" type="qcurve" smooth="yes"/>
      <point x="407.07549019607" y="980.04934640524"/>
      <point x="279.4699346405383" y="858.2846405228534"/>
      <point x="279.4699346405383" y="769.5081699346433" type="qcurve" smooth="yes"/>
      <point x="279.4699346405383" y="764.5081699346433" type="line"/>
      <point x="161.71013071892332" y="764.5081699346433" type="line"/>
      <point x="161.71013071892332" y="769.5081699346433" type="line" smooth="yes"/>
      <point x="161.71013071892332" y="901.57647058821"/>
      <point x="372.9343137254733" y="1082.0"/>
      <point x="561.5571895425034" y="1082.0" type="qcurve" smooth="yes"/>
      <point x="744.4467320261283" y="1082.0"/>
      <point x="946.6454248366084" y="900.0"/>
      <point x="946.6454248366084" y="720.0" type="qcurve" smooth="yes"/>
      <point x="946.6454248366084" y="240.0" type="line" smooth="yes"/>
      <point x="946.6454248366084" y="175.0"/>
      <point x="968.8375816993449" y="60.0"/>
      <point x="989.0297385620817" y="16.0" type="qcurve"/>
      <point x="989.0297385620817" y="0.0" type="line"/>
      <point x="875.3284313725617" y="0.0" type="line"/>
      <point x="858.1947712418483" y="27.15"/>
      <point x="832.735620915065" y="115.75"/>
      <point x="829.0189542483984" y="159.33333333333334" type="qcurve"/>
      <point x="787.3676470588067" y="93.34967320262"/>
      <point x="591.55098039214" y="-20.0"/>
      <point x="445.011437908515" y="-20.0" type="qcurve" smooth="yes"/>
      <point x="291.27352941179" y="-20.0"/>
      <point x="90.0" y="135.0483660131"/>
    </contour>
    <contour>
      <point x="210.19313725487666" y="300.65" type="qcurve" smooth="yes"/>
      <point x="210.19313725487666" y="191.66535947714667"/>
      <point x="339.29052287583664" y="81.95065359476"/>
      <point x="475.5964052287483" y="81.95065359476" type="qcurve" smooth="yes"/>
      <point x="610.20196078428" y="81.95065359476"/>
      <point x="825.9604575163751" y="252.09215686273666"/>
      <point x="825.9604575163751" y="349.27549019607" type="qcurve"/>
      <point x="825.9604575163751" y="530.7830065359533" type="line"/>
      <point x="555.34869281048" y="530.7830065359533" type="line" smooth="yes"/>
      <point x="385.37516339869" y="530.7830065359533"/>
      <point x="210.19313725487666" y="409.40980392154336"/>
    </contour>
  </outline>
</glyph>
<glyph name="b" format="2">
  <advance width="1159"/>
  <unicode hex="0062"/>
  <outline>
    <contour>
      <point x="148.0" y="0.0" type="line"/>
      <point x="148.0" y="1536.0" type="line"/>
      <point x="268.42247058821" y="1536.0" type="line"/>
      <point x="268.42247058821" y="917.1825490195783" type="line"/>
      <point x="324.6333526206167" y="985.598031965285"/>
      <point x="504.19159129470665" y="1072.0"/>
      <point x="629.2861699346433" y="1072.0" type="qcurve" smooth="yes"/>
      <point x="835.5102091502916" y="1072.0"/>
      <point x="1073.4855555555316" y="772.0"/>
      <point x="1073.4855555555316" y="542.0" type="qcurve" smooth="yes"/>
      <point x="1073.4855555555316" y="510.0" type="line" smooth="yes"/>
      <point x="1073.4855555555316" y="280.0"/>
      <point x="835.5102091502916" y="-20.0"/>
      <point x="629.2861699346433" y="-20.0" type="qcurve" smooth="yes"/>
      <point x="504.2234178120017" y="-20.0"/>
      <point x="312.51454090690004" y="79.465116142235"/>
      <point x="263.8159738561867" y="147.81745098042168" type="qcurve"/>
      <point x="261.98613071892333" y="147.81745098042168" type="line"/>
      <point x="257.3929673202333" y="0.0" type="line"/>
    </contour>
    <contour>
      <point x="268.42247058821" y="276.54326797387165" type="line"/>
      <point x="306.46471541779164" y="201.58122995236334"/>
      <point x="476.9580820447333" y="85.24298039214"/>
      <point x="598.6725359477433" y="85.24298039214" type="qcurve" smooth="yes"/>
      <point x="781.525916923775" y="85.24298039214"/>
      <point x="950.6925882352983" y="325.11002614381334"/>
      <point x="950.6925882352983" y="510.0" type="qcurve" smooth="yes"/>
      <point x="950.6925882352983" y="542.0" type="line" smooth="yes"/>
      <point x="950.6925882352983" y="726.8899738561867"/>
      <point x="781.525916923775" y="966.75701960786"/>
      <point x="598.6725359477433" y="966.75701960786" type="qcurve" smooth="yes"/>
      <point x="476.9580820447333" y="966.75701960786"/>
      <point x="306.4543067236267" y="850.40126451644"/>
      <point x="268.42247058821" y="775.4567320261283" type="qcurve"/>
    </contour>
  </outline>
</glyph>
<glyph name="c" format="2">
  <advance width="1014"/>
  <unicode hex="0063"/>
  <outline>
    <contour>
      <point x="85.0" y="510.0" type="qcurve" smooth="yes"/>
      <point x="85.0" y="542.0" type="line" smooth="yes"/>
      <point x="85.0" y="780.0"/>
      <point x="342.34183006535665" y="1082.0"/>
      <point x="566.3908496732166" y="1082.0" type="qcurve" smooth="yes"/>
      <point x="774.6062091502916" y="1082.0"/>
      <point x="985.8049019607716" y="856.6581699346433"/>
      <point x="985.8049019607716" y="714.0163398692866" type="qcurve" smooth="yes"/>
      <point x="985.8049019607716" y="709.0163398692866" type="line"/>
      <point x="870.1784313725617" y="709.0163398692866" type="line"/>
      <point x="870.1784313725617" y="714.0163398692866" type="line" smooth="yes"/>
      <point x="870.1784313725617" y="822.7928104574967"/>
      <point x="725.3807189542216" y="976.9908496732166"/>
      <point x="566.3908496732166" y="976.9908496732166" type="qcurve" smooth="yes"/>
      <point x="382.94183006535667" y="976.9908496732166"/>
      <point x="207.04313725487668" y="729.7179738561866"/>
      <point x="207.04313725487668" y="542.0" type="qcurve" smooth="yes"/>
      <point x="207.04313725487668" y="510.0" type="line" smooth="yes"/>
      <point x="207.04313725487668" y="321.56535947714667"/>
      <point x="385.09183006535665" y="75.00915032678333"/>
      <point x="566.3908496732166" y="75.00915032678333" type="qcurve" smooth="yes"/>
      <point x="725.3807189542216" y="75.00915032678333"/>
      <point x="870.1784313725617" y="229.20718954250333"/>
      <point x="870.1784313725617" y="337.98366013071336" type="qcurve" smooth="yes"/>
      <point x="870.1784313725617" y="342.98366013071336" type="line"/>
      <point x="985.8049019607716" y="342.98366013071336" type="line"/>
      <point x="985.8049019607716" y="337.98366013071336" type="line" smooth="yes"/>
      <point x="985.8049019607716" y="195.34183006535667"/>
      <point x="774.6062091502916" y="-30.0"/>
      <point x="566.3908496732166" y="-30.0" type="qcurve" smooth="yes"/>
      <point x="342.34183006535665" y="-30.0"/>
      <point x="85.0" y="272.0"/>
    </contour>
  </outline>
</glyph>
<glyph name="d" format="2">
  <advance width="1159"/>
  <unicode hex="0064"/>
  <outline>
    <contour>
      <point x="85.0" y="510.0" type="qcurve" smooth="yes"/>
      <point x="85.0" y="542.0" type="line" smooth="yes"/>
      <point x="85.0" y="772.0"/>
      <point x="322.97534640524003" y="1072.0"/>
      <point x="529.1993856208883" y="1072.0" type="qcurve" smooth="yes"/>
      <point x="654.8134444444684" y="1072.0"/>
      <point x="834.3824640522566" y="985.64952941179"/>
      <point x="890.0630849673216" y="917.1825490195783" type="qcurve"/>
      <point x="890.0630849673216" y="1536.0" type="line"/>
      <point x="1010.9773856208883" y="1536.0" type="line"/>
      <point x="1010.9773856208883" y="0.0" type="line"/>
      <point x="901.584418300655" y="0.0" type="line"/>
      <point x="896.4994248366083" y="147.81745098042168" type="line"/>
      <point x="894.1777516339884" y="147.81745098042168" type="line"/>
      <point x="845.939457516375" y="79.46513725487667"/>
      <point x="654.6987777778016" y="-20.0"/>
      <point x="529.1993856208883" y="-20.0" type="qcurve" smooth="yes"/>
      <point x="322.97534640524003" y="-20.0"/>
      <point x="85.0" y="280.0"/>
    </contour>
    <contour>
      <point x="207.30113725487666" y="510.0" type="line" smooth="yes"/>
      <point x="207.30113725487666" y="325.11002614381334"/>
      <point x="377.4753333333333" y="85.24298039214"/>
      <point x="559.3211895425034" y="85.24298039214" type="qcurve" smooth="yes"/>
      <point x="681.5625882352983" y="85.24298039214"/>
      <point x="852.4579477124449" y="201.61428758173167"/>
      <point x="890.0630849673216" y="276.54326797387165" type="qcurve"/>
      <point x="890.0630849673216" y="775.4567320261283" type="line"/>
      <point x="852.5726143791117" y="850.3857124182683"/>
      <point x="681.5625882352983" y="966.75701960786"/>
      <point x="559.3211895425034" y="966.75701960786" type="qcurve" smooth="yes"/>
      <point x="377.4753333333333" y="966.75701960786"/>
      <point x="207.30113725487666" y="726.8899738561867"/>
      <point x="207.30113725487666" y="542.0" type="qcurve" smooth="yes"/>
    </contour>
  </outline>
</glyph>
<glyph name="e" format="2">
  <advance width="1047"/>
  <unicode hex="0065"/>
  <outline>
    <contour>
      <point x="85.0" y="510.0" type="qcurve" smooth="yes"/>
      <point x="85.0" y="542.0" type="line" smooth="yes"/>
      <point x="85.0" y="780.0"/>
      <point x="342.9084967320233" y="1082.0"/>
      <point x="555.4071895425034" y="1082.0" type="qcurve" smooth="yes"/>
      <point x="765.7558823529116" y="1082.0"/>
      <point x="992.4300653594617" y="808.6"/>
      <point x="992.4300653594617" y="560.0" type="qcurve" smooth="yes"/>
      <point x="992.4300653594617" y="506.8911764705967" type="line"/>
      <point x="150.49150326797667" y="506.8911764705967" type="line"/>
      <point x="150.49150326797667" y="608.6169934640467" type="line"/>
      <point x="871.236928104585" y="608.6169934640467" type="line"/>
      <point x="871.236928104585" y="611.2294117647016" type="line" smooth="yes"/>
      <point x="871.236928104585" y="788.3663398692867"/>
      <point x="716.7578431372633" y="976.49901960786"/>
      <point x="553.739215686245" y="976.49901960786" type="qcurve" smooth="yes"/>
      <point x="383.73333333333335" y="976.49901960786"/>
      <point x="206.05947712416332" y="731.15130718952"/>
      <point x="206.05947712416332" y="542.0" type="qcurve" smooth="yes"/>
      <point x="206.05947712416332" y="510.0" type="line" smooth="yes"/>
      <point x="206.05947712416332" y="321.56535947714667"/>
      <point x="391.2836601307133" y="75.50098039214001"/>
      <point x="588.5830065359534" y="75.50098039214001" type="qcurve" smooth="yes"/>
      <point x="697.0705882352984" y="75.50098039214001"/>
      <point x="850.9352941176134" y="155.88464052285335"/>
      <point x="903.0035947712518" y="219.24313725487667" type="qcurve"/>
      <point x="983.1794117647016" y="148.48333333333335" type="line"/>
      <point x="932.1114379085151" y="80.65"/>
      <point x="732.7794117647016" y="-30.0"/>
      <point x="588.5830065359534" y="-30.0" type="qcurve" smooth="yes"/>
      <point x="345.05849673202334" y="-30.0"/>
      <point x="85.0" y="272.0"/>
    </contour>
  </outline>
</glyph>
<glyph name="f" format="2">
  <advance width="610"/>
  <unicode hex="0066"/>
  <outline>
    <contour>
      <point x="230.50117647059665" y="0.0" type="line"/>
      <point x="230.50117647059665" y="1183.6094117647017" type="line" smooth="yes"/>
      <point x="230.50117647059665" y="1365.2613402364766"/>
      <point x="409.20374024703" y="1556.0"/>
      <point x="563.4249934640467" y="1556.0" type="qcurve" smooth="yes"/>
      <point x="597.1388104574967" y="1556.0"/>
      <point x="666.3747712418483" y="1547.0253333333335"/>
      <point x="696.913254901965" y="1540.0" type="qcurve"/>
      <point x="685.9627581699417" y="1439.2026797385734" type="line"/>
      <point x="663.3141045751817" y="1443.6900130719066"/>
      <point x="604.7023006535667" y="1451.63934640524"/>
      <point x="575.0964836601166" y="1451.63934640524" type="qcurve" smooth="yes"/>
      <point x="467.757984313755" y="1451.63934640524"/>
      <point x="350.43181699345" y="1317.624379084935"/>
      <point x="350.43181699345" y="1183.6094117647017" type="qcurve" smooth="yes"/>
      <point x="350.43181699345" y="1010.50967320262" type="line"/>
      <point x="350.43181699345" y="994.35767320262" type="line"/>
      <point x="350.43181699345" y="0.0" type="line"/>
    </contour>
    <contour>
      <point x="25.0" y="951.8836862745267" type="line"/>
      <point x="25.0" y="1052.0" type="line"/>
      <point x="272.68551633988335" y="1052.0" type="line"/>
      <point x="306.80515032678335" y="1052.0" type="line"/>
      <point x="620.2592941176134" y="1052.0" type="line"/>
      <point x="620.2592941176134" y="951.8836862745267" type="line"/>
    </contour>
  </outline>
</glyph>
<glyph name="g" format="2">
  <advance width="1159"/>
  <unicode hex="0067"/>
  <outline>
    <contour>
      <point x="128.40230065356667" y="-308.3666666666667" type="qcurve"/>
      <point x="196.26032679738" y="-212.69601307190666" type="line"/>
      <point x="246.52511764708834" y="-260.37967320262"/>
      <point x="429.73162745094663" y="-326.6140130719067"/>
      <point x="537.64952941179" y="-326.6140130719067" type="qcurve" smooth="yes"/>
      <point x="700.8942133532066" y="-326.6140130719067"/>
      <point x="890.0630849673216" y="-143.86134640524"/>
      <point x="890.0630849673216" y="21.967320261426664" type="qcurve" smooth="yes"/>
      <point x="890.0630849673216" y="134.81745098042168" type="line"/>
      <point x="834.3824640522566" y="66.35047058821"/>
      <point x="654.8134444444684" y="-20.0"/>
      <point x="529.1993856208883" y="-20.0" type="qcurve" smooth="yes"/>
      <point x="322.97534640524003" y="-20.0"/>
      <point x="85.0" y="280.0"/>
      <point x="85.0" y="510.0" type="qcurve" smooth="yes"/>
      <point x="85.0" y="542.0" type="line" smooth="yes"/>
      <point x="85.0" y="772.0"/>
      <point x="322.97534640524003" y="1072.0"/>
      <point x="529.1993856208883" y="1072.0" type="qcurve" smooth="yes"/>
      <point x="654.6987777778016" y="1072.0"/>
      <point x="845.939457516375" y="972.5348627451233"/>
      <point x="894.1777516339884" y="904.1825490195783" type="qcurve"/>
      <point x="896.4994248366083" y="904.1825490195783" type="line"/>
      <point x="901.584418300655" y="1052.0" type="line"/>
      <point x="1010.9773856208883" y="1052.0" type="line"/>
      <point x="1010.9773856208883" y="21.967320261426664" type="line" smooth="yes"/>
      <point x="1010.9773856208883" y="-199.01633986928667"/>
      <point x="750.8460588235083" y="-436.0"/>
      <point x="542.7641960784567" y="-436.0" type="qcurve" smooth="yes"/>
      <point x="415.91528104577833" y="-436.0"/>
      <point x="202.71658823529833" y="-364.62"/>
    </contour>
    <contour>
      <point x="207.30113725487666" y="510.0" type="line" smooth="yes"/>
      <point x="207.30113725487666" y="325.11002614381334"/>
      <point x="377.4753333333333" y="85.24298039214"/>
      <point x="559.3211895425034" y="85.24298039214" type="qcurve" smooth="yes"/>
      <point x="681.5625882352983" y="85.24298039214"/>
      <point x="852.5726143791117" y="201.61428758173167"/>
      <point x="890.0630849673216" y="276.54326797387165" type="qcurve"/>
      <point x="890.0630849673216" y="775.4567320261283" type="line"/>
      <point x="852.4579477124449" y="850.3857124182683"/>
      <point x="681.5625882352983" y="966.75701960786"/>
      <point x="559.3211895425034" y="966.75701960786" type="qcurve" smooth="yes"/>
      <point x="377.4753333333333" y="966.75701960786"/>
      <point x="207.30113725487666" y="726.8899738561867"/>
      <point x="207.30113725487666" y="542.0" type="qcurve" smooth="yes"/>
    </contour>
  </outline>
</glyph>
<glyph name="h" format="2">
  <advance width="1118"/>
  <unicode hex="0068"/>
  <outline>
    <contour>
      <point x="148.0" y="0.0" type="line"/>
      <point x="148.0" y="1536.0" type="line"/>
      <point x="268.42247058821" y="1536.0" type="line"/>
      <point x="268.42247058821" y="898.8081045751817" type="line"/>
      <point x="333.27906535946164" y="981.3263660131"/>
      <point x="511.47162745094664" y="1072.0"/>
      <point x="626.5503725490533" y="1072.0" type="qcurve" smooth="yes"/>
      <point x="790.2503921568417" y="1072.0"/>
      <point x="979.7894379085151" y="895.8469150326783"/>
      <point x="979.7894379085151" y="689.2160130719067" type="qcurve" smooth="yes"/>
      <point x="979.7894379085151" y="0.0" type="line"/>
      <point x="858.8751372548767" y="0.0" type="line"/>
      <point x="858.8751372548767" y="691.2160130719067" type="line" smooth="yes"/>
      <point x="858.8751372548767" y="838.1494248366083"/>
      <point x="718.9627581699417" y="965.19818300655"/>
      <point x="589.8367058823867" y="965.19818300655" type="qcurve" smooth="yes"/>
      <point x="480.75879738559" y="965.19818300655"/>
      <point x="317.8849215686316" y="854.8744052287484"/>
      <point x="268.42247058821" y="768.6392810457784" type="qcurve"/>
      <point x="268.42247058821" y="0.0" type="line"/>
    </contour>
  </outline>
</glyph>
<glyph name="i" format="2">
  <advance width="434"/>
  <unicode hex="0069"/>
  <outline>
    <contour>
      <point x="157.0" y="0.0" type="line"/>
      <point x="157.0" y="1052.0" type="line"/>
      <point x="277.42247058821" y="1052.0" type="line"/>
      <point x="277.42247058821" y="0.0" type="line"/>
    </contour>
    <contour>
      <point x="140.26732026142668" y="1388.99250980393" type="qcurve" smooth="yes"/>
      <point x="140.26732026142668" y="1425.29534640524"/>
      <point x="180.08598692809335" y="1474.9575163398833"/>
      <point x="216.96532026142665" y="1474.9575163398833" type="qcurve" smooth="yes"/>
      <point x="253.84465359476" y="1474.9575163398833"/>
      <point x="293.66332026142663" y="1425.29534640524"/>
      <point x="293.66332026142663" y="1388.99250980393" type="qcurve" smooth="yes"/>
      <point x="293.66332026142663" y="1352.1978431372634"/>
      <point x="253.84465359476" y="1303.0275032679767"/>
      <point x="217.45715032678334" y="1303.0275032679767" type="qcurve" smooth="yes"/>
      <point x="180.57781699345" y="1303.0275032679767"/>
      <point x="140.26732026142668" y="1352.1978431372634"/>
    </contour>
  </outline>
</glyph>
<glyph name="j" format="2">
  <advance width="434"/>
  <unicode hex="006A"/>
  <outline>
    <contour>
      <point x="-138.82679738559" y="-412.8666666666667" type="qcurve"/>
      <point x="-138.82679738559" y="-310.34934640524" type="line"/>
      <point x="-118.29281045749667" y="-316.34934640524"/>
      <point x="-43.857189542503335" y="-329.6326797385733"/>
      <point x="-14.264705882386671" y="-329.6326797385733" type="qcurve" smooth="yes"/>
      <point x="66.77156862743834" y="-329.6326797385733"/>
      <point x="157.0" y="-235.26601307190666"/>
      <point x="157.0" y="-128.03267973857334" type="qcurve" smooth="yes"/>
      <point x="157.0" y="1052.0" type="line"/>
      <point x="277.19313725487666" y="1052.0" type="line"/>
      <point x="277.19313725487666" y="-90.0" type="line" smooth="yes"/>
      <point x="277.19313725487666" y="-270.0"/>
      <point x="138.75522875815167" y="-436.0"/>
      <point x="5.09248366011667" y="-436.0" type="qcurve" smooth="yes"/>
      <point x="-33.10882352940334" y="-436.0"/>
      <point x="-115.93464052285333" y="-419.94150326797666"/>
    </contour>
    <contour>
      <point x="140.26732026142668" y="1389.3078431372635" type="qcurve" smooth="yes"/>
      <point x="140.26732026142668" y="1425.0660130719066"/>
      <point x="180.20065359476" y="1474.9575163398833"/>
      <point x="216.85065359476" y="1474.9575163398833" type="qcurve" smooth="yes"/>
      <point x="253.50065359476" y="1474.9575163398833"/>
      <point x="293.4339869280933" y="1425.0660130719066"/>
      <point x="293.4339869280933" y="1389.3078431372635" type="qcurve" smooth="yes"/>
      <point x="293.4339869280933" y="1352.3411764705968"/>
      <point x="253.50065359476" y="1302.9415032679767"/>
      <point x="217.34248366011667" y="1302.9415032679767" type="qcurve" smooth="yes"/>
      <point x="180.69248366011666" y="1302.9415032679767"/>
      <point x="140.26732026142668" y="1352.3411764705968"/>
    </contour>
  </outline>
</glyph>
<glyph name="k" format="2">
  <advance width="1029"/>
  <unicode hex="006B"/>
  <outline>
    <contour>
      <point x="148.0" y="0.0" type="line"/>
      <point x="148.0" y="1536.0" type="line"/>
      <point x="268.42247058821" y="1536.0" type="line"/>
      <point x="268.42247058821" y="549.0558300653566" type="line"/>
      <point x="823.8522875817317" y="1052.0" type="line"/>
      <point x="988.5412875817317" y="1052.0" type="line"/>
      <point x="268.19313725487666" y="410.0173202614267" type="line"/>
      <point x="268.19313725487666" y="0.0" type="line"/>
    </contour>
    <contour>
      <point x="885.0505228758367" y="0.0" type="line"/>
      <point x="390.72949019607" y="580.7124444444684" type="line"/>
      <point x="478.97875163398834" y="662.4022875817317" type="line"/>
      <point x="1044.562091503275" y="0.0" type="line"/>
    </contour>
  </outline>
</glyph>
<glyph name="m" format="2">
  <advance width="1788"/>
  <unicode hex="006D"/>
  <outline>
    <contour>
      <point x="148.0" y="0.0" type="line"/>
      <point x="148.0" y="1052.0" type="line"/>
      <point x="257.3929673202333" y="1052.0" type="line"/>
      <point x="261.98613071892333" y="895.3650980392283" type="line"/>
      <point x="263.8159738561867" y="895.3650980392283" type="line"/>
      <point x="329.088235294105" y="979.4410326797666"/>
      <point x="506.55659477125164" y="1072.0"/>
      <point x="619.0523333333333" y="1072.0" type="qcurve" smooth="yes"/>
      <point x="731.252764705895" y="1072.0"/>
      <point x="892.33849019607" y="979.5556993464334"/>
      <point x="928.3709673202334" y="884.679398692795" type="qcurve"/>
      <point x="930.3154771241633" y="884.679398692795" type="line"/>
      <point x="1000.0956907378783" y="980.671083743365"/>
      <point x="1185.7523965141918" y="1072.0"/>
      <point x="1302.11681699345" y="1072.0" type="qcurve" smooth="yes"/>
      <point x="1462.420861843615" y="1072.0"/>
      <point x="1650.6645751633916" y="895.8469150326783"/>
      <point x="1650.6645751633916" y="689.2160130719067" type="qcurve" smooth="yes"/>
      <point x="1650.6645751633916" y="0.0" type="line"/>
      <point x="1530.7339346405383" y="0.0" type="line"/>
      <point x="1530.7339346405383" y="691.2160130719067" type="line" smooth="yes"/>
      <point x="1529.406274509825" y="838.1494248366083"/>
      <point x="1395.329725490175" y="965.19818300655"/>
      <point x="1271.20367320262" y="965.19818300655" type="qcurve" smooth="yes"/>
      <point x="1165.125764705895" y="965.19818300655"/>
      <point x="1009.1372222221984" y="853.7805751633916"/>
      <point x="959.7894379085151" y="768.6392810457784" type="qcurve"/>
      <point x="959.7894379085151" y="0.0" type="line"/>
      <point x="838.8751372548767" y="0.0" type="line"/>
      <point x="838.8751372548767" y="691.2160130719067" type="line" smooth="yes"/>
      <point x="838.0393071895201" y="838.1494248366083"/>
      <point x="703.470928104585" y="965.19818300655"/>
      <point x="579.8367058823867" y="965.19818300655" type="qcurve" smooth="yes"/>
      <point x="474.2506274509467" y="965.19818300655"/>
      <point x="317.770254901965" y="853.7805751633916"/>
      <point x="268.42247058821" y="768.6392810457784" type="qcurve"/>
      <point x="268.42247058821" y="0.0" type="line"/>
    </contour>
  </outline>
</glyph>
<glyph name="n" format="2">
  <advance width="1118"/>
  <unicode hex="006E"/>
  <outline>
    <contour>
      <point x="148.0" y="0.0" type="line"/>
      <point x="148.0" y="1052.0" type="line"/>
      <point x="257.3929673202333" y="1052.0" type="line"/>
      <point x="261.98613071892333" y="895.3650980392283" type="line"/>
      <point x="263.8159738561867" y="895.3650980392283" type="line"/>
      <point x="329.5579019607717" y="980.9328627451233"/>
      <point x="513.573650453935" y="1072.0"/>
      <point x="629.0523333333333" y="1072.0" type="qcurve" smooth="yes"/>
      <point x="790.2503921568417" y="1072.0"/>
      <point x="979.7894379085151" y="895.8677767799517"/>
      <point x="979.7894379085151" y="689.2160130719067" type="qcurve" smooth="yes"/>
      <point x="979.7894379085151" y="0.0" type="line"/>
      <point x="858.8751372548767" y="0.0" type="line"/>
      <point x="858.8751372548767" y="691.2160130719067" type="line" smooth="yes"/>
      <point x="858.8751372548767" y="837.7194415797333"/>
      <point x="718.9654790739183" y="965.19818300655"/>
      <point x="589.8367058823867" y="965.19818300655" type="qcurve" smooth="yes"/>
      <point x="481.29130529084335" y="965.19818300655"/>
      <point x="317.8519662764683" y="854.8967559197499"/>
      <point x="268.42247058821" y="768.6392810457784" type="qcurve"/>
      <point x="268.42247058821" y="0.0" type="line"/>
    </contour>
  </outline>
</glyph>
<glyph name="o" format="2">
  <advance width="1156"/>
  <unicode hex="006F"/>
  <outline>
    <contour>
      <point x="85.0" y="510.0" type="qcurve" smooth="yes"/>
      <point x="85.0" y="542.0" type="line" smooth="yes"/>
      <point x="85.0" y="780.0"/>
      <point x="353.55149019607" y="1082.0"/>
      <point x="578.0911764705967" y="1082.0" type="qcurve" smooth="yes"/>
      <point x="802.6308627451234" y="1082.0"/>
      <point x="1071.1823529411934" y="780.0"/>
      <point x="1071.1823529411934" y="542.0" type="qcurve" smooth="yes"/>
      <point x="1071.1823529411934" y="510.0" type="line" smooth="yes"/>
      <point x="1071.1823529411934" y="272.0"/>
      <point x="802.6308627451234" y="-30.0"/>
      <point x="578.0911764705967" y="-30.0" type="qcurve" smooth="yes"/>
      <point x="353.55149019607" y="-30.0"/>
      <point x="85.0" y="272.0"/>
    </contour>
    <contour>
      <point x="207.30113725487666" y="542.0" type="qcurve" smooth="yes"/>
      <point x="207.30113725487666" y="510.0" type="line" smooth="yes"/>
      <point x="207.30113725487666" y="322.60185620916997"/>
      <point x="395.42065359476" y="75.24298039214"/>
      <point x="578.0911764705967" y="75.24298039214" type="qcurve" smooth="yes"/>
      <point x="760.7616993464334" y="75.24298039214"/>
      <point x="948.881215686245" y="322.60185620916997"/>
      <point x="948.881215686245" y="510.0" type="qcurve" smooth="yes"/>
      <point x="948.881215686245" y="542.0" type="line" smooth="yes"/>
      <point x="948.881215686245" y="729.39814379083"/>
      <point x="760.7616993464334" y="976.75701960786"/>
      <point x="578.0911764705967" y="976.75701960786" type="qcurve" smooth="yes"/>
      <point x="395.42065359476" y="976.75701960786"/>
      <point x="207.30113725487666" y="729.39814379083"/>
    </contour>
  </outline>
</glyph>
<glyph name="p" format="2">
  <advance width="1159"/>
  <unicode hex="0070"/>
  <outline>
    <contour>
      <point x="148.0" y="-416.0" type="line"/>
      <point x="148.0" y="1052.0" type="line"/>
      <point x="257.3929673202333" y="1052.0" type="line"/>
      <point x="261.98613071892333" y="904.1825490195783" type="line"/>
      <point x="263.8159738561867" y="904.1825490195783" type="line"/>
      <point x="313.03792810458503" y="972.5348627451233"/>
      <point x="504.27860784315834" y="1072.0"/>
      <point x="629.2861699346433" y="1072.0" type="qcurve" smooth="yes"/>
      <point x="835.5102091502916" y="1072.0"/>
      <point x="1073.4855555555316" y="772.0"/>
      <point x="1073.4855555555316" y="542.0" type="qcurve" smooth="yes"/>
      <point x="1073.4855555555316" y="510.0" type="line" smooth="yes"/>
      <point x="1073.4855555555316" y="280.0"/>
      <point x="835.5102091502916" y="-20.0"/>
      <point x="629.2861699346433" y="-20.0" type="qcurve" smooth="yes"/>
      <point x="504.1639411764917" y="-20.0"/>
      <point x="324.59492156863166" y="66.35047058821"/>
      <point x="268.42247058821" y="134.81745098042168" type="qcurve"/>
      <point x="268.42247058821" y="-416.0" type="line"/>
    </contour>
    <contour>
      <point x="268.42247058821" y="276.54326797387165" type="line"/>
      <point x="305.91294117649164" y="201.61428758173167"/>
      <point x="476.92296732023334" y="85.24298039214"/>
      <point x="598.6725359477433" y="85.24298039214" type="qcurve" smooth="yes"/>
      <point x="781.0102222221983" y="85.24298039214"/>
      <point x="950.6925882352983" y="325.11002614381334"/>
      <point x="950.6925882352983" y="510.0" type="qcurve" smooth="yes"/>
      <point x="950.6925882352983" y="542.0" type="line" smooth="yes"/>
      <point x="950.6925882352983" y="726.8899738561867"/>
      <point x="781.0102222221983" y="966.75701960786"/>
      <point x="598.6725359477433" y="966.75701960786" type="qcurve" smooth="yes"/>
      <point x="476.92296732023334" y="966.75701960786"/>
      <point x="306.519437908515" y="850.3857124182683"/>
      <point x="268.42247058821" y="775.4567320261283" type="qcurve"/>
    </contour>
  </outline>
</glyph>
<glyph name="q" format="2">
  <advance width="1159"/>
  <unicode hex="0071"/>
  <outline>
    <contour>
      <point x="85.0" y="510.0" type="qcurve" smooth="yes"/>
      <point x="85.0" y="542.0" type="line" smooth="yes"/>
      <point x="85.0" y="772.0"/>
      <point x="323.03267973857334" y="1072.0"/>
      <point x="529.314052287555" y="1072.0" type="qcurve" smooth="yes"/>
      <point x="654.8277777778017" y="1072.0"/>
      <point x="845.810457516375" y="972.7068627451233"/>
      <point x="893.862418300655" y="904.0392156862449" type="qcurve"/>
      <point x="896.7287581699417" y="904.0392156862449" type="line"/>
      <point x="901.4124183006551" y="1052.0" type="line"/>
      <point x="1011.2640522875549" y="1052.0" type="line"/>
      <point x="1011.2640522875549" y="-416.0" type="line"/>
      <point x="889.862418300655" y="-416.0" type="line"/>
      <point x="889.862418300655" y="134.960784313755" type="line"/>
      <point x="889.862418300655" y="134.960784313755" type="line"/>
      <point x="834.1101307189233" y="66.29313725487667"/>
      <point x="654.8277777778017" y="-20.0"/>
      <point x="529.314052287555" y="-20.0" type="qcurve" smooth="yes"/>
      <point x="323.03267973857334" y="-20.0"/>
      <point x="85.0" y="280.0"/>
    </contour>
    <contour>
      <point x="207.30113725487666" y="510.0" type="line" smooth="yes"/>
      <point x="207.30113725487666" y="325.11002614381334"/>
      <point x="377.4753333333333" y="85.24298039214"/>
      <point x="559.3211895425034" y="85.24298039214" type="qcurve" smooth="yes"/>
      <point x="681.5625882352983" y="85.24298039214"/>
      <point x="852.5726143791117" y="201.61428758173167"/>
      <point x="890.0630849673216" y="276.54326797387165" type="qcurve"/>
      <point x="890.0630849673216" y="775.4567320261283" type="line"/>
      <point x="852.4579477124449" y="850.3857124182683"/>
      <point x="681.5625882352983" y="966.75701960786"/>
      <point x="559.3211895425034" y="966.75701960786" type="qcurve" smooth="yes"/>
      <point x="377.4753333333333" y="966.75701960786"/>
      <point x="207.30113725487666" y="726.8899738561867"/>
      <point x="207.30113725487666" y="542.0" type="qcurve" smooth="yes"/>
    </contour>
  </outline>
</glyph>
<glyph name="r" format="2">
  <advance width="702"/>
  <unicode hex="0072"/>
  <outline>
    <contour>
      <point x="148.0" y="0.0" type="line"/>
      <point x="148.0" y="1052.0" type="line"/>
      <point x="257.3929673202333" y="1052.0" type="line"/>
      <point x="261.98613071892333" y="902.5767320261283" type="line"/>
      <point x="263.8159738561867" y="902.5767320261283" type="line"/>
      <point x="313.7327004887" y="973.776746609085"/>
      <point x="471.90510140904667" y="1082.0"/>
      <point x="581.5090457516017" y="1082.0" type="qcurve" smooth="yes"/>
      <point x="606.3936993464333" y="1082.0"/>
      <point x="660.7695032679767" y="1072.0"/>
      <point x="672.2118300653567" y="1068.0" type="qcurve"/>
      <point x="672.2118300653567" y="953.4783529411934" type="line"/>
      <point x="649.4418431372633" y="957.4783529411934"/>
      <point x="600.1643660131" y="963.4276862745266"/>
      <point x="570.673215686245" y="963.4276862745266" type="qcurve" smooth="yes"/>
      <point x="465.10867712416336" y="963.4276862745266"/>
      <point x="308.343707510145" y="852.1730245371416"/>
      <point x="268.42247058821" y="771.3590849673217" type="qcurve"/>
      <point x="268.42247058821" y="0.0" type="line"/>
    </contour>
  </outline>
</glyph>
<glyph name="s" format="2">
  <advance width="990"/>
  <unicode hex="0073"/>
  <outline>
    <contour>
      <point x="80.0" y="310.98366013071336" type="line"/>
      <point x="200.19313725487666" y="310.98366013071336" type="line"/>
      <point x="200.19313725487666" y="305.4918300653567" type="line" smooth="yes"/>
      <point x="200.19313725487666" y="188.95882352940333"/>
      <point x="365.37516339869" y="74.51732026142668"/>
      <point x="499.9807189542217" y="74.51732026142668" type="qcurve" smooth="yes"/>
      <point x="635.5699346405383" y="74.51732026142668"/>
      <point x="787.9343137254733" y="181.29117647059667"/>
      <point x="787.9343137254733" y="270.4584967320233" type="qcurve" smooth="yes"/>
      <point x="787.9343137254733" y="360.03333333333336"/>
      <point x="663.2960784313683" y="450.04117647059667"/>
      <point x="483.83888888886503" y="490.04117647059667" type="qcurve" smooth="yes"/>
      <point x="304.3816993464333" y="530.0411764705966"/>
      <point x="119.85326797387167" y="675.5330065359533"/>
      <point x="119.85326797387167" y="796.2163398692867" type="qcurve" smooth="yes"/>
      <point x="119.85326797387167" y="921.6915032679767"/>
      <point x="328.72647058821" y="1082.0"/>
      <point x="502.5575163398833" y="1082.0" type="qcurve" smooth="yes"/>
      <point x="677.1052287581516" y="1082.0"/>
      <point x="889.362418300655" y="904.6905228758367"/>
      <point x="889.362418300655" y="758.4656862745267" type="qcurve" smooth="yes"/>
      <point x="889.362418300655" y="753.4656862745267" type="line"/>
      <point x="769.4526143791118" y="753.4656862745267" type="line"/>
      <point x="769.4526143791118" y="757.1398692810767" type="line" smooth="yes"/>
      <point x="769.4526143791118" y="861.3405228758367"/>
      <point x="633.6218954248183" y="977.4826797385733"/>
      <point x="502.5575163398833" y="977.4826797385733" type="qcurve" smooth="yes"/>
      <point x="371.4931372548767" y="977.4826797385733"/>
      <point x="239.97156862743833" y="885.1588235294033"/>
      <point x="239.97156862743833" y="806.7081699346434" type="qcurve" smooth="yes"/>
      <point x="239.97156862743833" y="730.0"/>
      <point x="364.33267973857335" y="637.3336601307134"/>
      <point x="543.7898692810767" y="597.1088235294034" type="qcurve" smooth="yes"/>
      <point x="723.2470588235083" y="556.3921568627367"/>
      <point x="909.961437908515" y="413.7836601307133"/>
      <point x="909.961437908515" y="280.95032679738" type="qcurve" smooth="yes"/>
      <point x="909.961437908515" y="145.47516339869"/>
      <point x="705.3294117647016" y="-30.0"/>
      <point x="499.9807189542217" y="-30.0" type="qcurve" smooth="yes"/>
      <point x="295.12385620917" y="-30.0"/>
      <point x="80.0" y="152.05849673202334"/>
      <point x="80.0" y="305.4918300653567" type="qcurve" smooth="yes"/>
    </contour>
  </outline>
</glyph>
<glyph name="t" format="2">
  <advance width="662"/>
  <unicode hex="0074"/>
  <outline>
    <contour>
      <point x="0.0" y="951.8836862745267" type="line"/>
      <point x="0.0" y="1052.0" type="line"/>
      <point x="612.3081176470884" y="1052.0" type="line"/>
      <point x="612.3081176470884" y="951.8836862745267" type="line"/>
    </contour>
    <contour>
      <point x="221.17351633988332" y="261.96732026142666" type="qcurve" smooth="yes"/>
      <point x="221.17351633988332" y="992.3070065359534" type="line"/>
      <point x="221.17351633988332" y="1012.5603398692867" type="line"/>
      <point x="220.96666666666667" y="1312.0" type="line"/>
      <point x="341.75" y="1312.0" type="line"/>
      <point x="341.59598692809334" y="261.96732026142666" type="line" smooth="yes"/>
      <point x="341.59598692809334" y="163.21465359476"/>
      <point x="411.66794771244497" y="78.36065359476"/>
      <point x="486.3464052287483" y="78.36065359476" type="qcurve" smooth="yes"/>
      <point x="516.3227189542217" y="78.36065359476"/>
      <point x="571.7391895425034" y="89.38598692809333"/>
      <point x="600.1630065359534" y="99.38598692809333" type="qcurve"/>
      <point x="600.1630065359534" y="-4.873333333333333" type="line"/>
      <point x="576.0629162421183" y="-14.867520033486667"/>
      <point x="500.23971631586835" y="-30.0"/>
      <point x="454.67508496732165" y="-30.0" type="qcurve" smooth="yes"/>
      <point x="347.4785865152767" y="-30.0"/>
      <point x="221.17351633988332" y="110.98366013071333"/>
    </contour>
  </outline>
</glyph>
<glyph name="u" format="2">
  <advance width="1118"/>
  <unicode hex="0075"/>
  <outline>
    <contour>
      <point x="138.0" y="362.7839869280933" type="qcurve" smooth="yes"/>
      <point x="138.0" y="1052.0" type="line"/>
      <point x="258.42247058821" y="1052.0" type="line"/>
      <point x="258.42247058821" y="360.7839869280933" type="line" smooth="yes"/>
      <point x="258.42247058821" y="213.85057516339165"/>
      <point x="398.8266797385734" y="86.80181699345"/>
      <point x="527.4609019607717" y="86.80181699345" type="qcurve" smooth="yes"/>
      <point x="636.5388104574967" y="86.80181699345"/>
      <point x="799.4126862745267" y="197.12559477125166"/>
      <point x="848.8751372548767" y="283.3607189542217" type="qcurve"/>
      <point x="848.8751372548767" y="1052.0" type="line"/>
      <point x="969.7894379085151" y="1052.0" type="line"/>
      <point x="969.7894379085151" y="0.0" type="line"/>
      <point x="860.39647058821" y="0.0" type="line"/>
      <point x="855.3114771241634" y="156.63490196077166" type="line"/>
      <point x="853.4816339869001" y="156.63490196077166" type="line"/>
      <point x="788.2315359477433" y="71.06713725487667"/>
      <point x="604.2328431372633" y="-20.0"/>
      <point x="488.73710457518166" y="-20.0" type="qcurve" smooth="yes"/>
      <point x="327.5390457516017" y="-20.0"/>
      <point x="138.0" y="156.15308496732166"/>
    </contour>
  </outline>
</glyph>
<glyph name="v" format="2">
  <advance width="996"/>
  <unicode hex="0076"/>
  <outline>
    <contour>
      <point x="0.0" y="1052.0" type="line"/>
      <point x="127.26176470589499" y="1052.0" type="line"/>
      <point x="451.4950980392283" y="259.5173202614267" type="line" smooth="yes"/>
      <point x="468.17908496732167" y="219.51732026142668"/>
      <point x="489.2307189542217" y="158.21568627452666"/>
      <point x="496.18169934643333" y="129.812418300655" type="qcurve"/>
      <point x="502.8983660131" y="129.812418300655" type="line"/>
      <point x="510.3411764705967" y="158.21568627452666"/>
      <point x="531.3928104574967" y="219.51732026142668"/>
      <point x="547.5849673202333" y="259.5173202614267" type="qcurve" smooth="yes"/>
      <point x="872.010457516375" y="1052.0" type="line"/>
      <point x="996.1715686274383" y="1052.0" type="line"/>
      <point x="550.6385032679767" y="0.0" type="line"/>
      <point x="446.063398692795" y="0.0" type="line"/>
    </contour>
  </outline>
</glyph>
<glyph name="w" format="2">
  <advance width="1616"/>
  <unicode hex="0077"/>
  <outline>
    <contour>
      <point x="25.0" y="1052.0" type="line"/>
      <point x="150.98694117649165" y="1052.0" type="line"/>
      <point x="383.8516339869" y="286.8156862745267" type="line" smooth="yes"/>
      <point x="396.32712418304163" y="246.81568627452668"/>
      <point x="417.6039215686317" y="167.72745098042168"/>
      <point x="427.037254901965" y="127.72745098042166" type="qcurve"/>
      <point x="433.75392156863165" y="127.72745098042166" type="line"/>
      <point x="443.187254901965" y="167.72745098042168"/>
      <point x="465.8973856208883" y="246.81568627452668"/>
      <point x="479.8810457516017" y="286.8156862745267" type="qcurve" smooth="yes"/>
      <point x="755.4222222221983" y="1052.0" type="line"/>
      <point x="869.02647058821" y="1052.0" type="line"/>
      <point x="1142.6163398692868" y="286.8156862745267" type="line" smooth="yes"/>
      <point x="1156.8833333333334" y="246.81568627452668"/>
      <point x="1180.3101307189233" y="167.72745098042168"/>
      <point x="1189.0267973855898" y="127.72745098042166" type="qcurve"/>
      <point x="1195.0267973855898" y="127.72745098042166" type="line"/>
      <point x="1203.7434640522565" y="167.72745098042168"/>
      <point x="1226.8705882352983" y="246.81568627452668"/>
      <point x="1239.3460784313684" y="286.8156862745267" type="qcurve" smooth="yes"/>
      <point x="1473.2279215686317" y="1052.0" type="line"/>
      <point x="1591.031542483625" y="1052.0" type="line"/>
      <point x="1252.2355686274384" y="0.0" type="line"/>
      <point x="1135.8238235294034" y="0.0" type="line"/>
      <point x="861.72581699345" y="758.20098039214" type="line" smooth="yes"/>
      <point x="847.25032679738" y="798.20098039214"/>
      <point x="824.6578431372633" y="871.0343137254733"/>
      <point x="813.1823529411934" y="911.0343137254733" type="qcurve"/>
      <point x="805.74901960786" y="911.0343137254733" type="line"/>
      <point x="794.27352941179" y="871.0343137254733"/>
      <point x="771.6810457516017" y="798.20098039214"/>
      <point x="757.2055555555316" y="758.20098039214" type="qcurve" smooth="yes"/>
      <point x="480.69954901957834" y="0.0" type="line"/>
      <point x="363.9679738561867" y="0.0" type="line"/>
    </contour>
  </outline>
</glyph>
<glyph name="x" format="2">
  <advance width="1015"/>
  <unicode hex="0078"/>
  <outline>
    <contour>
      <point x="20.0" y="0.0" type="line"/>
      <point x="457.7955947712517" y="567.38" type="line"/>
      <point x="470.88039215684165" y="567.6666666666666" type="line"/>
      <point x="828.2445228758367" y="1052.0" type="line"/>
      <point x="972.9502875817317" y="1052.0" type="line"/>
      <point x="552.99120261441" y="498.62" type="line"/>
      <point x="539.763071895415" y="498.3333333333333" type="line"/>
      <point x="164.82043137256167" y="0.0" type="line"/>
    </contour>
    <contour>
      <point x="42.88465359476" y="1052.0" type="line"/>
      <point x="192.78707189541498" y="1052.0" type="line"/>
      <point x="549.0725490195783" y="571.9666666666667" type="line"/>
      <point x="556.74934640524" y="572.6833333333333" type="line"/>
      <point x="995.8349411764916" y="0.0" type="line"/>
      <point x="845.44069281048" y="0.0" type="line"/>
      <point x="470.60653594774334" y="498.3333333333333" type="line"/>
      <point x="462.8437385620817" y="498.62" type="line"/>
    </contour>
  </outline>
</glyph>
<glyph name="y" format="2">
  <advance width="1070"/>
  <unicode hex="0079"/>
  <outline>
    <contour>
      <point x="112.2516339869" y="-416.0" type="qcurve"/>
      <point x="112.2516339869" y="-311.2160130719067" type="line"/>
      <point x="141.91928104577835" y="-319.2160130719067"/>
      <point x="212.53790849672498" y="-330.64934640524"/>
      <point x="243.563725490175" y="-330.64934640524" type="qcurve" smooth="yes"/>
      <point x="321.20816993464337" y="-330.64934640524"/>
      <point x="421.52647058821003" y="-237.04575163398835"/>
      <point x="515.9218954248183" y="5.02581699345" type="qcurve"/>
      <point x="515.9218954248183" y="5.3091503267833335" type="line"/>
      <point x="73.78333333333333" y="1052.0" type="line"/>
      <point x="202.47843137256166" y="1052.0" type="line"/>
      <point x="527.3045751633916" y="253.84901960786" type="line" smooth="yes"/>
      <point x="541.1218954248183" y="221.7323529411933"/>
      <point x="562.0398692810767" y="164.7307189542217"/>
      <point x="572.4568627451233" y="129.812418300655" type="qcurve"/>
      <point x="579.17352941179" y="129.812418300655" type="line"/>
      <point x="589.87385620917" y="164.7307189542217"/>
      <point x="610.0915032679767" y="221.7323529411933"/>
      <point x="623.1336601307133" y="253.84901960786" type="qcurve" smooth="yes"/>
      <point x="945.6444444444684" y="1052.0" type="line"/>
      <point x="1068.3722222221984" y="1052.0" type="line"/>
      <point x="587.8892156862449" y="-96.28333333333333" type="line" smooth="yes"/>
      <point x="513.3539215686317" y="-276.86633986928666"/>
      <point x="370.9921568627367" y="-436.0"/>
      <point x="250.02254901957832" y="-436.0" type="qcurve" smooth="yes"/>
      <point x="206.8045751633917" y="-436.0"/>
      <point x="142.485947712445" y="-425.28333333333336"/>
    </contour>
  </outline>
</glyph>
<glyph name="z" format="2">
  <advance width="1036"/>
  <unicode hex="007A"/>
  <outline>
    <contour>
      <point x="70.0" y="0.0" type="line"/>
      <point x="70.0" y="103.37115032678332" type="line"/>
      <point x="778.9615947712516" y="946.75701960786" type="line"/>
      <point x="79.32766013071334" y="946.75701960786" type="line"/>
      <point x="79.32766013071334" y="1052.0" type="line"/>
      <point x="937.60047058821" y="1052.0" type="line"/>
      <point x="937.60047058821" y="950.1668496732167" type="line"/>
      <point x="227.47020915029168" y="105.24298039214" type="line"/>
      <point x="971.812784313755" y="105.24298039214" type="line"/>
      <point x="971.812784313755" y="0.0" type="line"/>
    </contour>
  </outline>
</glyph>
<glyph name="braceleft" format="2">
  <advance width="635"/>
  <unicode hex="007B"/>
  <outline>
    <contour>
      <point x="639.8364836601166" y="-312.0" type="line"/>
      <point x="415.36930718952" y="-312.0"/>
      <point x="174.84822222219833" y="-41.40266666666666"/>
      <point x="223.34467973857332" y="137.42326797387167" type="qcurve" smooth="yes"/>
      <point x="275.01633986928664" y="333.01633986928664" type="line" smooth="yes"/>
      <point x="305.3618300653566" y="451.2250065359533"/>
      <point x="166.24771241826835" y="526.50967320262"/>
      <point x="45.13508496732167" y="526.50967320262" type="qcurve"/>
      <point x="45.13508496732167" y="621.49032679738" type="line"/>
      <point x="166.24771241826835" y="621.49032679738"/>
      <point x="305.3618300653566" y="696.7749934640467"/>
      <point x="275.01633986928664" y="814.9836601307134" type="qcurve" smooth="yes"/>
      <point x="223.34467973857332" y="1010.5767320261283" type="line" smooth="yes"/>
      <point x="174.84822222219833" y="1189.4026666666666"/>
      <point x="415.36930718952" y="1460.0"/>
      <point x="639.8364836601166" y="1460.0" type="qcurve"/>
      <point x="639.8364836601166" y="1358.8166797385734" type="line"/>
      <point x="457.8271372548767" y="1358.8166797385734"/>
      <point x="303.7285163398833" y="1160.76501960786"/>
      <point x="344.82781699344997" y="1009.5930718954149" type="qcurve" smooth="yes"/>
      <point x="396.99130718952" y="814.0" type="line" smooth="yes"/>
      <point x="419.2694640522567" y="730.72116339869"/>
      <point x="346.66296732023335" y="596.39418300655"/>
      <point x="249.99062745094665" y="574.0" type="qcurve"/>
      <point x="346.66296732023335" y="551.60581699345"/>
      <point x="418.5483006535667" y="417.88533333333334"/>
      <point x="396.99130718952" y="334.0" type="qcurve" smooth="yes"/>
      <point x="344.82781699344997" y="138.406928104585" type="line" smooth="yes"/>
      <point x="303.7285163398833" y="-12.76501960786"/>
      <point x="457.8271372548767" y="-210.81667973857333"/>
      <point x="639.8364836601166" y="-210.81667973857333" type="qcurve"/>
    </contour>
  </outline>
</glyph>
<glyph name="braceright" format="2">
  <advance width="635"/>
  <unicode hex="007D"/>
  <outline>
    <contour>
      <point x="-5.337006535953336" y="-312.0" type="qcurve"/>
      <point x="-5.337006535953336" y="-210.81667973857333" type="line"/>
      <point x="176.67233986928667" y="-210.81667973857333"/>
      <point x="331.2627908497083" y="-12.76501960786"/>
      <point x="289.6716601307133" y="138.406928104585" type="qcurve" smooth="yes"/>
      <point x="238.0" y="334.0" type="line" smooth="yes"/>
      <point x="216.44300653595332" y="417.88533333333334"/>
      <point x="287.83650980393" y="551.60581699345"/>
      <point x="385.00067973857335" y="574.0" type="qcurve"/>
      <point x="287.83650980393" y="596.39418300655"/>
      <point x="216.44300653595332" y="730.1146666666666"/>
      <point x="238.0" y="814.0" type="qcurve" smooth="yes"/>
      <point x="289.6716601307133" y="1009.5930718954149" type="line" smooth="yes"/>
      <point x="331.2627908497083" y="1160.76501960786"/>
      <point x="176.67233986928667" y="1358.8166797385734"/>
      <point x="-5.337006535953336" y="1358.8166797385734" type="qcurve"/>
      <point x="-5.337006535953336" y="1460.0" type="line"/>
      <point x="219.13016993464333" y="1460.0"/>
      <point x="460.14308496732167" y="1189.4026666666666"/>
      <point x="411.64662745094665" y="1010.5767320261283" type="qcurve" smooth="yes"/>
      <point x="359.4831372548767" y="814.9836601307134" type="line" smooth="yes"/>
      <point x="329.13764705880664" y="696.7749934640467"/>
      <point x="468.251764705895" y="621.49032679738"/>
      <point x="589.8562222221983" y="621.49032679738" type="qcurve"/>
      <point x="589.8562222221983" y="526.50967320262" type="line"/>
      <point x="468.251764705895" y="526.50967320262"/>
      <point x="329.13764705880664" y="451.2250065359533"/>
      <point x="359.4831372548767" y="333.01633986928664" type="qcurve" smooth="yes"/>
      <point x="411.64662745094665" y="137.42326797387167" type="line" smooth="yes"/>
      <point x="460.14308496732167" y="-41.40266666666666"/>
      <point x="219.13016993464333" y="-312.0"/>
    </contour>
  </outline>
</glyph>
<glyph name="asciitilde" format="2">
  <advance width="1303"/>
  <unicode hex="007E"/>
  <outline>
    <contour>
      <point x="185.24183006535668" y="576.4333333333334" type="qcurve"/>
      <point x="185.24183006535668" y="703.9" type="line"/>
      <point x="232.05915032678334" y="746.3"/>
      <point x="364.0029411764917" y="792.55"/>
      <point x="429.087254901965" y="793.55" type="qcurve" smooth="yes"/>
      <point x="469.05" y="794.55"/>
      <point x="593.62320261441" y="757.4660130719067"/>
      <point x="655.49901960786" y="735.82483660131" type="qcurve" smooth="yes"/>
      <point x="715.74967320262" y="715.45065359476"/>
      <point x="839.9977124182683" y="677.35"/>
      <point x="880.2441176470884" y="677.35" type="qcurve" smooth="yes"/>
      <point x="945.3284313725617" y="677.35"/>
      <point x="1070.4970588235083" y="733.1666666666666"/>
      <point x="1117.314379084935" y="782.4166666666666" type="qcurve"/>
      <point x="1117.314379084935" y="653.2333333333333" type="line"/>
      <point x="1070.4970588235083" y="611.55"/>
      <point x="946.3284313725617" y="563.5833333333334"/>
      <point x="881.2441176470884" y="563.5833333333334" type="qcurve" smooth="yes"/>
      <point x="844.8058823529116" y="563.5833333333334"/>
      <point x="734.3993464052401" y="594.5173202614267"/>
      <point x="679.3901960784567" y="612.7415032679767" type="qcurve" smooth="yes"/>
      <point x="612.2728758169583" y="636.5326797385733"/>
      <point x="472.85816993464334" y="680.5"/>
      <point x="429.087254901965" y="680.5" type="qcurve" smooth="yes"/>
      <point x="364.0029411764917" y="680.5"/>
      <point x="232.05915032678334" y="625.6833333333334"/>
    </contour>
  </outline>
</glyph>
<glyph name="exclamdown" format="2">
  <advance width="543"/>
  <unicode hex="00A1"/>
  <outline>
    <contour>
      <point x="357.31666666666666" y="1073.0666666666666" type="qcurve" smooth="yes"/>
      <point x="357.31666666666666" y="1032.6666666666667"/>
      <point x="312.6666666666667" y="975.5666666666667"/>
      <point x="271.3" y="975.5666666666667" type="qcurve" smooth="yes"/>
      <point x="229.93333333333334" y="975.5666666666667"/>
      <point x="186.0" y="1032.6666666666667"/>
      <point x="186.0" y="1073.0666666666666" type="qcurve" smooth="yes"/>
      <point x="186.0" y="1113.4666666666667"/>
      <point x="229.93333333333334" y="1170.5666666666666"/>
      <point x="271.3" y="1170.5666666666666" type="qcurve" smooth="yes"/>
      <point x="312.6666666666667" y="1170.5666666666666"/>
      <point x="357.31666666666666" y="1113.4666666666667"/>
    </contour>
    <contour>
      <point x="321.76666666666665" y="738.5666666666667" type="line"/>
      <point x="331.0333333333333" y="-307.43333333333334" type="line"/>
      <point x="211.56666666666666" y="-307.43333333333334" type="line"/>
      <point x="221.55" y="738.5666666666667" type="line"/>
    </contour>
  </outline>
</glyph>
<glyph name="cent" format="2">
  <advance width="1002"/>
  <unicode hex="00A2"/>
  <outline>
    <contour>
      <point x="559.9" y="236.85" type="qcurve" smooth="yes"/>
      <point x="709.7833333333333" y="236.85"/>
      <point x="863.0833333333334" y="388.1"/>
      <point x="865.0666666666667" y="502.03333333333336" type="qcurve"/>
      <point x="980.15" y="502.03333333333336" type="line"/>
      <point x="977.8833333333333" y="355.1666666666667"/>
      <point x="756.7" y="132.15"/>
      <point x="559.9" y="132.15" type="qcurve" smooth="yes"/>
      <point x="331.23333333333335" y="132.15"/>
      <point x="79.33333333333333" y="440.3833333333333"/>
      <point x="79.33333333333333" y="672.15" type="qcurve" smooth="yes"/>
      <point x="79.33333333333333" y="706.9833333333333" type="line" smooth="yes"/>
      <point x="79.33333333333333" y="938.75"/>
      <point x="331.23333333333335" y="1246.9833333333333"/>
      <point x="559.9" y="1246.9833333333333" type="qcurve" smooth="yes"/>
      <point x="761.8" y="1246.9833333333333"/>
      <point x="978.1666666666666" y="1021.7"/>
      <point x="980.15" y="868.6" type="qcurve"/>
      <point x="865.0666666666667" y="868.6" type="line"/>
      <point x="863.0833333333334" y="984.8"/>
      <point x="712.9" y="1142.2833333333333"/>
      <point x="559.9" y="1142.2833333333333" type="qcurve" smooth="yes"/>
      <point x="371.26666666666665" y="1142.2833333333333"/>
      <point x="200.11666666666667" y="887.8333333333334"/>
      <point x="200.11666666666667" y="706.9833333333333" type="qcurve" smooth="yes"/>
      <point x="200.11666666666667" y="672.15" type="line" smooth="yes"/>
      <point x="200.11666666666667" y="490.01666666666665"/>
      <point x="372.85" y="236.85"/>
    </contour>
    <contour>
      <point x="481.9" y="0.0" type="line"/>
      <point x="481.9" y="208.33333333333334" type="line"/>
      <point x="484.03333333333336" y="222.33333333333334" type="line"/>
      <point x="484.03333333333336" y="708.0" type="line"/>
      <point x="581.0333333333333" y="708.0" type="line"/>
      <point x="581.0333333333333" y="221.33333333333334" type="line"/>
      <point x="583.1666666666666" y="211.33333333333334" type="line"/>
      <point x="583.1666666666666" y="0.0" type="line"/>
    </contour>
    <contour>
      <point x="484.03333333333336" y="708.0" type="line"/>
      <point x="484.03333333333336" y="1182.0" type="line"/>
      <point x="481.9" y="1192.0" type="line"/>
      <point x="481.9" y="1402.0" type="line"/>
      <point x="583.1666666666666" y="1402.0" type="line"/>
      <point x="583.1666666666666" y="1192.0" type="line"/>
      <point x="581.0333333333333" y="1179.0" type="line"/>
      <point x="581.0333333333333" y="708.0" type="line"/>
    </contour>
  </outline>
</glyph>
<glyph name="sterling" format="2">
  <advance width="961"/>
  <unicode hex="00A3"/>
  <outline>
    <contour>
      <point x="963.5" y="0.0" type="line"/>
      <point x="36.0" y="0.0" type="line"/>
      <point x="36.0" y="97.65" type="line"/>
      <point x="77.66666666666667" y="97.65" type="line" smooth="yes"/>
      <point x="189.73333333333332" y="97.65"/>
      <point x="316.31666666666666" y="286.73333333333335"/>
      <point x="298.73333333333335" y="436.9" type="qcurve" smooth="yes"/>
      <point x="227.96666666666667" y="1039.0" type="line" smooth="yes"/>
      <point x="203.51666666666665" y="1248.0666666666666"/>
      <point x="383.5833333333333" y="1482.45"/>
      <point x="573.1166666666667" y="1482.45" type="qcurve" smooth="yes"/>
      <point x="743.7666666666667" y="1482.45"/>
      <point x="930.25" y="1298.6666666666667"/>
      <point x="930.25" y="1131.6666666666667" type="qcurve" smooth="yes"/>
      <point x="930.25" y="1115.6666666666667" type="line"/>
      <point x="816.3666666666667" y="1115.6666666666667" type="line"/>
      <point x="816.3666666666667" y="1131.6666666666667" type="line" smooth="yes"/>
      <point x="812.92385620917" y="1266.7333333333333"/>
      <point x="687.1833333333333" y="1374.9333333333334"/>
      <point x="575.1166666666667" y="1374.9333333333334" type="qcurve" smooth="yes"/>
      <point x="455.9" y="1374.9333333333334"/>
      <point x="328.15" y="1236.6"/>
      <point x="347.8833333333333" y="1039.0" type="qcurve" smooth="yes"/>
      <point x="405.3333333333333" y="463.56666666666666" type="line" smooth="yes"/>
      <point x="419.05" y="327.56666666666666"/>
      <point x="348.2833333333333" y="147.51666666666665"/>
      <point x="278.2833333333333" y="106.51666666666667" type="qcurve"/>
      <point x="963.5" y="106.51666666666667" type="line"/>
    </contour>
    <contour>
      <point x="788.1666666666666" y="679.4666666666667" type="line"/>
      <point x="66.33333333333333" y="679.4666666666667" type="line"/>
      <point x="66.33333333333333" y="772.8333333333334" type="line"/>
      <point x="788.1666666666666" y="772.8333333333334" type="line"/>
    </contour>
  </outline>
</glyph>
<glyph name="currency" format="2">
  <advance width="1158"/>
  <unicode hex="00A4"/>
  <guideline x="0" y="901.0" angle="0" identifier="bRYxxRaQQf"/>
  <guideline x="0" y="555.0" angle="0" identifier="917FhrihjR"/>
  <outline>
    <contour>
      <point x="235.91666666666666" y="712.0" type="qcurve"/>
      <point x="235.91666666666666" y="559.1166666666667"/>
      <point x="434.25" y="354.3666666666667"/>
      <point x="576.0" y="354.3666666666667" type="qcurve" smooth="yes"/>
      <point x="716.75" y="354.3666666666667"/>
      <point x="914.0833333333334" y="559.1166666666667"/>
      <point x="914.0833333333334" y="712.0" type="qcurve" smooth="yes"/>
      <point x="914.0833333333334" y="862.8833333333333"/>
      <point x="716.75" y="1067.6333333333334"/>
      <point x="576.0" y="1067.6333333333334" type="qcurve" smooth="yes"/>
      <point x="434.25" y="1067.6333333333334"/>
      <point x="235.91666666666666" y="862.8833333333333"/>
    </contour>
    <contour>
      <point x="118.13333333333333" y="718.0" type="qcurve"/>
      <point x="118.13333333333333" y="915.0833333333334"/>
      <point x="389.76666666666665" y="1183.4333333333334"/>
      <point x="575.0" y="1183.4333333333334" type="qcurve" smooth="yes"/>
      <point x="760.2333333333333" y="1183.4333333333334"/>
      <point x="1031.8666666666666" y="915.0833333333334"/>
      <point x="1031.8666666666666" y="718.0" type="qcurve" smooth="yes"/>
      <point x="1031.8666666666666" y="521.2"/>
      <point x="760.2333333333333" y="250.56666666666666"/>
      <point x="575.0" y="250.56666666666666" type="qcurve" smooth="yes"/>
      <point x="389.76666666666665" y="250.56666666666666"/>
      <point x="118.13333333333333" y="521.2"/>
    </contour>
    <contour>
      <point x="1097.5" y="1198.9333333333334" type="line"/>
      <point x="895.5" y="992.9333333333333" type="line"/>
      <point x="817.2166666666667" y="1074.7833333333333" type="line"/>
      <point x="1019.2166666666667" y="1280.7833333333333" type="line"/>
    </contour>
    <contour>
      <point x="313.5" y="376.93333333333334" type="line"/>
      <point x="111.5" y="170.93333333333334" type="line"/>
      <point x="34.21666666666667" y="251.78333333333333" type="line"/>
      <point x="236.21666666666667" y="456.7833333333333" type="line"/>
    </contour>
    <contour>
      <point x="1045.2166666666667" y="177.93333333333334" type="line"/>
      <point x="843.2166666666667" y="383.93333333333334" type="line"/>
      <point x="922.5" y="464.7833333333333" type="line"/>
      <point x="1124.5" y="259.7833333333333" type="line"/>
    </contour>
    <contour>
      <point x="253.21666666666667" y="1006.9333333333333" type="line"/>
      <point x="51.21666666666667" y="1212.9333333333334" type="line"/>
      <point x="128.5" y="1293.7833333333333" type="line"/>
      <point x="330.5" y="1087.7833333333333" type="line"/>
    </contour>
  </outline>
</glyph>
<glyph name="yen" format="2">
  <advance width="1056"/>
  <unicode hex="00A5"/>
  <outline>
    <contour>
      <point x="73.33333333333333" y="339.6666666666667" type="line"/>
      <point x="73.33333333333333" y="441.3333333333333" type="line"/>
      <point x="990.6666666666666" y="441.3333333333333" type="line"/>
      <point x="990.6666666666666" y="339.6666666666667" type="line"/>
    </contour>
    <contour>
      <point x="73.33333333333333" y="642.5" type="line"/>
      <point x="73.33333333333333" y="739.1666666666666" type="line"/>
      <point x="425.0" y="739.1666666666666" type="line"/>
      <point x="478.0" y="669.0" type="line"/>
      <point x="587.0" y="669.0" type="line"/>
      <point x="635.0" y="739.1666666666666" type="line"/>
      <point x="990.6666666666666" y="739.1666666666666" type="line"/>
      <point x="990.6666666666666" y="642.5" type="line"/>
    </contour>
    <contour>
      <point x="472.55" y="0.0" type="line"/>
      <point x="472.55" y="572.3666666666667" type="line"/>
      <point x="9.666666666666668" y="1456.0" type="line"/>
      <point x="143.41666666666666" y="1456.0" type="line"/>
      <point x="466.0" y="806.0" type="line" smooth="yes"/>
      <point x="481.43333333333334" y="775.2833333333333"/>
      <point x="505.8333333333333" y="716.0"/>
      <point x="520.0" y="679.0" type="qcurve"/>
      <point x="540.0" y="679.0" type="line"/>
      <point x="561.9" y="735.0"/>
      <point x="579.2833333333333" y="776.0"/>
      <point x="594.0" y="806.0" type="qcurve" smooth="yes"/>
      <point x="917.0" y="1456.0" type="line"/>
      <point x="1046.3333333333333" y="1456.0" type="line"/>
      <point x="584.8833333333333" y="572.3666666666667" type="line"/>
      <point x="584.8833333333333" y="0.0" type="line"/>
    </contour>
  </outline>
</glyph>
<glyph name="section" format="2">
  <advance width="1256"/>
  <unicode hex="00A7"/>
  <guideline x="0" y="1658.0" angle="0" identifier="QzZ5gIiCyn"/>
  <guideline x="0" y="578.0" angle="0" identifier="9Hxjf2sdFw"/>
  <outline>
    <contour>
      <point x="710.35" y="135.15" type="qcurve"/>
      <point x="710.35" y="224.76666666666665" type="line"/>
      <point x="844.7166666666667" y="236.23333333333332"/>
      <point x="997.0" y="380.3"/>
      <point x="997.0" y="480.9166666666667" type="qcurve"/>
      <point x="997.0" y="581.0833333333334"/>
      <point x="844.3333333333334" y="709.9833333333333"/>
      <point x="629.65" y="770.55" type="qcurve" smooth="yes"/>
      <point x="412.28333333333336" y="831.2666666666667"/>
      <point x="212.48333333333335" y="992.0"/>
      <point x="212.48333333333335" y="1141.9" type="qcurve" smooth="yes"/>
      <point x="212.48333333333335" y="1296.4"/>
      <point x="436.76666666666665" y="1490.0"/>
      <point x="624.4333333333333" y="1490.2833333333333" type="qcurve" smooth="yes"/>
      <point x="803.8166666666667" y="1490.5666666666666"/>
      <point x="1027.8166666666666" y="1281.9664179104616"/>
      <point x="1027.5333333333333" y="1105.0166666666667" type="qcurve"/>
      <point x="919.8666666666667" y="1105.0166666666667" type="line"/>
      <point x="920.15" y="1228.6666666666667"/>
      <point x="756.9" y="1390.75"/>
      <point x="624.4333333333333" y="1390.75" type="qcurve" smooth="yes"/>
      <point x="473.68333333333334" y="1390.75"/>
      <point x="325.1666666666667" y="1256.9166666666667"/>
      <point x="325.1666666666667" y="1145.0166666666667" type="qcurve" smooth="yes"/>
      <point x="325.1666666666667" y="1049.7166666666667"/>
      <point x="473.96666666666664" y="933.05"/>
      <point x="692.6" y="871.9166666666666" type="qcurve" smooth="yes"/>
      <point x="906.7" y="812.4833333333333"/>
      <point x="1114.2166666666667" y="638.3833333333333"/>
      <point x="1114.2166666666667" y="485.1666666666667" type="qcurve" smooth="yes"/>
      <point x="1114.2166666666667" y="336.5"/>
      <point x="890.0666666666667" y="146.61666666666667"/>
    </contour>
    <contour>
      <point x="507.6166666666667" y="911.9166666666666" type="qcurve"/>
      <point x="507.3333333333333" y="814.7666666666667" type="line"/>
      <point x="380.56666666666666" y="804.0166666666667"/>
      <point x="254.41666666666666" y="666.2"/>
      <point x="254.41666666666666" y="563.4166666666666" type="qcurve" smooth="yes"/>
      <point x="254.41666666666666" y="467.65"/>
      <point x="407.5833333333333" y="342.56666666666666"/>
      <point x="619.5166666666667" y="277.5833333333333" type="qcurve" smooth="yes"/>
      <point x="828.4833333333333" y="214.01666666666665"/>
      <point x="1025.0666666666666" y="33.75"/>
      <point x="1025.0666666666666" y="-126.61666666666667" type="qcurve" smooth="yes"/>
      <point x="1025.0666666666666" y="-296.56666666666666"/>
      <point x="781.1" y="-506.1333333333333"/>
      <point x="586.8166666666667" y="-506.1333333333333" type="qcurve" smooth="yes"/>
      <point x="392.53333333333336" y="-506.1333333333333"/>
      <point x="147.48333333333335" y="-292.93457711443"/>
      <point x="147.48333333333335" y="-89.91666666666667" type="qcurve"/>
      <point x="255.58333333333334" y="-89.35" type="line"/>
      <point x="255.58333333333334" y="-237.16666666666666"/>
      <point x="450.0" y="-404.45"/>
      <point x="586.8166666666667" y="-404.45" type="qcurve" smooth="yes"/>
      <point x="736.0666666666667" y="-404.45"/>
      <point x="913.3833333333333" y="-252.6"/>
      <point x="913.3833333333333" y="-133.13333333333333" type="qcurve" smooth="yes"/>
      <point x="913.3833333333333" y="-26.4"/>
      <point x="769.95" y="110.48333333333333"/>
      <point x="552.9" y="175.33333333333334" type="qcurve" smooth="yes"/>
      <point x="340.6666666666667" y="237.76666666666668"/>
      <point x="137.63333333333333" y="417.85"/>
      <point x="137.63333333333333" y="566.25" type="qcurve" smooth="yes"/>
      <point x="137.63333333333333" y="709.8"/>
      <point x="343.46666666666664" y="899.7333333333333"/>
    </contour>
  </outline>
</glyph>
<glyph name="dieresis" format="2">
  <advance width="1024"/>
  <unicode hex="00A8"/>
  <outline>
    <contour>
      <point x="209.21666666666667" y="1290.9333333333334" type="qcurve" smooth="yes"/>
      <point x="209.21666666666667" y="1326.6166666666666"/>
      <point x="253.75" y="1376.4333333333334"/>
      <point x="296.0" y="1376.4333333333334" type="qcurve" smooth="yes"/>
      <point x="339.25" y="1376.4333333333334"/>
      <point x="383.7833333333333" y="1326.6166666666666"/>
      <point x="383.7833333333333" y="1290.9333333333334" type="qcurve" smooth="yes"/>
      <point x="383.7833333333333" y="1255.8166666666666"/>
      <point x="339.25" y="1207.0"/>
      <point x="296.0" y="1207.0" type="qcurve" smooth="yes"/>
      <point x="253.75" y="1207.0"/>
      <point x="209.21666666666667" y="1255.8166666666666"/>
    </contour>
    <contour>
      <point x="640.2166666666667" y="1288.9333333333334" type="qcurve" smooth="yes"/>
      <point x="640.2166666666667" y="1324.6166666666666"/>
      <point x="684.4666666666667" y="1374.4333333333334"/>
      <point x="727.0" y="1374.4333333333334" type="qcurve" smooth="yes"/>
      <point x="769.25" y="1374.4333333333334"/>
      <point x="814.7833333333333" y="1324.6166666666666"/>
      <point x="814.7833333333333" y="1288.9333333333334" type="qcurve" smooth="yes"/>
      <point x="814.7833333333333" y="1253.8166666666666"/>
      <point x="769.25" y="1205.0"/>
      <point x="727.0" y="1205.0" type="qcurve" smooth="yes"/>
      <point x="684.4666666666667" y="1205.0"/>
      <point x="640.2166666666667" y="1253.8166666666666"/>
    </contour>
  </outline>
</glyph>
<glyph name="copyright" format="2">
  <advance width="1654"/>
  <unicode hex="00A9"/>
  <guideline x="0" y="901.0" angle="0" identifier="0Pjz0qKr8z"/>
  <guideline x="0" y="555.0" angle="0" identifier="sJo8BlDiJ7"/>
  <outline>
    <contour>
      <point x="1090.9166666666667" y="529.5166666666667" type="qcurve"/>
      <point x="1202.6833333333334" y="529.5166666666667" type="line"/>
      <point x="1202.6833333333334" y="392.2"/>
      <point x="1007.8166666666667" y="205.0"/>
      <point x="833.7833333333333" y="205.0" type="qcurve" smooth="yes"/>
      <point x="647.7333333333333" y="205.0"/>
      <point x="426.1666666666667" y="458.5"/>
      <point x="426.1666666666667" y="670.45" type="qcurve" smooth="yes"/>
      <point x="426.1666666666667" y="701.5666666666667" type="line" smooth="yes"/>
      <point x="426.1666666666667" y="913.8"/>
      <point x="648.0166666666667" y="1168.5666666666666"/>
      <point x="838.6" y="1168.5666666666666" type="qcurve" smooth="yes"/>
      <point x="1019.15" y="1168.5666666666666"/>
      <point x="1202.9666666666667" y="976.55"/>
      <point x="1202.9666666666667" y="844.05" type="qcurve"/>
      <point x="1091.2" y="844.05" type="line"/>
      <point x="1091.2" y="938.5"/>
      <point x="968.85" y="1070.5"/>
      <point x="838.3166666666667" y="1070.5" type="qcurve" smooth="yes"/>
      <point x="689.75" y="1070.5"/>
      <point x="544.6333333333333" y="867.2833333333333"/>
      <point x="544.6333333333333" y="714.0333333333333" type="qcurve" smooth="yes"/>
      <point x="544.6333333333333" y="658.2666666666667" type="line" smooth="yes"/>
      <point x="544.6333333333333" y="504.01666666666665"/>
      <point x="694.45" y="301.0833333333333"/>
      <point x="840.8666666666667" y="301.0833333333333" type="qcurve" smooth="yes"/>
      <point x="971.4" y="301.0833333333333"/>
      <point x="1090.9166666666667" y="434.7833333333333"/>
    </contour>
    <contour>
      <point x="150.88333333333333" y="687.0" type="qcurve" smooth="yes"/>
      <point x="150.88333333333333" y="374.2"/>
      <point x="536.4833333333333" y="-36.85"/>
      <point x="828.0" y="-36.85" type="qcurve" smooth="yes"/>
      <point x="1118.5166666666667" y="-36.85"/>
      <point x="1503.4" y="374.2"/>
      <point x="1503.4" y="687.0" type="qcurve" smooth="yes"/>
      <point x="1503.4" y="999.3666666666667"/>
      <point x="1118.5166666666667" y="1408.5666666666666"/>
      <point x="828.0" y="1408.5666666666666" type="qcurve" smooth="yes"/>
      <point x="536.4833333333333" y="1408.5666666666666"/>
      <point x="150.88333333333333" y="999.3666666666667"/>
    </contour>
    <contour>
      <point x="45.166666666666664" y="687.0" type="qcurve" smooth="yes"/>
      <point x="45.166666666666664" y="1039.0"/>
      <point x="501.0" y="1511.8333333333333"/>
      <point x="827.0" y="1511.8333333333333" type="qcurve" smooth="yes"/>
      <point x="1152.0" y="1511.8333333333333"/>
      <point x="1608.8333333333333" y="1039.0"/>
      <point x="1608.8333333333333" y="687.0" type="qcurve" smooth="yes"/>
      <point x="1608.8333333333333" y="337.0"/>
      <point x="1152.0" y="-139.83333333333334"/>
      <point x="827.0" y="-139.83333333333334" type="qcurve" smooth="yes"/>
      <point x="501.0" y="-139.83333333333334"/>
      <point x="45.166666666666664" y="337.0"/>
    </contour>
  </outline>
</glyph>
<glyph name="ordfeminine" format="2">
  <advance width="916"/>
  <unicode hex="00AA"/>
  <guideline x="0" y="1681.0" angle="0" identifier="3CJlALCfkl"/>
  <guideline x="0" y="909.0" angle="0" identifier="Zdl6NZVQAy"/>
  <outline>
    <contour>
      <point x="626.0666666666667" y="862.0" type="line"/>
      <point x="626.0666666666667" y="821.0"/>
      <point x="646.0666666666667" y="736.0"/>
      <point x="669.0666666666667" y="706.0" type="qcurve"/>
      <point x="755.3333333333334" y="706.0" type="line"/>
      <point x="741.3333333333334" y="749.0"/>
      <point x="729.3333333333334" y="838.0"/>
      <point x="729.3333333333334" y="887.0" type="qcurve" smooth="yes"/>
      <point x="729.3333333333334" y="1201.0" type="line" smooth="yes"/>
      <point x="729.3333333333334" y="1335.1333333333334"/>
      <point x="589.6833333333333" y="1477.0"/>
      <point x="464.0" y="1477.0" type="qcurve" smooth="yes"/>
      <point x="347.03333333333336" y="1477.0"/>
      <point x="193.66666666666666" y="1351.7"/>
      <point x="193.66666666666666" y="1253.8333333333333" type="qcurve" smooth="yes"/>
      <point x="193.66666666666666" y="1234.0" type="line"/>
      <point x="292.76666666666665" y="1234.0" type="line"/>
      <point x="292.76666666666665" y="1247.0" type="line" smooth="yes"/>
      <point x="292.76666666666665" y="1311.35"/>
      <point x="382.1" y="1385.4166666666667"/>
      <point x="466.0" y="1385.4166666666667" type="qcurve" smooth="yes"/>
      <point x="543.0333333333333" y="1385.4166666666667"/>
      <point x="626.0666666666667" y="1290.3333333333333"/>
      <point x="626.0666666666667" y="1202.0" type="qcurve" smooth="yes"/>
    </contour>
    <contour>
      <point x="663.6666666666666" y="1141.8333333333333" type="line"/>
      <point x="477.0" y="1141.8333333333333" type="line" smooth="yes"/>
      <point x="326.6333333333333" y="1141.8333333333333"/>
      <point x="169.66666666666666" y="1025.1333333333334"/>
      <point x="169.66666666666666" y="918.0" type="qcurve" smooth="yes"/>
      <point x="169.66666666666666" y="818.15"/>
      <point x="300.25" y="692.0"/>
      <point x="408.5" y="692.0" type="qcurve" smooth="yes"/>
      <point x="501.6166666666667" y="692.0"/>
      <point x="634.7666666666667" y="790.15"/>
      <point x="665.3666666666667" y="858.5" type="qcurve"/>
      <point x="647.3666666666667" y="963.3333333333334" type="line"/>
      <point x="647.3666666666667" y="903.1166666666667"/>
      <point x="515.8" y="782.5833333333334"/>
      <point x="426.0" y="782.5833333333334" type="qcurve" smooth="yes"/>
      <point x="357.7" y="782.5833333333334"/>
      <point x="272.9166666666667" y="863.2333333333333"/>
      <point x="272.9166666666667" y="922.0" type="qcurve" smooth="yes"/>
      <point x="272.9166666666667" y="984.05"/>
      <point x="380.1166666666667" y="1059.9166666666667"/>
      <point x="478.0" y="1056.3333333333333" type="qcurve" smooth="yes"/>
      <point x="663.6666666666666" y="1056.3333333333333" type="line"/>
    </contour>
  </outline>
</glyph>
<glyph name="guillemotleft" format="2">
  <advance width="1092"/>
  <unicode hex="00AB"/>
  <guideline x="0" y="901.0" angle="0" identifier="ZftBQarVKw"/>
  <guideline x="0" y="555.0" angle="0" identifier="MVJpdoVRVd"/>
  <outline>
    <contour>
      <point x="122.33333333333333" y="529.1666666666666" type="line"/>
      <point x="122.33333333333333" y="573.8333333333334" type="line"/>
      <point x="417.3333333333333" y="949.0" type="line"/>
      <point x="535.6166666666667" y="949.0" type="line"/>
      <point x="246.08333333333334" y="551.0" type="line"/>
      <point x="535.6166666666667" y="153.0" type="line"/>
      <point x="417.3333333333333" y="153.0" type="line"/>
    </contour>
    <contour>
      <point x="562.3333333333334" y="529.1666666666666" type="line"/>
      <point x="562.3333333333334" y="573.8333333333334" type="line"/>
      <point x="857.3333333333334" y="949.0" type="line"/>
      <point x="975.6166666666667" y="949.0" type="line"/>
      <point x="686.0833333333334" y="551.0" type="line"/>
      <point x="975.6166666666667" y="153.0" type="line"/>
      <point x="857.3333333333334" y="153.0" type="line"/>
    </contour>
  </outline>
</glyph>
<glyph name="logicalnot" format="2">
  <advance width="1024"/>
  <unicode hex="00AC"/>
  <outline>
    <contour>
      <point x="913.6666666666666" y="786.6666666666666" type="line"/>
      <point x="913.6666666666666" y="376.0" type="line"/>
      <point x="801.05" y="376.0" type="line"/>
      <point x="801.05" y="677.85" type="line"/>
      <point x="58.0" y="677.85" type="line"/>
      <point x="58.0" y="786.6666666666666" type="line"/>
    </contour>
  </outline>
</glyph>
<glyph name="registered" format="2">
  <advance width="1654"/>
  <unicode hex="00AE"/>
  <outline>
    <contour>
      <point x="45.166666666666664" y="687.0" type="qcurve" smooth="yes"/>
      <point x="45.166666666666664" y="1039.0"/>
      <point x="501.0" y="1511.8333333333333"/>
      <point x="827.0" y="1511.8333333333333" type="qcurve" smooth="yes"/>
      <point x="1152.0" y="1511.8333333333333"/>
      <point x="1608.8333333333333" y="1039.0"/>
      <point x="1608.8333333333333" y="687.0" type="qcurve" smooth="yes"/>
      <point x="1608.8333333333333" y="337.0"/>
      <point x="1152.0" y="-139.83333333333334"/>
      <point x="827.0" y="-139.83333333333334" type="qcurve" smooth="yes"/>
      <point x="501.0" y="-139.83333333333334"/>
      <point x="45.166666666666664" y="337.0"/>
    </contour>
    <contour>
      <point x="150.88333333333333" y="687.0" type="qcurve" smooth="yes"/>
      <point x="150.88333333333333" y="374.2"/>
      <point x="536.4833333333333" y="-36.85"/>
      <point x="828.0" y="-36.85" type="qcurve" smooth="yes"/>
      <point x="1118.5166666666667" y="-36.85"/>
      <point x="1503.4" y="374.2"/>
      <point x="1503.4" y="687.0" type="qcurve" smooth="yes"/>
      <point x="1503.4" y="999.3666666666667"/>
      <point x="1118.5166666666667" y="1408.5666666666666"/>
      <point x="828.0" y="1408.5666666666666" type="qcurve" smooth="yes"/>
      <point x="536.4833333333333" y="1408.5666666666666"/>
      <point x="150.88333333333333" y="999.3666666666667"/>
    </contour>
    <contour>
      <point x="886.5333333333333" y="604.8833333333333" type="line"/>
      <point x="622.4333333333333" y="604.8833333333333" type="line"/>
      <point x="622.4333333333333" y="225.0" type="line"/>
      <point x="513.3333333333334" y="225.0" type="line"/>
      <point x="513.3333333333334" y="1158.0" type="line"/>
      <point x="821.0" y="1158.0" type="line" smooth="yes"/>
      <point x="993.0" y="1158.0"/>
      <point x="1182.6666666666667" y="1018.0"/>
      <point x="1182.6666666666667" y="884.8833333333333" type="qcurve" smooth="yes"/>
      <point x="1182.6666666666667" y="775.4666666666667"/>
      <point x="1070.0833333333333" y="647.8833333333333"/>
      <point x="970.4" y="625.8833333333333" type="qcurve"/>
      <point x="992.0833333333334" y="602.8833333333333"/>
      <point x="1024.9666666666667" y="553.2666666666667"/>
      <point x="1041.25" y="522.8333333333334" type="qcurve" smooth="yes"/>
      <point x="1193.7666666666667" y="243.0" type="line"/>
      <point x="1193.7666666666667" y="225.0" type="line"/>
      <point x="1081.4166666666667" y="225.0" type="line"/>
    </contour>
    <contour>
      <point x="822.0" y="1055.0166666666667" type="qcurve" smooth="yes"/>
      <point x="622.4333333333333" y="1055.0166666666667" type="line"/>
      <point x="622.4333333333333" y="703.6" type="line"/>
      <point x="847.0" y="703.6" type="line" smooth="yes"/>
      <point x="962.2833333333333" y="703.6"/>
      <point x="1068.3166666666666" y="792.85"/>
      <point x="1068.3166666666666" y="874.7666666666667" type="qcurve" smooth="yes"/>
      <point x="1068.3166666666666" y="965.0833333333334"/>
      <point x="947.8833333333333" y="1054.7333333333333"/>
    </contour>
  </outline>
</glyph>
<glyph name="macron" format="2">
  <advance width="1024"/>
  <unicode hex="00AF"/>
  <outline>
    <contour>
      <point x="811.6666666666666" y="1381.2666666666667" type="line"/>
      <point x="811.6666666666666" y="1278.0" type="line"/>
      <point x="212.33333333333334" y="1278.0" type="line"/>
      <point x="212.33333333333334" y="1381.2666666666667" type="line"/>
    </contour>
  </outline>
</glyph>
<glyph name="degree" format="2">
  <advance width="765"/>
  <unicode hex="00B0"/>
  <outline>
    <contour>
      <point x="145.33333333333334" y="1232.7666666666667" type="qcurve"/>
      <point x="145.33333333333334" y="1332.3166666666666"/>
      <point x="287.86546678375333" y="1477.0"/>
      <point x="385.28333333333336" y="1477.0" type="qcurve" smooth="yes"/>
      <point x="481.8259925861117" y="1477.0"/>
      <point x="621.2333333333333" y="1332.308208955215"/>
      <point x="621.2333333333333" y="1232.7666666666667" type="qcurve" smooth="yes"/>
      <point x="621.2333333333333" y="1132.2970149253867"/>
      <point x="481.8291044776217" y="991.5333333333333"/>
      <point x="385.28333333333336" y="991.5333333333333" type="qcurve" smooth="yes"/>
      <point x="287.80945273631335" y="991.5333333333333"/>
      <point x="145.33333333333334" y="1132.2166666666667"/>
    </contour>
    <contour>
      <point x="240.66666666666666" y="1232.7666666666667" type="qcurve"/>
      <point x="240.66666666666666" y="1172.0800117062"/>
      <point x="326.21065261922666" y="1090.15"/>
      <point x="385.28333333333336" y="1090.15" type="qcurve" smooth="yes"/>
      <point x="445.0726807141067" y="1090.15"/>
      <point x="525.9" y="1172.0800117062"/>
      <point x="525.9" y="1232.7666666666667" type="qcurve" smooth="yes"/>
      <point x="525.9" y="1294.5062237830634"/>
      <point x="445.0726807141067" y="1378.3833333333334"/>
      <point x="385.28333333333336" y="1378.3833333333334" type="qcurve" smooth="yes"/>
      <point x="326.21065261922666" y="1378.3833333333334"/>
      <point x="240.66666666666666" y="1294.5062237830634"/>
    </contour>
  </outline>
</glyph>
<glyph name="plusminus" format="2">
  <advance width="1024"/>
  <unicode hex="00B1"/>
  <outline>
    <contour>
      <point x="57.0" y="639.6666666666666" type="line"/>
      <point x="57.0" y="747.7666666666667" type="line"/>
      <point x="967.0" y="747.7666666666667" type="line"/>
      <point x="967.0" y="639.6666666666666" type="line"/>
    </contour>
    <contour>
      <point x="457.1166666666667" y="248.0" type="line"/>
      <point x="457.1166666666667" y="1160.0" type="line"/>
      <point x="569.75" y="1160.0" type="line"/>
      <point x="569.75" y="248.0" type="line"/>
    </contour>
    <contour>
      <point x="57.0" y="1.0" type="line"/>
      <point x="57.0" y="109.1" type="line"/>
      <point x="967.0" y="109.1" type="line"/>
      <point x="967.0" y="1.0" type="line"/>
    </contour>
  </outline>
</glyph>
<glyph name="twosuperior" format="2">
  <advance width="722"/>
  <unicode hex="00B2"/>
  <outline>
    <contour>
      <point x="99.33333333333333" y="697.0" type="line"/>
      <point x="99.33333333333333" y="790.6666666666666" type="line"/>
      <point x="357.95" y="1036.6166666666666" type="line" smooth="yes"/>
      <point x="424.51666666666665" y="1099.7666666666667"/>
      <point x="506.0833333333333" y="1211.7"/>
      <point x="506.0833333333333" y="1267.6333333333334" type="qcurve" smooth="yes"/>
      <point x="506.0833333333333" y="1322.8"/>
      <point x="434.01666666666665" y="1391.4333333333334"/>
      <point x="353.51666666666665" y="1391.4333333333334" type="qcurve" smooth="yes"/>
      <point x="269.1666666666667" y="1391.4333333333334"/>
      <point x="184.55" y="1310.9833333333333"/>
      <point x="186.26666666666665" y="1219.5" type="qcurve"/>
      <point x="82.05" y="1219.5" type="line"/>
      <point x="80.33333333333333" y="1349.0666666666666"/>
      <point x="223.28333333333333" y="1487.0"/>
      <point x="350.95" y="1487.0" type="qcurve" smooth="yes"/>
      <point x="477.7833333333333" y="1487.0"/>
      <point x="615.45" y="1367.6"/>
      <point x="615.45" y="1268.2" type="qcurve" smooth="yes"/>
      <point x="615.45" y="1174.5833333333333"/>
      <point x="488.6333333333333" y="1031.5166666666667"/>
      <point x="402.7833333333333" y="951.65" type="qcurve" smooth="yes"/>
      <point x="235.56666666666666" y="794.8333333333334" type="line"/>
      <point x="639.2833333333333" y="794.8333333333334" type="line"/>
      <point x="639.2833333333333" y="697.0" type="line"/>
    </contour>
  </outline>
</glyph>
<glyph name="threesuperior" format="2">
  <advance width="734"/>
  <unicode hex="00B3"/>
  <outline>
    <contour>
      <point x="89.51666666666667" y="927.1666666666666" type="qcurve"/>
      <point x="187.03333333333333" y="927.1666666666666" type="line"/>
      <point x="187.03333333333333" y="853.5"/>
      <point x="274.2" y="780.2833333333333"/>
      <point x="366.0" y="780.2833333333333" type="qcurve" smooth="yes"/>
      <point x="447.9" y="780.2833333333333"/>
      <point x="534.1166666666667" y="853.0666666666667"/>
      <point x="534.1166666666667" y="917.8333333333334" type="qcurve" smooth="yes"/>
      <point x="534.1166666666667" y="981.5833333333334"/>
      <point x="440.9166666666667" y="1058.1"/>
      <point x="360.75" y="1058.3833333333334" type="qcurve" smooth="yes"/>
      <point x="277.46666666666664" y="1058.3833333333334" type="line"/>
      <point x="277.46666666666664" y="1144.55" type="line"/>
      <point x="360.75" y="1144.55" type="line" smooth="yes"/>
      <point x="439.9166666666667" y="1145.2666666666667"/>
      <point x="518.25" y="1208.4333333333334"/>
      <point x="518.25" y="1269.3333333333333" type="qcurve" smooth="yes"/>
      <point x="518.25" y="1331.25"/>
      <point x="440.6" y="1394.8666666666666"/>
      <point x="364.43333333333334" y="1394.8666666666666" type="qcurve" smooth="yes"/>
      <point x="278.76666666666665" y="1394.8666666666666"/>
      <point x="198.03333333333333" y="1314.7666666666667"/>
      <point x="198.03333333333333" y="1248.8333333333333" type="qcurve"/>
      <point x="100.51666666666667" y="1248.8333333333333" type="line"/>
      <point x="100.51666666666667" y="1347.6833333333334"/>
      <point x="241.0" y="1487.0"/>
      <point x="364.3" y="1487.0" type="qcurve" smooth="yes"/>
      <point x="478.53333333333336" y="1487.0"/>
      <point x="620.1666666666666" y="1380.6"/>
      <point x="620.1666666666666" y="1280.2" type="qcurve" smooth="yes"/>
      <point x="620.1666666666666" y="1211.2833333333333"/>
      <point x="547.1333333333333" y="1125.7333333333333"/>
      <point x="485.7" y="1108.0333333333333" type="qcurve"/>
      <point x="555.1333333333333" y="1090.05"/>
      <point x="636.9" y="983.0"/>
      <point x="636.9" y="917.0" type="qcurve" smooth="yes"/>
      <point x="636.9" y="811.3"/>
      <point x="484.55" y="686.0"/>
      <point x="361.0" y="686.0" type="qcurve" smooth="yes"/>
      <point x="239.986601307205" y="686.0"/>
      <point x="89.51666666666667" y="810.7826797385733"/>
    </contour>
  </outline>
</glyph>
<glyph name="acute" format="2">
  <advance width="1024"/>
  <unicode hex="00B4"/>
  <outline>
    <contour>
      <point x="356.43333333333334" y="1249.8666666666666" type="line"/>
      <point x="607.4666666666667" y="1551.0333333333333" type="line"/>
      <point x="711.0166666666667" y="1479.7166666666667" type="line"/>
      <point x="412.73333333333335" y="1204.0" type="line"/>
    </contour>
  </outline>
</glyph>
<glyph name="micro" format="2">
  <advance width="1198"/>
  <unicode hex="00B5"/>
  <outline>
    <contour>
      <point x="277.8333333333333" y="1052.0" type="line"/>
      <point x="392.1666666666667" y="1052.0" type="line"/>
      <point x="260.1666666666667" y="371.0" type="line" smooth="yes"/>
      <point x="233.01666666666665" y="229.23333333333332"/>
      <point x="325.73333333333335" y="83.68333333333334"/>
      <point x="436.9" y="83.68333333333334" type="qcurve" smooth="yes"/>
      <point x="537.3666666666667" y="83.68333333333334"/>
      <point x="726.05" y="201.9"/>
      <point x="799.8333333333334" y="308.0" type="qcurve"/>
      <point x="943.8333333333334" y="1052.0" type="line"/>
      <point x="1058.1666666666667" y="1052.0" type="line"/>
      <point x="854.1666666666666" y="0.0" type="line"/>
      <point x="757.8333333333334" y="0.0" type="line"/>
      <point x="785.8666666666667" y="174.41666666666666" type="line"/>
      <point x="779.8666666666667" y="174.41666666666666" type="line"/>
      <point x="680.2" y="71.6"/>
      <point x="482.0" y="-20.0"/>
      <point x="392.75" y="-20.0" type="qcurve" smooth="yes"/>
      <point x="325.25" y="-20.0"/>
      <point x="228.03333333333333" y="47.25"/>
      <point x="209.78333333333333" y="109.36666666666667" type="qcurve"/>
      <point x="108.16666666666666" y="-416.0" type="line"/>
      <point x="-6.166666666666664" y="-416.0" type="line"/>
    </contour>
  </outline>
</glyph>
<glyph name="paragraph" format="2">
  <advance width="1179"/>
  <unicode hex="00B6"/>
  <guideline x="0" y="901.0" angle="0" identifier="27539Lsr1A"/>
  <guideline x="0" y="555.0" angle="0" identifier="e34wUdCmXR"/>
  <outline>
    <contour>
      <point x="634.8166666666666" y="-146.0" type="line"/>
      <point x="520.4833333333333" y="-146.0" type="line"/>
      <point x="520.4833333333333" y="800.6333333333333" type="line"/>
      <point x="445.6666666666667" y="800.6333333333333" type="line" smooth="yes"/>
      <point x="277.18333333333334" y="800.6333333333333"/>
      <point x="96.85" y="986.5333333333333"/>
      <point x="96.85" y="1128.3166666666666" type="qcurve" smooth="yes"/>
      <point x="96.85" y="1268.1"/>
      <point x="277.18333333333334" y="1456.0"/>
      <point x="445.6666666666667" y="1456.0" type="qcurve" smooth="yes"/>
      <point x="634.8166666666666" y="1456.0" type="line"/>
    </contour>
    <contour>
      <point x="848.4833333333333" y="1459.0" type="line"/>
      <point x="962.8166666666666" y="1459.0" type="line"/>
      <point x="962.8166666666666" y="-146.0" type="line"/>
      <point x="848.4833333333333" y="-146.0" type="line"/>
    </contour>
  </outline>
</glyph>
<glyph name="onesuperior" format="2">
  <advance width="646"/>
  <unicode hex="00B9"/>
  <outline>
    <contour>
      <point x="92.18333333333334" y="1261.1666666666667" type="line"/>
      <point x="92.18333333333334" y="1370.0" type="line"/>
      <point x="389.6333333333333" y="1486.0" type="line"/>
      <point x="420.01666666666665" y="1486.0" type="line"/>
      <point x="420.01666666666665" y="697.0" type="line"/>
      <point x="313.2" y="697.0" type="line"/>
      <point x="313.2" y="1343.9" type="line"/>
    </contour>
  </outline>
</glyph>
<glyph name="ordmasculine" format="2">
  <advance width="932"/>
  <unicode hex="00BA"/>
  <guideline x="0" y="1975.0" angle="0" identifier="Jnt0R9CyOf"/>
  <outline>
    <contour>
      <point x="144.5" y="1043.0" type="qcurve"/>
      <point x="144.5" y="1124.0" type="line"/>
      <point x="144.5" y="1278.0"/>
      <point x="308.20323383088" y="1477.0"/>
      <point x="465.0" y="1477.0" type="qcurve" smooth="yes"/>
      <point x="623.149751243795" y="1477.0"/>
      <point x="785.5" y="1277.86786654958"/>
      <point x="785.5" y="1124.0" type="qcurve"/>
      <point x="785.5" y="1043.0" type="line"/>
      <point x="785.5" y="889.13213345042"/>
      <point x="623.65729197155" y="691.0"/>
      <point x="467.0" y="691.0" type="qcurve" smooth="yes"/>
      <point x="308.747478294815" y="691.0"/>
      <point x="144.5" y="889.13213345042"/>
    </contour>
    <contour>
      <point x="253.03333333333333" y="1124.0" type="qcurve"/>
      <point x="253.03333333333333" y="1043.0" type="line"/>
      <point x="253.03333333333333" y="924.74464442493"/>
      <point x="362.9194371280567" y="784.85"/>
      <point x="467.0" y="784.85" type="qcurve" smooth="yes"/>
      <point x="568.8045702858317" y="784.85"/>
      <point x="677.25" y="924.74464442493"/>
      <point x="677.25" y="1043.0" type="qcurve"/>
      <point x="677.25" y="1124.0" type="line"/>
      <point x="677.25" y="1241.5712369524983"/>
      <point x="568.0468149448633" y="1380.4333333333334"/>
      <point x="465.0" y="1380.4333333333334" type="qcurve" smooth="yes"/>
      <point x="361.95318505513666" y="1380.4333333333334"/>
      <point x="253.03333333333333" y="1241.5712369524983"/>
    </contour>
  </outline>
</glyph>
<glyph name="guillemotright" format="2">
  <advance width="1092"/>
  <unicode hex="00BB"/>
  <guideline x="0" y="98.0" angle="0" identifier="MTEldNnfdj"/>
  <guideline x="0" y="443.0" angle="0" identifier="G9bQni2n1K"/>
  <outline>
    <contour>
      <point x="116.38333333333333" y="153.0" type="line"/>
      <point x="405.9166666666667" y="551.0" type="line"/>
      <point x="116.38333333333333" y="949.0" type="line"/>
      <point x="234.66666666666666" y="949.0" type="line"/>
      <point x="529.6666666666666" y="573.8333333333334" type="line"/>
      <point x="529.6666666666666" y="529.1666666666666" type="line"/>
      <point x="234.66666666666666" y="153.0" type="line"/>
    </contour>
    <contour>
      <point x="556.3833333333333" y="153.0" type="line"/>
      <point x="845.9166666666666" y="551.0" type="line"/>
      <point x="556.3833333333333" y="949.0" type="line"/>
      <point x="674.6666666666666" y="949.0" type="line"/>
      <point x="969.6666666666666" y="573.8333333333334" type="line"/>
      <point x="969.6666666666666" y="529.1666666666666" type="line"/>
      <point x="674.6666666666666" y="153.0" type="line"/>
    </contour>
  </outline>
</glyph>
<glyph name="questiondown" format="2">
  <advance width="968"/>
  <unicode hex="00BF"/>
  <guideline x="0" y="-181.0" angle="0" identifier="apukwP5ffL"/>
  <guideline x="0" y="921.0" angle="0" identifier="5ZPZZL8Rim"/>
  <outline>
    <contour>
      <point x="603.5666666666666" y="1072.5" type="qcurve" smooth="yes"/>
      <point x="603.5666666666666" y="1032.1"/>
      <point x="558.9166666666666" y="975.0"/>
      <point x="517.55" y="975.0" type="qcurve" smooth="yes"/>
      <point x="476.18333333333334" y="975.0"/>
      <point x="431.53333333333336" y="1032.1"/>
      <point x="431.53333333333336" y="1072.5" type="qcurve" smooth="yes"/>
      <point x="431.53333333333336" y="1112.9"/>
      <point x="476.18333333333334" y="1170.0"/>
      <point x="517.55" y="1170.0" type="qcurve" smooth="yes"/>
      <point x="558.9166666666666" y="1170.0"/>
      <point x="603.5666666666666" y="1112.9"/>
    </contour>
    <contour>
      <point x="837.05" y="53.0" type="line"/>
      <point x="837.05" y="33.0" type="line" smooth="yes"/>
      <point x="837.05" y="-130.56666666666666"/>
      <point x="647.8666666666667" y="-328.0"/>
      <point x="484.3833333333333" y="-328.0" type="qcurve" smooth="yes"/>
      <point x="321.6166666666667" y="-328.0"/>
      <point x="137.71666666666667" y="-129.88333333333333"/>
      <point x="137.71666666666667" y="23.633333333333333" type="qcurve" smooth="yes"/>
      <point x="137.71666666666667" y="159.78333333333333"/>
      <point x="249.88333333333333" y="344.1333333333333"/>
      <point x="328.3333333333333" y="426.05" type="qcurve" smooth="yes"/>
      <point x="414.05" y="515.95"/>
      <point x="465.0833333333333" y="652.9833333333333"/>
      <point x="465.0833333333333" y="728.0" type="qcurve" smooth="yes"/>
      <point x="465.0833333333333" y="738.0" type="line"/>
      <point x="581.5666666666666" y="738.0" type="line"/>
      <point x="581.5666666666666" y="728.0" type="line" smooth="yes"/>
      <point x="581.5666666666666" y="610.1666666666666"/>
      <point x="506.81666666666666" y="457.56666666666666"/>
      <point x="421.56666666666666" y="365.71666666666664" type="qcurve" smooth="yes"/>
      <point x="341.7166666666667" y="278.98333333333335"/>
      <point x="254.2" y="132.95"/>
      <point x="254.2" y="23.633333333333333" type="qcurve" smooth="yes"/>
      <point x="254.2" y="-84.96666666666667"/>
      <point x="368.65" y="-220.46666666666667"/>
      <point x="484.3833333333333" y="-220.46666666666667" type="qcurve" smooth="yes"/>
      <point x="600.1166666666667" y="-220.46666666666667"/>
      <point x="721.5666666666667" y="-87.08333333333333"/>
      <point x="721.5666666666667" y="33.0" type="qcurve" smooth="yes"/>
      <point x="721.5666666666667" y="53.0" type="line"/>
    </contour>
  </outline>
</glyph>
<glyph name="AE" format="2">
  <advance width="1804"/>
  <unicode hex="00C6"/>
  <outline>
    <contour>
      <point x="301.28333333333336" y="401.73333333333335" type="line"/>
      <point x="361.8666666666667" y="507.93333333333334" type="line"/>
      <point x="971.2166666666667" y="507.93333333333334" type="line"/>
      <point x="971.2166666666667" y="401.73333333333335" type="line"/>
    </contour>
    <contour>
      <point x="-4.25" y="0.0" type="line"/>
      <point x="876.75" y="1456.0" type="line"/>
      <point x="1727.0666666666666" y="1456.0" type="line"/>
      <point x="1727.0666666666666" y="1350.3166666666666" type="line"/>
      <point x="1039.5833333333333" y="1350.3166666666666" type="line"/>
      <point x="1039.5833333333333" y="803.4833333333333" type="line"/>
      <point x="1632.2" y="803.4833333333333" type="line"/>
      <point x="1632.2" y="698.5166666666667" type="line"/>
      <point x="1039.5833333333333" y="698.5166666666667" type="line"/>
      <point x="1039.5833333333333" y="105.68333333333334" type="line"/>
      <point x="1737.0666666666666" y="105.68333333333334" type="line"/>
      <point x="1737.0666666666666" y="0.0" type="line"/>
      <point x="920.6833333333333" y="0.0" type="line"/>
      <point x="920.6833333333333" y="1329.7333333333333" type="line"/>
      <point x="131.01666666666665" y="0.0" type="line"/>
    </contour>
  </outline>
</glyph>
<glyph name="multiply" format="2">
  <advance width="1024"/>
  <unicode hex="00D7"/>
  <outline>
    <contour>
      <point x="200.75" y="285.73333333333335" type="line"/>
      <point x="126.43333333333334" y="361.18333333333334" type="line"/>
      <point x="812.1166666666667" y="1051.6833333333334" type="line"/>
      <point x="886.4333333333333" y="975.95" type="line"/>
    </contour>
    <contour>
      <point x="820.6" y="274.98333333333335" type="line"/>
      <point x="116.53333333333333" y="983.5833333333334" type="line"/>
      <point x="194.68333333333334" y="1062.4333333333334" type="line"/>
      <point x="898.0333333333333" y="354.26666666666665" type="line"/>
    </contour>
  </outline>
</glyph>
<glyph name="Thorn" format="2">
  <advance width="1074"/>
  <unicode hex="00DE"/>
  <guideline x="0" y="901.0" angle="0" identifier="i9jYwjBDP4"/>
  <guideline x="0" y="555.0" angle="0" identifier="T8KKW8oxop"/>
  <outline>
    <contour>
      <point x="170.0" y="1456.0" type="line"/>
      <point x="286.9166666666667" y="1456.0" type="line"/>
      <point x="286.9166666666667" y="1165.15" type="line"/>
      <point x="587.1333333333333" y="1165.15" type="line" smooth="yes"/>
      <point x="804.9333333333333" y="1165.15"/>
      <point x="1023.9666666666667" y="929.9833333333333"/>
      <point x="1023.9666666666667" y="740.15" type="qcurve" smooth="yes"/>
      <point x="1023.9666666666667" y="549.6"/>
      <point x="804.2166666666667" y="314.0"/>
      <point x="587.1333333333333" y="314.0" type="qcurve" smooth="yes"/>
      <point x="286.9166666666667" y="314.0" type="line"/>
      <point x="286.9166666666667" y="0.0" type="line"/>
      <point x="170.0" y="0.0" type="line"/>
    </contour>
    <contour>
      <point x="587.1333333333333" y="1061.45" type="qcurve" smooth="yes"/>
      <point x="286.9166666666667" y="1061.45" type="line"/>
      <point x="286.9166666666667" y="417.7" type="line"/>
      <point x="587.1333333333333" y="417.7" type="line" smooth="yes"/>
      <point x="762.1833333333333" y="417.7"/>
      <point x="906.3333333333334" y="597.55"/>
      <point x="906.3333333333334" y="739.5833333333334" type="qcurve" smooth="yes"/>
      <point x="906.3333333333334" y="880.9"/>
      <point x="762.1833333333333" y="1061.45"/>
    </contour>
  </outline>
</glyph>
<glyph name="germandbls" format="2">
  <advance width="1186"/>
  <unicode hex="00DF"/>
  <outline>
    <contour>
      <point x="317.6666666666667" y="1092.0" type="qcurve" name="hr00"/>
      <point x="317.6666666666667" y="0.0" type="line"/>
      <point x="201.75" y="0.0" type="line"/>
      <point x="201.75" y="1092.0" type="line" smooth="yes"/>
      <point x="201.75" y="1302.1666666666667"/>
      <point x="391.1166666666667" y="1534.0"/>
      <point x="569.3333333333334" y="1534.0" type="qcurve" smooth="yes"/>
      <point x="724.0166666666667" y="1534.0"/>
      <point x="896.9333333333333" y="1366.7333333333333"/>
      <point x="896.9333333333333" y="1215.0" type="qcurve" smooth="yes"/>
      <point x="896.9333333333333" y="1147.0666666666666"/>
      <point x="849.0833333333334" y="1026.75"/>
      <point x="807.7833333333333" y="975.8666666666667" type="qcurve" smooth="yes"/>
      <point x="776.5" y="937.8666666666667"/>
      <point x="711.05" y="848.25"/>
      <point x="711.05" y="816.3833333333333" type="qcurve" smooth="yes"/>
      <point x="711.05" y="770.5333333333333"/>
      <point x="838.3166666666666" y="659.5"/>
      <point x="920.0333333333333" y="598.2166666666667" type="qcurve" smooth="yes"/>
      <point x="1010.9333333333333" y="529.9"/>
      <point x="1110.7666666666667" y="392.3666666666667"/>
      <point x="1110.7666666666667" y="282.0" type="qcurve" smooth="yes"/>
      <point x="1110.7666666666667" y="157.0"/>
      <point x="920.0" y="-20.0"/>
      <point x="753.0" y="-20.0" type="qcurve" smooth="yes"/>
      <point x="599.0333333333333" y="-20.0"/>
      <point x="420.6666666666667" y="138.31666666666666"/>
      <point x="420.6666666666667" y="283.73333333333335" type="qcurve" smooth="yes"/>
      <point x="420.6666666666667" y="304.0" type="line"/>
      <point x="533.5" y="304.0" type="line"/>
      <point x="533.5" y="289.26666666666665" type="line" smooth="yes"/>
      <point x="533.5" y="188.06666666666666"/>
      <point x="652.1166666666667" y="81.55"/>
      <point x="755.0" y="81.55" type="qcurve" smooth="yes"/>
      <point x="872.4833333333333" y="81.55"/>
      <point x="998.8333333333334" y="195.06666666666666"/>
      <point x="998.8333333333334" y="302.0" type="qcurve" smooth="yes"/>
      <point x="998.8333333333334" y="355.23333333333335"/>
      <point x="916.3166666666667" y="459.55"/>
      <point x="838.5333333333333" y="519.1666666666666" type="qcurve" smooth="yes"/>
      <point x="765.8166666666667" y="574.7333333333333"/>
      <point x="598.8333333333334" y="709.5833333333334"/>
      <point x="598.8333333333334" y="798.4333333333333" type="qcurve" smooth="yes"/>
      <point x="598.8333333333334" y="868.85"/>
      <point x="674.6666666666666" y="971.25"/>
      <point x="706.6666666666666" y="1015.25" type="qcurve" smooth="yes"/>
      <point x="743.55" y="1066.0"/>
      <point x="785.0" y="1161.1833333333334"/>
      <point x="785.0" y="1208.3" type="qcurve" smooth="yes"/>
      <point x="785.0" y="1314.5"/>
      <point x="668.1166666666667" y="1432.45"/>
      <point x="565.3333333333334" y="1432.45" type="qcurve" smooth="yes"/>
      <point x="446.56666666666666" y="1432.45"/>
      <point x="317.6666666666667" y="1258.2"/>
    </contour>
  </outline>
</glyph>
